other-letter-with latin.ufo
<glyph name="exclam" format="1">
  <advance width="291"/>
  <unicode hex="0021"/>
  <outline>
    <contour>
      <point x="89" y="259" type="line"/>
      <point x="89" y="734" type="line"/>
      <point x="202" y="734" type="line"/>
      <point x="202" y="259" type="line"/>
    </contour>
    <contour>
      <point x="89" y="0" type="line"/>
      <point x="89" y="140" type="line"/>
      <point x="202" y="140" type="line"/>
      <point x="202" y="0" type="line"/>
    </contour>
  </outline>
</glyph>
<glyph name="quotedbl" format="1">
  <advance width="366"/>
  <unicode hex="0022"/>
  <outline>
    <contour>
      <point x="66" y="513" type="line"/>
      <point x="66" y="738" type="line"/>
      <point x="162" y="738" type="line"/>
      <point x="162" y="513" type="line"/>
    </contour>
    <contour>
      <point x="204" y="513" type="line"/>
      <point x="204" y="738" type="line"/>
      <point x="300" y="738" type="line"/>
      <point x="300" y="513" type="line"/>
    </contour>
  </outline>
</glyph>
<glyph name="numbersign" format="1">
  <advance width="723"/>
  <unicode hex="0023"/>
  <outline>
    <contour>
      <point x="685" y="446" type="line"/>
      <point x="543" y="446" type="line"/>
      <point x="504" y="285" type="line"/>
      <point x="639" y="285" type="line"/>
      <point x="639" y="199" type="line"/>
      <point x="483" y="199" type="line"/>
      <point x="435" y="0" type="line"/>
      <point x="343" y="0" type="line"/>
      <point x="392" y="199" type="line"/>
      <point x="244" y="199" type="line"/>
      <point x="196" y="0" type="line"/>
      <point x="103" y="0" type="line"/>
      <point x="154" y="199" type="line"/>
      <point x="38" y="199" type="line"/>
      <point x="38" y="285" type="line"/>
      <point x="173" y="285" type="line"/>
      <point x="212" y="446" type="line"/>
      <point x="84" y="446" type="line"/>
      <point x="84" y="526" type="line"/>
      <point x="232" y="526" type="line"/>
      <point x="281" y="727" type="line"/>
      <point x="373" y="727" type="line"/>
      <point x="324" y="526" type="line"/>
      <point x="471" y="526" type="line"/>
      <point x="520" y="727" type="line"/>
      <point x="612" y="727" type="line"/>
      <point x="562" y="526" type="line"/>
      <point x="685" y="526" type="line"/>
    </contour>
    <contour>
      <point x="413" y="285" type="line"/>
      <point x="452" y="446" type="line"/>
      <point x="303" y="446" type="line"/>
      <point x="264" y="285" type="line"/>
    </contour>
  </outline>
</glyph>
<glyph name="plus" format="1">
  <advance width="585"/>
  <unicode hex="002B"/>
  <outline>
    <contour>
      <point x="328" y="397" type="line"/>
      <point x="532" y="397" type="line"/>
      <point x="532" y="324" type="line"/>
      <point x="328" y="324" type="line"/>
      <point x="328" y="113" type="line"/>
      <point x="255" y="113" type="line"/>
      <point x="255" y="324" type="line"/>
      <point x="51" y="324" type="line"/>
      <point x="51" y="397" type="line"/>
      <point x="255" y="397" type="line"/>
      <point x="255" y="609" type="line"/>
      <point x="328" y="609" type="line"/>
    </contour>
  </outline>
</glyph>
<glyph name="comma" format="1">
  <advance width="226"/>
  <unicode hex="002C"/>
  <outline>
    <contour>
      <point x="75" y="-99" type="line"/>
      <point x="99" y="6" type="line"/>
      <point x="62" y="6" type="line"/>
      <point x="62" y="131" type="line"/>
      <point x="164" y="131" type="line"/>
      <point x="164" y="6" type="line"/>
      <point x="128" y="-99" type="line"/>
    </contour>
  </outline>
</glyph>
<glyph name="period" format="1">
  <advance width="218"/>
  <unicode hex="002E"/>
  <outline>
    <contour>
      <point x="62" y="0" type="line"/>
      <point x="62" y="131" type="line"/>
      <point x="156" y="131" type="line"/>
      <point x="156" y="0" type="line"/>
    </contour>
  </outline>
</glyph>
<glyph name="slash" format="1">
  <advance width="680"/>
  <unicode hex="002F"/>
  <outline>
    <contour>
      <point x="651" y="727" type="line"/>
      <point x="153" y="0" type="line"/>
      <point x="28" y="0" type="line"/>
      <point x="526" y="727" type="line"/>
    </contour>
  </outline>
</glyph>
<glyph name="one" format="1">
  <advance width="482"/>
  <unicode hex="0031"/>
  <outline>
    <contour>
      <point x="458" y="101" type="line"/>
      <point x="458" y="0" type="line"/>
      <point x="67" y="0" type="line"/>
      <point x="67" y="101" type="line"/>
      <point x="212" y="101" type="line"/>
      <point x="212" y="459" type="line"/>
      <point x="203" y="446"/>
      <point x="164" y="420"/>
      <point x="117" y="397"/>
      <point x="66" y="382"/>
      <point x="46" y="382" type="qcurve"/>
      <point x="46" y="487" type="line"/>
      <point x="67" y="487"/>
      <point x="121" y="512"/>
      <point x="171" y="545"/>
      <point x="209" y="578"/>
      <point x="212" y="585" type="qcurve"/>
      <point x="328" y="585" type="line"/>
      <point x="328" y="101" type="line"/>
    </contour>
  </outline>
</glyph>
<glyph name="three" format="1">
  <advance width="562"/>
  <unicode hex="0033"/>
  <outline>
    <contour>
      <point x="378" y="242" type="qcurve"/>
      <point x="410" y="236"/>
      <point x="463" y="204"/>
      <point x="500" y="157"/>
      <point x="520" y="95"/>
      <point x="520" y="59" type="qcurve"/>
      <point x="520" y="11"/>
      <point x="484" y="-66"/>
      <point x="418" y="-121"/>
      <point x="324" y="-151"/>
      <point x="265" y="-151" type="qcurve"/>
      <point x="187" y="-151"/>
      <point x="69" y="-96"/>
      <point x="33" y="-45" type="qcurve"/>
      <point x="101" y="33" type="line"/>
      <point x="126" y="-5"/>
      <point x="204" y="-48"/>
      <point x="263" y="-48" type="qcurve"/>
      <point x="331" y="-48"/>
      <point x="403" y="9"/>
      <point x="403" y="67" type="qcurve"/>
      <point x="403" y="126"/>
      <point x="322" y="194"/>
      <point x="242" y="194" type="qcurve"/>
      <point x="214" y="194" type="line"/>
      <point x="214" y="282" type="line"/>
      <point x="245" y="282" type="line"/>
      <point x="313" y="282"/>
      <point x="387" y="346"/>
      <point x="387" y="395" type="qcurve"/>
      <point x="387" y="444"/>
      <point x="322" y="490"/>
      <point x="269" y="490" type="qcurve"/>
      <point x="217" y="490"/>
      <point x="137" y="445"/>
      <point x="114" y="403" type="qcurve"/>
      <point x="43" y="480" type="line"/>
      <point x="57" y="505"/>
      <point x="106" y="545"/>
      <point x="169" y="574"/>
      <point x="242" y="590"/>
      <point x="281" y="590" type="qcurve"/>
      <point x="331" y="590"/>
      <point x="414" y="563"/>
      <point x="474" y="516"/>
      <point x="507" y="449"/>
      <point x="507" y="408" type="qcurve"/>
      <point x="507" y="377"/>
      <point x="488" y="322"/>
      <point x="455" y="276"/>
      <point x="408" y="247"/>
    </contour>
  </outline>
</glyph>
<glyph name="four" format="1">
  <advance width="578"/>
  <unicode hex="0034"/>
  <outline>
    <contour>
      <point x="337" y="-130" type="line"/>
      <point x="337" y="33" type="line"/>
      <point x="23" y="33" type="line"/>
      <point x="23" y="133" type="line"/>
      <point x="373" y="585" type="line"/>
      <point x="450" y="585" type="line"/>
      <point x="450" y="135" type="line"/>
      <point x="540" y="135" type="line"/>
      <point x="540" y="33" type="line"/>
      <point x="450" y="33" type="line"/>
      <point x="450" y="-130" type="line"/>
    </contour>
    <contour>
      <point x="137" y="135" type="line"/>
      <point x="349" y="135" type="line"/>
      <point x="349" y="413" type="line"/>
    </contour>
  </outline>
</glyph>
<glyph name="six" format="1">
  <advance width="622"/>
  <unicode hex="0036"/>
  <outline>
    <contour>
      <point x="578" y="242" type="qcurve"/>
      <point x="578" y="189"/>
      <point x="538" y="97"/>
      <point x="467" y="29"/>
      <point x="371" y="-10"/>
      <point x="315" y="-10" type="qcurve"/>
      <point x="255" y="-10"/>
      <point x="157" y="34"/>
      <point x="87" y="117"/>
      <point x="49" y="237"/>
      <point x="49" y="312" type="qcurve"/>
      <point x="49" y="417"/>
      <point x="89" y="573"/>
      <point x="161" y="679"/>
      <point x="263" y="732"/>
      <point x="327" y="732" type="qcurve"/>
      <point x="396" y="732"/>
      <point x="512" y="669"/>
      <point x="548" y="610" type="qcurve"/>
      <point x="481" y="541" type="line"/>
      <point x="458" y="584"/>
      <point x="375" y="634"/>
      <point x="325" y="634" type="qcurve"/>
      <point x="248" y="634"/>
      <point x="157" y="504"/>
      <point x="155" y="386" type="qcurve"/>
      <point x="177" y="432"/>
      <point x="267" y="485"/>
      <point x="326" y="485" type="qcurve"/>
      <point x="379" y="485"/>
      <point x="471" y="447"/>
      <point x="539" y="382"/>
      <point x="578" y="293"/>
    </contour>
    <contour>
      <point x="315" y="86" type="qcurve"/>
      <point x="347" y="86"/>
      <point x="403" y="111"/>
      <point x="445" y="154"/>
      <point x="470" y="210"/>
      <point x="470" y="242" type="qcurve"/>
      <point x="470" y="273"/>
      <point x="445" y="329"/>
      <point x="403" y="371"/>
      <point x="347" y="395"/>
      <point x="315" y="395" type="qcurve"/>
      <point x="284" y="395"/>
      <point x="227" y="371"/>
      <point x="185" y="329"/>
      <point x="161" y="273"/>
      <point x="161" y="242" type="qcurve"/>
      <point x="161" y="210"/>
      <point x="185" y="154"/>
      <point x="227" y="111"/>
      <point x="284" y="86"/>
    </contour>
  </outline>
</glyph>
<glyph name="eight" format="1">
  <advance width="615"/>
  <unicode hex="0038"/>
  <outline>
    <contour>
      <point x="567" y="210" type="qcurve"/>
      <point x="567" y="161"/>
      <point x="525" y="80"/>
      <point x="454" y="23"/>
      <point x="359" y="-8"/>
      <point x="306" y="-8" type="qcurve"/>
      <point x="252" y="-8"/>
      <point x="157" y="26"/>
      <point x="87" y="85"/>
      <point x="47" y="167"/>
      <point x="47" y="215" type="qcurve"/>
      <point x="47" y="247"/>
      <point x="70" y="302"/>
      <point x="105" y="346"/>
      <point x="151" y="379"/>
      <point x="173" y="389" type="qcurve"/>
      <point x="131" y="408"/>
      <point x="72" y="483"/>
      <point x="72" y="531" type="qcurve"/>
      <point x="72" y="579"/>
      <point x="115" y="651"/>
      <point x="182" y="701"/>
      <point x="266" y="727"/>
      <point x="307" y="727" type="qcurve"/>
      <point x="348" y="727"/>
      <point x="433" y="701"/>
      <point x="502" y="652"/>
      <point x="545" y="580"/>
      <point x="545" y="532" type="qcurve"/>
      <point x="545" y="484"/>
      <point x="484" y="408"/>
      <point x="441" y="389" type="qcurve"/>
      <point x="466" y="378"/>
      <point x="512" y="344"/>
      <point x="547" y="298"/>
      <point x="567" y="243"/>
    </contour>
    <contour>
      <point x="454" y="217" type="qcurve"/>
      <point x="454" y="247"/>
      <point x="428" y="293"/>
      <point x="386" y="326"/>
      <point x="334" y="342"/>
      <point x="307" y="342" type="qcurve"/>
      <point x="280" y="342"/>
      <point x="227" y="325"/>
      <point x="187" y="292"/>
      <point x="163" y="246"/>
      <point x="163" y="217" type="qcurve"/>
      <point x="163" y="188"/>
      <point x="188" y="142"/>
      <point x="229" y="111"/>
      <point x="282" y="93"/>
      <point x="308" y="93" type="qcurve"/>
      <point x="336" y="93"/>
      <point x="388" y="112"/>
      <point x="429" y="144"/>
      <point x="454" y="189"/>
    </contour>
    <contour>
      <point x="185" y="527" type="qcurve"/>
      <point x="185" y="503"/>
      <point x="208" y="466"/>
      <point x="243" y="441"/>
      <point x="286" y="428"/>
      <point x="307" y="428" type="qcurve"/>
      <point x="329" y="428"/>
      <point x="373" y="441"/>
      <point x="408" y="467"/>
      <point x="430" y="505"/>
      <point x="430" y="529" type="qcurve"/>
      <point x="430" y="552"/>
      <point x="410" y="588"/>
      <point x="376" y="613"/>
      <point x="332" y="627"/>
      <point x="307" y="627" type="qcurve"/>
      <point x="283" y="627"/>
      <point x="239" y="612"/>
      <point x="205" y="587"/>
      <point x="185" y="550"/>
    </contour>
  </outline>
</glyph>
<glyph name="nine" format="1">
  <advance width="603"/>
  <unicode hex="0039"/>
  <outline>
    <contour>
      <point x="35" y="333" type="qcurve"/>
      <point x="35" y="385"/>
      <point x="76" y="477"/>
      <point x="146" y="546"/>
      <point x="243" y="585"/>
      <point x="298" y="585" type="qcurve"/>
      <point x="357" y="585"/>
      <point x="456" y="541"/>
      <point x="525" y="458"/>
      <point x="563" y="338"/>
      <point x="563" y="262" type="qcurve"/>
      <point x="563" y="158"/>
      <point x="523" y="1"/>
      <point x="452" y="-104"/>
      <point x="348" y="-158"/>
      <point x="286" y="-158" type="qcurve"/>
      <point x="216" y="-158"/>
      <point x="100" y="-94"/>
      <point x="65" y="-36" type="qcurve"/>
      <point x="131" y="34" type="line"/>
      <point x="155" y="-9"/>
      <point x="238" y="-59"/>
      <point x="288" y="-59" type="qcurve"/>
      <point x="365" y="-59"/>
      <point x="456" y="71"/>
      <point x="458" y="188" type="qcurve"/>
      <point x="436" y="142"/>
      <point x="345" y="89"/>
      <point x="287" y="89" type="qcurve"/>
      <point x="233" y="89"/>
      <point x="141" y="127"/>
      <point x="74" y="193"/>
      <point x="35" y="282"/>
    </contour>
    <contour>
      <point x="297" y="488" type="qcurve"/>
      <point x="265" y="488"/>
      <point x="209" y="464"/>
      <point x="167" y="421"/>
      <point x="142" y="365"/>
      <point x="142" y="333" type="qcurve"/>
      <point x="142" y="301"/>
      <point x="167" y="246"/>
      <point x="209" y="204"/>
      <point x="265" y="179"/>
      <point x="297" y="179" type="qcurve"/>
      <point x="329" y="179"/>
      <point x="385" y="204"/>
      <point x="427" y="246"/>
      <point x="452" y="301"/>
      <point x="452" y="333" type="qcurve"/>
      <point x="452" y="365"/>
      <point x="427" y="421"/>
      <point x="385" y="464"/>
      <point x="329" y="488"/>
    </contour>
  </outline>
</glyph>
<glyph name="semicolon" format="1">
  <advance width="245"/>
  <unicode hex="003B"/>
  <outline>
    <contour>
      <point x="73" y="400" type="line"/>
      <point x="73" y="530" type="line"/>
      <point x="165" y="530" type="line"/>
      <point x="165" y="400" type="line"/>
    </contour>
    <contour>
      <point x="84" y="-99" type="line"/>
      <point x="109" y="6" type="line"/>
      <point x="72" y="6" type="line"/>
      <point x="72" y="131" type="line"/>
      <point x="173" y="131" type="line"/>
      <point x="173" y="6" type="line"/>
      <point x="137" y="-99" type="line"/>
    </contour>
  </outline>
</glyph>
<glyph name="less" format="1">
  <advance width="585"/>
  <unicode hex="003C"/>
  <outline>
    <contour>
      <point x="533" y="119" type="line"/>
      <point x="51" y="331" type="line"/>
      <point x="51" y="382" type="line"/>
      <point x="533" y="622" type="line"/>
      <point x="533" y="542" type="line"/>
      <point x="147" y="360" type="line"/>
      <point x="533" y="198" type="line"/>
    </contour>
  </outline>
</glyph>
<glyph name="greater" format="1">
  <advance width="585"/>
  <unicode hex="003E"/>
  <outline>
    <contour>
      <point x="51" y="198" type="line"/>
      <point x="437" y="359" type="line"/>
      <point x="51" y="542" type="line"/>
      <point x="51" y="622" type="line"/>
      <point x="533" y="382" type="line"/>
      <point x="533" y="331" type="line"/>
      <point x="51" y="119" type="line"/>
    </contour>
  </outline>
</glyph>
<glyph name="at" format="1">
  <advance width="863"/>
  <unicode hex="0040"/>
  <outline>
    <contour>
      <point x="430" y="617" type="qcurve"/>
      <point x="506" y="617"/>
      <point x="643" y="564"/>
      <point x="748" y="465"/>
      <point x="810" y="319"/>
      <point x="810" y="227" type="qcurve"/>
      <point x="810" y="213"/>
      <point x="807" y="165"/>
      <point x="797" y="112"/>
      <point x="776" y="56"/>
      <point x="741" y="11"/>
      <point x="690" y="-16"/>
      <point x="654" y="-16" type="qcurve"/>
      <point x="628" y="-16"/>
      <point x="593" y="-1"/>
      <point x="572" y="24"/>
      <point x="563" y="55"/>
      <point x="561" y="72" type="qcurve"/>
      <point x="531" y="40"/>
      <point x="440" y="0"/>
      <point x="387" y="0" type="qcurve"/>
      <point x="311" y="0"/>
      <point x="231" y="80"/>
      <point x="231" y="141" type="qcurve"/>
      <point x="231" y="182"/>
      <point x="265" y="239"/>
      <point x="319" y="272"/>
      <point x="388" y="287"/>
      <point x="422" y="287" type="qcurve"/>
      <point x="465" y="287"/>
      <point x="528" y="270"/>
      <point x="544" y="264" type="qcurve"/>
      <point x="544" y="295"/>
      <point x="534" y="346"/>
      <point x="506" y="383"/>
      <point x="459" y="403"/>
      <point x="423" y="403" type="qcurve"/>
      <point x="381" y="403"/>
      <point x="310" y="379"/>
      <point x="284" y="357" type="qcurve"/>
      <point x="261" y="419" type="line"/>
      <point x="299" y="443"/>
      <point x="385" y="470"/>
      <point x="433" y="470" type="qcurve"/>
      <point x="496" y="470"/>
      <point x="568" y="430"/>
      <point x="604" y="369"/>
      <point x="613" y="293"/>
      <point x="613" y="258" type="qcurve"/>
      <point x="613" y="147" type="line"/>
      <point x="613" y="125"/>
      <point x="616" y="85"/>
      <point x="627" y="54"/>
      <point x="647" y="37"/>
      <point x="665" y="37" type="qcurve"/>
      <point x="693" y="37"/>
      <point x="731" y="79"/>
      <point x="752" y="139"/>
      <point x="760" y="206"/>
      <point x="760" y="229" type="qcurve"/>
      <point x="760" y="302"/>
      <point x="711" y="427"/>
      <point x="623" y="518"/>
      <point x="500" y="570"/>
      <point x="427" y="570" type="qcurve"/>
      <point x="355" y="570"/>
      <point x="234" y="520"/>
      <point x="145" y="431"/>
      <point x="95" y="308"/>
      <point x="95" y="236" type="qcurve"/>
      <point x="95" y="166"/>
      <point x="142" y="43"/>
      <point x="227" y="-49"/>
      <point x="346" y="-102"/>
      <point x="418" y="-102" type="qcurve"/>
      <point x="466" y="-102"/>
      <point x="539" y="-81"/>
      <point x="577" y="-63" type="qcurve"/>
      <point x="593" y="-109" type="line"/>
      <point x="550" y="-129"/>
      <point x="462" y="-150"/>
      <point x="417" y="-150" type="qcurve"/>
      <point x="340" y="-150"/>
      <point x="205" y="-93"/>
      <point x="103" y="9"/>
      <point x="45" y="151"/>
      <point x="45" y="236" type="qcurve"/>
      <point x="45" y="325"/>
      <point x="109" y="467"/>
      <point x="215" y="565"/>
      <point x="354" y="617"/>
    </contour>
    <contour>
      <point x="485" y="83" type="qcurve"/>
      <point x="519" y="99"/>
      <point x="543" y="145"/>
      <point x="543" y="170" type="qcurve"/>
      <point x="543" y="209" type="line"/>
      <point x="528" y="212"/>
      <point x="465" y="230"/>
      <point x="422" y="230" type="qcurve"/>
      <point x="372" y="230"/>
      <point x="301" y="191"/>
      <point x="301" y="144" type="qcurve"/>
      <point x="301" y="109"/>
      <point x="350" y="61"/>
      <point x="393" y="61" type="qcurve"/>
      <point x="416" y="61"/>
      <point x="465" y="74"/>
    </contour>
  </outline>
</glyph>
<glyph name="A" format="1">
  <advance width="691"/>
  <unicode hex="0041"/>
  <outline>
    <contour>
      <point x="346" y="725" type="move" name="top"/>
    </contour>
    <contour>
      <point x="621" y="4" type="move" name="bottom"/>
    </contour>
    <contour>
      <point x="296" y="727" type="line"/>
      <point x="396" y="727" type="line"/>
      <point x="683" y="0" type="line"/>
      <point x="562" y="0" type="line"/>
      <point x="485" y="198" type="line"/>
      <point x="205" y="198" type="line"/>
      <point x="129" y="0" type="line"/>
      <point x="7" y="0" type="line"/>
    </contour>
    <contour>
      <point x="463" y="283" type="line"/>
      <point x="346" y="595" type="line"/>
      <point x="225" y="283" type="line"/>
    </contour>
  </outline>
</glyph>
<glyph name="B" format="1">
  <advance width="691"/>
  <unicode hex="0042"/>
  <outline>
    <contour>
      <point x="653" y="187" type="qcurve"/>
      <point x="653" y="143"/>
      <point x="617" y="74"/>
      <point x="557" y="26"/>
      <point x="475" y="0"/>
      <point x="429" y="0" type="qcurve"/>
      <point x="82" y="0" type="line"/>
      <point x="82" y="727" type="line"/>
      <point x="457" y="727" type="line"/>
      <point x="495" y="727"/>
      <point x="556" y="694"/>
      <point x="599" y="642"/>
      <point x="623" y="575"/>
      <point x="623" y="542" type="qcurve"/>
      <point x="623" y="488"/>
      <point x="568" y="395"/>
      <point x="518" y="373" type="qcurve"/>
      <point x="581" y="354"/>
      <point x="653" y="257"/>
    </contour>
    <contour>
      <point x="536" y="209" type="qcurve"/>
      <point x="536" y="231"/>
      <point x="520" y="272"/>
      <point x="495" y="303"/>
      <point x="458" y="322"/>
      <point x="436" y="322" type="qcurve"/>
      <point x="197" y="322" type="line"/>
      <point x="197" y="99" type="line"/>
      <point x="429" y="99" type="line"/>
      <point x="452" y="99"/>
      <point x="490" y="117"/>
      <point x="519" y="146"/>
      <point x="536" y="186"/>
    </contour>
    <contour>
      <point x="197" y="628" type="line"/>
      <point x="197" y="414" type="line"/>
      <point x="408" y="414" type="line"/>
      <point x="429" y="414"/>
      <point x="465" y="430"/>
      <point x="493" y="458"/>
      <point x="508" y="497"/>
      <point x="508" y="520" type="qcurve"/>
      <point x="508" y="567"/>
      <point x="455" y="628"/>
      <point x="414" y="628" type="qcurve"/>
    </contour>
  </outline>
</glyph>
<glyph name="C" format="1">
  <advance width="700"/>
  <unicode hex="0043"/>
  <outline>
    <contour>
      <point x="387" y="725" type="move" name="top"/>
    </contour>
    <contour>
      <point x="383" y="0" type="move" name="bottom"/>
    </contour>
    <contour>
      <point x="36" y="369" type="qcurve"/>
      <point x="36" y="434"/>
      <point x="83" y="564"/>
      <point x="174" y="668"/>
      <point x="305" y="731"/>
      <point x="388" y="731" type="qcurve"/>
      <point x="487" y="731"/>
      <point x="629" y="643"/>
      <point x="665" y="572" type="qcurve"/>
      <point x="574" y="512" type="line"/>
      <point x="559" y="545"/>
      <point x="516" y="590"/>
      <point x="465" y="616"/>
      <point x="410" y="628"/>
      <point x="384" y="628" type="qcurve"/>
      <point x="327" y="628"/>
      <point x="241" y="582"/>
      <point x="182" y="506"/>
      <point x="153" y="412"/>
      <point x="153" y="365" type="qcurve"/>
      <point x="153" y="311"/>
      <point x="187" y="215"/>
      <point x="250" y="141"/>
      <point x="336" y="97"/>
      <point x="387" y="97" type="qcurve"/>
      <point x="414" y="97"/>
      <point x="470" y="111"/>
      <point x="522" y="140"/>
      <point x="566" y="185"/>
      <point x="581" y="217" type="qcurve"/>
      <point x="676" y="163" type="line"/>
      <point x="658" y="122"/>
      <point x="595" y="59"/>
      <point x="515" y="16"/>
      <point x="426" y="-6"/>
      <point x="383" y="-6" type="qcurve"/>
      <point x="306" y="-6"/>
      <point x="179" y="59"/>
      <point x="87" y="165"/>
      <point x="36" y="299"/>
    </contour>
  </outline>
</glyph>
<glyph name="F" format="1">
  <advance width="593"/>
  <unicode hex="0046"/>
  <outline>
    <contour>
      <point x="82" y="0" type="line"/>
      <point x="82" y="727" type="line"/>
      <point x="566" y="727" type="line"/>
      <point x="566" y="626" type="line"/>
      <point x="197" y="626" type="line"/>
      <point x="197" y="409" type="line"/>
      <point x="506" y="409" type="line"/>
      <point x="506" y="313" type="line"/>
      <point x="197" y="313" type="line"/>
      <point x="197" y="0" type="line"/>
    </contour>
  </outline>
</glyph>
<glyph name="G" format="1">
  <advance width="736"/>
  <unicode hex="0047"/>
  <outline>
    <contour>
      <point x="382" y="725" type="move" name="top"/>
    </contour>
    <contour>
      <point x="382" y="0" type="move" name="bottom"/>
    </contour>
    <contour>
      <point x="591" y="90" type="line"/>
      <point x="499" y="-5"/>
      <point x="379" y="-5" type="qcurve"/>
      <point x="306" y="-5"/>
      <point x="181" y="55"/>
      <point x="89" y="158"/>
      <point x="37" y="293"/>
      <point x="37" y="367" type="qcurve"/>
      <point x="37" y="440"/>
      <point x="89" y="573"/>
      <point x="181" y="674"/>
      <point x="308" y="732"/>
      <point x="383" y="732" type="qcurve"/>
      <point x="487" y="732"/>
      <point x="629" y="645"/>
      <point x="665" y="573" type="qcurve"/>
      <point x="577" y="510" type="line"/>
      <point x="547" y="569"/>
      <point x="442" y="629"/>
      <point x="380" y="629" type="qcurve"/>
      <point x="329" y="629"/>
      <point x="245" y="585"/>
      <point x="185" y="512"/>
      <point x="154" y="416"/>
      <point x="154" y="364" type="qcurve"/>
      <point x="154" y="308"/>
      <point x="189" y="212"/>
      <point x="252" y="140"/>
      <point x="338" y="98"/>
      <point x="388" y="98" type="qcurve"/>
      <point x="443" y="98"/>
      <point x="545" y="150"/>
      <point x="591" y="205" type="qcurve"/>
      <point x="591" y="283" type="line"/>
      <point x="438" y="283" type="line"/>
      <point x="438" y="368" type="line"/>
      <point x="687" y="368" type="line"/>
      <point x="687" y="0" type="line"/>
      <point x="591" y="0" type="line"/>
    </contour>
  </outline>
</glyph>
<glyph name="J" format="1">
  <advance width="500"/>
  <unicode hex="004A"/>
  <outline>
    <contour>
      <point x="370" y="725" type="move" name="top"/>
    </contour>
    <contour>
      <point x="38" y="128" type="line"/>
      <point x="55" y="116"/>
      <point x="124" y="92"/>
      <point x="168" y="92" type="qcurve"/>
      <point x="215" y="92"/>
      <point x="271" y="126"/>
      <point x="301" y="193"/>
      <point x="310" y="292"/>
      <point x="310" y="357" type="qcurve"/>
      <point x="310" y="727" type="line"/>
      <point x="426" y="727" type="line"/>
      <point x="426" y="357" type="line"/>
      <point x="426" y="274"/>
      <point x="410" y="138"/>
      <point x="356" y="42"/>
      <point x="254" y="-11"/>
      <point x="168" y="-11" type="qcurve"/>
      <point x="76" y="-11"/>
      <point x="10" y="34" type="qcurve"/>
    </contour>
  </outline>
</glyph>
<glyph name="K" format="1">
  <advance width="676"/>
  <unicode hex="004B"/>
  <outline>
    <contour>
      <point x="353" y="0" type="move" name="bottom"/>
    </contour>
    <contour>
      <point x="82" y="0" type="line"/>
      <point x="82" y="726" type="line"/>
      <point x="197" y="726" type="line"/>
      <point x="197" y="352" type="line"/>
      <point x="539" y="727" type="line"/>
      <point x="666" y="727" type="line"/>
      <point x="379" y="406" type="line"/>
      <point x="682" y="0" type="line"/>
      <point x="554" y="0" type="line"/>
      <point x="308" y="335" type="line"/>
      <point x="197" y="219" type="line"/>
      <point x="197" y="0" type="line"/>
    </contour>
  </outline>
</glyph>
<glyph name="L" format="1">
  <advance width="598"/>
  <unicode hex="004C"/>
  <outline>
    <contour>
      <point x="361" y="725" type="move" name="top"/>
    </contour>
    <contour>
      <point x="343" y="0" type="move" name="bottom"/>
    </contour>
    <contour>
      <point x="82" y="0" type="line"/>
      <point x="82" y="727" type="line"/>
      <point x="197" y="727" type="line"/>
      <point x="197" y="101" type="line"/>
      <point x="587" y="101" type="line"/>
      <point x="587" y="0" type="line"/>
    </contour>
  </outline>
</glyph>
<glyph name="M" format="1">
  <advance width="891"/>
  <unicode hex="004D"/>
  <outline>
    <contour>
      <point x="693" y="0" type="line"/>
      <point x="693" y="523" type="line"/>
      <point x="477" y="127" type="line"/>
      <point x="414" y="127" type="line"/>
      <point x="197" y="523" type="line"/>
      <point x="197" y="0" type="line"/>
      <point x="82" y="0" type="line"/>
      <point x="82" y="727" type="line"/>
      <point x="205" y="727" type="line"/>
      <point x="445" y="283" type="line"/>
      <point x="686" y="727" type="line"/>
      <point x="809" y="727" type="line"/>
      <point x="809" y="0" type="line"/>
    </contour>
  </outline>
</glyph>
<glyph name="N" format="1">
  <advance width="785"/>
  <unicode hex="004E"/>
  <outline>
    <contour>
      <point x="393" y="725" type="move" name="top"/>
    </contour>
    <contour>
      <point x="393" y="0" type="move" name="bottom"/>
    </contour>
    <contour>
      <point x="197" y="512" type="line"/>
      <point x="197" y="0" type="line"/>
      <point x="82" y="0" type="line"/>
      <point x="82" y="727" type="line"/>
      <point x="172" y="727" type="line"/>
      <point x="588" y="203" type="line"/>
      <point x="588" y="726" type="line"/>
      <point x="703" y="726" type="line"/>
      <point x="703" y="0" type="line"/>
      <point x="608" y="0" type="line"/>
    </contour>
  </outline>
</glyph>
<glyph name="P" format="1">
  <advance width="638"/>
  <unicode hex="0050"/>
  <outline>
    <contour>
      <point x="82" y="0" type="line"/>
      <point x="82" y="727" type="line"/>
      <point x="387" y="727" type="line"/>
      <point x="436" y="727"/>
      <point x="519" y="686"/>
      <point x="579" y="620"/>
      <point x="612" y="535"/>
      <point x="612" y="490" type="qcurve"/>
      <point x="612" y="444"/>
      <point x="581" y="359"/>
      <point x="523" y="293"/>
      <point x="442" y="253"/>
      <point x="393" y="253" type="qcurve"/>
      <point x="197" y="253" type="line"/>
      <point x="197" y="0" type="line"/>
    </contour>
    <contour>
      <point x="197" y="354" type="line"/>
      <point x="386" y="354" type="line"/>
      <point x="411" y="354"/>
      <point x="451" y="375"/>
      <point x="479" y="412"/>
      <point x="496" y="461"/>
      <point x="496" y="490" type="qcurve"/>
      <point x="496" y="521"/>
      <point x="477" y="570"/>
      <point x="444" y="606"/>
      <point x="402" y="626"/>
      <point x="380" y="626" type="qcurve"/>
      <point x="197" y="626" type="line"/>
    </contour>
  </outline>
</glyph>
<glyph name="T" format="1">
  <advance width="631"/>
  <unicode hex="0054"/>
  <outline>
    <contour>
      <point x="319" y="725" type="move" name="top"/>
    </contour>
    <contour>
      <point x="319" y="0" type="move" name="bottom"/>
    </contour>
    <contour>
      <point x="615" y="626" type="line"/>
      <point x="374" y="626" type="line"/>
      <point x="374" y="0" type="line"/>
      <point x="258" y="0" type="line"/>
      <point x="258" y="626" type="line"/>
      <point x="15" y="626" type="line"/>
      <point x="15" y="727" type="line"/>
      <point x="615" y="727" type="line"/>
    </contour>
  </outline>
</glyph>
<glyph name="Z" format="1">
  <advance width="644"/>
  <unicode hex="005A"/>
  <outline>
    <contour>
      <point x="337" y="725" type="move" name="top"/>
    </contour>
    <contour>
      <point x="32" y="88" type="line"/>
      <point x="473" y="626" type="line"/>
      <point x="42" y="626" type="line"/>
      <point x="42" y="727" type="line"/>
      <point x="607" y="727" type="line"/>
      <point x="607" y="639" type="line"/>
      <point x="176" y="101" type="line"/>
      <point x="608" y="101" type="line"/>
      <point x="608" y="0" type="line"/>
      <point x="32" y="0" type="line"/>
    </contour>
  </outline>
</glyph>
<glyph name="bracketleft" format="1">
  <advance width="299"/>
  <unicode hex="005B"/>
  <outline>
    <contour>
      <point x="85" y="-41" type="line"/>
      <point x="85" y="758" type="line"/>
      <point x="252" y="758" type="line"/>
      <point x="252" y="667" type="line"/>
      <point x="189" y="667" type="line"/>
      <point x="189" y="50" type="line"/>
      <point x="252" y="50" type="line"/>
      <point x="252" y="-41" type="line"/>
    </contour>
  </outline>
</glyph>
<glyph name="backslash" format="1">
  <advance width="627"/>
  <unicode hex="005C"/>
  <outline>
    <contour>
      <point x="154" y="727" type="line"/>
      <point x="599" y="0" type="line"/>
      <point x="474" y="0" type="line"/>
      <point x="28" y="727" type="line"/>
    </contour>
  </outline>
</glyph>
<glyph name="bracketright" format="1">
  <advance width="299"/>
  <unicode hex="005D"/>
  <outline>
    <contour>
      <point x="47" y="-41" type="line"/>
      <point x="47" y="50" type="line"/>
      <point x="110" y="50" type="line"/>
      <point x="110" y="667" type="line"/>
      <point x="47" y="667" type="line"/>
      <point x="47" y="758" type="line"/>
      <point x="214" y="758" type="line"/>
      <point x="214" y="-41" type="line"/>
    </contour>
  </outline>
</glyph>
<glyph name="asciicircum" format="1">
  <advance width="583"/>
  <unicode hex="005E"/>
  <outline>
    <contour>
      <point x="42" y="310" type="line"/>
      <point x="245" y="727" type="line"/>
      <point x="339" y="727" type="line"/>
      <point x="541" y="310" type="line"/>
      <point x="446" y="310" type="line"/>
      <point x="292" y="630" type="line"/>
      <point x="134" y="310" type="line"/>
    </contour>
  </outline>
</glyph>
<glyph name="grave" format="1">
  <advance width="249"/>
  <unicode hex="0060"/>
  <outline>
    <contour>
      <point x="167" y="535" type="move" name="_top"/>
    </contour>
    <contour>
      <point x="48" y="748" type="line"/>
      <point x="156" y="748" type="line"/>
      <point x="214" y="635" type="line"/>
      <point x="142" y="612" type="line"/>
    </contour>
  </outline>
</glyph>
<glyph name="a" format="1">
  <advance width="578"/>
  <unicode hex="0061"/>
  <outline>
    <contour>
      <point x="275" y="536" type="move" name="top"/>
    </contour>
    <contour>
      <point x="498" y="5" type="move" name="bottom"/>
    </contour>
    <contour>
      <point x="210" y="-10" type="qcurve"/>
      <point x="171" y="-10"/>
      <point x="104" y="15"/>
      <point x="56" y="60"/>
      <point x="29" y="122"/>
      <point x="29" y="158" type="qcurve"/>
      <point x="29" y="196"/>
      <point x="61" y="257"/>
      <point x="122" y="302"/>
      <point x="205" y="327"/>
      <point x="255" y="327" type="qcurve"/>
      <point x="293" y="327"/>
      <point x="367" y="313"/>
      <point x="396" y="302" type="qcurve"/>
      <point x="396" y="339" type="line"/>
      <point x="396" y="398"/>
      <point x="329" y="465"/>
      <point x="265" y="465" type="qcurve"/>
      <point x="222" y="465"/>
      <point x="139" y="433"/>
      <point x="95" y="403" type="qcurve"/>
      <point x="60" y="475" type="line"/>
      <point x="164" y="545"/>
      <point x="275" y="545" type="qcurve"/>
      <point x="386" y="545"/>
      <point x="509" y="432"/>
      <point x="509" y="327" type="qcurve"/>
      <point x="509" y="133" type="line"/>
      <point x="509" y="97"/>
      <point x="539" y="96" type="qcurve"/>
      <point x="539" y="0" type="line"/>
      <point x="522" y="-3"/>
      <point x="499" y="-5"/>
      <point x="487" y="-5" type="qcurve"/>
      <point x="455" y="-5"/>
      <point x="419" y="28"/>
      <point x="415" y="53" type="qcurve"/>
      <point x="412" y="87" type="line"/>
      <point x="376" y="40"/>
      <point x="270" y="-10"/>
    </contour>
    <contour>
      <point x="241" y="73" type="qcurve"/>
      <point x="282" y="73"/>
      <point x="354" y="102"/>
      <point x="375" y="129" type="qcurve"/>
      <point x="396" y="147"/>
      <point x="396" y="168" type="qcurve"/>
      <point x="396" y="239" type="line"/>
      <point x="368" y="250"/>
      <point x="303" y="262"/>
      <point x="272" y="262" type="qcurve"/>
      <point x="212" y="262"/>
      <point x="135" y="210"/>
      <point x="135" y="167" type="qcurve"/>
      <point x="135" y="127"/>
      <point x="195" y="73"/>
    </contour>
  </outline>
</glyph>
<glyph name="d" format="1">
  <advance width="652"/>
  <unicode hex="0064"/>
  <outline>
    <contour>
      <point x="646" y="536" type="move" name="top"/>
    </contour>
    <contour>
      <point x="286" y="-10" type="qcurve"/>
      <point x="231" y="-10"/>
      <point x="139" y="34"/>
      <point x="72" y="110"/>
      <point x="34" y="211"/>
      <point x="34" y="269" type="qcurve"/>
      <point x="34" y="326"/>
      <point x="70" y="425"/>
      <point x="134" y="501"/>
      <point x="221" y="545"/>
      <point x="273" y="545" type="qcurve"/>
      <point x="338" y="545"/>
      <point x="436" y="482"/>
      <point x="464" y="434" type="qcurve"/>
      <point x="464" y="748" type="line"/>
      <point x="577" y="748" type="line"/>
      <point x="577" y="133" type="line"/>
      <point x="577" y="114"/>
      <point x="590" y="97"/>
      <point x="607" y="96" type="qcurve"/>
      <point x="607" y="0" type="line"/>
      <point x="590" y="-3"/>
      <point x="568" y="-5"/>
      <point x="561" y="-5" type="qcurve"/>
      <point x="527" y="-5"/>
      <point x="484" y="30"/>
      <point x="482" y="57" type="qcurve"/>
      <point x="480" y="97" type="line"/>
      <point x="451" y="47"/>
      <point x="348" y="-10"/>
    </contour>
    <contour>
      <point x="313" y="86" type="qcurve"/>
      <point x="338" y="86"/>
      <point x="387" y="102"/>
      <point x="428" y="131"/>
      <point x="458" y="170"/>
      <point x="464" y="193" type="qcurve"/>
      <point x="464" y="333" type="line"/>
      <point x="455" y="358"/>
      <point x="421" y="401"/>
      <point x="378" y="432"/>
      <point x="330" y="449"/>
      <point x="305" y="449" type="qcurve"/>
      <point x="271" y="449"/>
      <point x="215" y="418"/>
      <point x="174" y="367"/>
      <point x="151" y="301"/>
      <point x="151" y="266" type="qcurve"/>
      <point x="151" y="229"/>
      <point x="176" y="164"/>
      <point x="221" y="115"/>
      <point x="280" y="86"/>
    </contour>
  </outline>
</glyph>
<glyph name="f" format="1">
  <advance width="365"/>
  <unicode hex="0066"/>
  <outline>
    <contour>
      <point x="98" y="0" type="line"/>
      <point x="98" y="435" type="line"/>
      <point x="27" y="435" type="line"/>
      <point x="27" y="522" type="line"/>
      <point x="98" y="522" type="line"/>
      <point x="98" y="544" type="line"/>
      <point x="98" y="643"/>
      <point x="190" y="758"/>
      <point x="269" y="758" type="qcurve"/>
      <point x="302" y="758"/>
      <point x="366" y="740"/>
      <point x="394" y="725" type="qcurve"/>
      <point x="370" y="641" type="line"/>
      <point x="354" y="650"/>
      <point x="312" y="663"/>
      <point x="293" y="663" type="qcurve"/>
      <point x="253" y="663"/>
      <point x="211" y="603"/>
      <point x="211" y="547" type="qcurve"/>
      <point x="211" y="522" type="line"/>
      <point x="348" y="522" type="line"/>
      <point x="348" y="435" type="line"/>
      <point x="211" y="435" type="line"/>
      <point x="211" y="0" type="line"/>
    </contour>
  </outline>
</glyph>
<glyph name="g" format="1">
  <advance width="644"/>
  <unicode hex="0067"/>
  <outline>
    <contour>
      <point x="344" y="536" type="move" name="top"/>
    </contour>
    <contour>
      <point x="280" y="-5" type="qcurve"/>
      <point x="225" y="-5"/>
      <point x="135" y="39"/>
      <point x="71" y="115"/>
      <point x="35" y="213"/>
      <point x="35" y="267" type="qcurve"/>
      <point x="35" y="325"/>
      <point x="72" y="426"/>
      <point x="137" y="501"/>
      <point x="228" y="545"/>
      <point x="284" y="545" type="qcurve"/>
      <point x="348" y="545"/>
      <point x="445" y="483"/>
      <point x="477" y="434" type="qcurve"/>
      <point x="477" y="536" type="line"/>
      <point x="577" y="536" type="line"/>
      <point x="577" y="15" type="line"/>
      <point x="577" y="-43"/>
      <point x="534" y="-133"/>
      <point x="457" y="-196"/>
      <point x="352" y="-228"/>
      <point x="292" y="-228" type="qcurve"/>
      <point x="203" y="-228"/>
      <point x="85" y="-168"/>
      <point x="45" y="-114" type="qcurve"/>
      <point x="109" y="-54" type="line"/>
      <point x="139" y="-97"/>
      <point x="237" y="-142"/>
      <point x="292" y="-142" type="qcurve"/>
      <point x="327" y="-142"/>
      <point x="389" y="-124"/>
      <point x="436" y="-85"/>
      <point x="464" y="-26"/>
      <point x="464" y="15" type="qcurve"/>
      <point x="464" y="97" type="line"/>
      <point x="435" y="48"/>
      <point x="335" y="-5"/>
    </contour>
    <contour>
      <point x="316" y="86" type="qcurve"/>
      <point x="342" y="86"/>
      <point x="389" y="103"/>
      <point x="429" y="133"/>
      <point x="458" y="171"/>
      <point x="464" y="193" type="qcurve"/>
      <point x="464" y="333" type="line"/>
      <point x="454" y="358"/>
      <point x="421" y="400"/>
      <point x="379" y="431"/>
      <point x="332" y="449"/>
      <point x="308" y="449" type="qcurve"/>
      <point x="271" y="449"/>
      <point x="213" y="417"/>
      <point x="172" y="365"/>
      <point x="150" y="299"/>
      <point x="150" y="264" type="qcurve"/>
      <point x="150" y="227"/>
      <point x="175" y="163"/>
      <point x="220" y="115"/>
      <point x="281" y="86"/>
    </contour>
  </outline>
</glyph>
<glyph name="h" format="1">
  <advance width="611"/>
  <unicode hex="0068"/>
  <outline>
    <contour>
      <point x="353" y="535" type="move" name="top"/>
    </contour>
    <contour>
      <point x="548" y="0" type="line"/>
      <point x="435" y="0" type="line"/>
      <point x="435" y="300" type="line"/>
      <point x="435" y="374"/>
      <point x="383" y="444"/>
      <point x="334" y="444" type="qcurve"/>
      <point x="310" y="444"/>
      <point x="263" y="426"/>
      <point x="221" y="392"/>
      <point x="188" y="346"/>
      <point x="180" y="318" type="qcurve"/>
      <point x="180" y="0" type="line"/>
      <point x="68" y="0" type="line"/>
      <point x="68" y="748" type="line"/>
      <point x="180" y="748" type="line"/>
      <point x="180" y="428" type="line"/>
      <point x="211" y="483"/>
      <point x="316" y="545"/>
      <point x="379" y="545" type="qcurve"/>
      <point x="429" y="545"/>
      <point x="494" y="509"/>
      <point x="532" y="450"/>
      <point x="548" y="371"/>
      <point x="548" y="327" type="qcurve"/>
    </contour>
  </outline>
</glyph>
<glyph name="i" format="1">
  <advance width="248"/>
  <unicode hex="0069"/>
  <outline>
    <contour>
      <point x="68" y="0" type="line"/>
      <point x="68" y="536" type="line"/>
      <point x="180" y="536" type="line"/>
      <point x="180" y="0" type="line"/>
    </contour>
    <contour>
      <point x="68" y="624" type="line"/>
      <point x="68" y="748" type="line"/>
      <point x="180" y="748" type="line"/>
      <point x="180" y="624" type="line"/>
    </contour>
  </outline>
</glyph>
<glyph name="j" format="1">
  <advance width="254"/>
  <unicode hex="006A"/>
  <outline>
    <contour>
      <point x="11" y="-196" type="qcurve"/>
      <point x="-26" y="-196"/>
      <point x="-91" y="-173"/>
      <point x="-118" y="-150" type="qcurve"/>
      <point x="-68" y="-74" type="line"/>
      <point x="-54" y="-86"/>
      <point x="-19" y="-97"/>
      <point x="-2" y="-97" type="qcurve"/>
      <point x="28" y="-97"/>
      <point x="74" y="-53"/>
      <point x="74" y="-19" type="qcurve"/>
      <point x="74" y="536" type="line"/>
      <point x="186" y="536" type="line"/>
      <point x="186" y="-11" type="line"/>
      <point x="186" y="-52"/>
      <point x="159" y="-120"/>
      <point x="111" y="-169"/>
      <point x="47" y="-196"/>
    </contour>
    <contour>
      <point x="74" y="624" type="line"/>
      <point x="74" y="748" type="line"/>
      <point x="186" y="748" type="line"/>
      <point x="186" y="624" type="line"/>
    </contour>
  </outline>
</glyph>
<glyph name="k" format="1">
  <advance width="561"/>
  <unicode hex="006B"/>
  <outline>
    <contour>
      <point x="291" y="0" type="move" name="bottom"/>
    </contour>
    <contour>
      <point x="440" y="0" type="line"/>
      <point x="269" y="247" type="line"/>
      <point x="180" y="163" type="line"/>
      <point x="180" y="0" type="line"/>
      <point x="68" y="0" type="line"/>
      <point x="68" y="748" type="line"/>
      <point x="180" y="748" type="line"/>
      <point x="180" y="273" type="line"/>
      <point x="426" y="535" type="line"/>
      <point x="549" y="535" type="line"/>
      <point x="341" y="310" type="line"/>
      <point x="560" y="0" type="line"/>
    </contour>
  </outline>
</glyph>
<glyph name="o" format="1">
  <advance width="616"/>
  <unicode hex="006F"/>
  <outline>
    <contour>
      <point x="308" y="536" type="move" name="top"/>
    </contour>
    <contour>
      <point x="308" y="0" type="move" name="bottom"/>
    </contour>
    <contour>
      <point x="308" y="-10" type="qcurve"/>
      <point x="245" y="-10"/>
      <point x="143" y="35"/>
      <point x="72" y="111"/>
      <point x="33" y="212"/>
      <point x="33" y="267" type="qcurve"/>
      <point x="33" y="323"/>
      <point x="72" y="424"/>
      <point x="144" y="500"/>
      <point x="246" y="545"/>
      <point x="308" y="545" type="qcurve"/>
      <point x="371" y="545"/>
      <point x="472" y="500"/>
      <point x="545" y="424"/>
      <point x="584" y="323"/>
      <point x="584" y="267" type="qcurve"/>
      <point x="584" y="212"/>
      <point x="545" y="111"/>
      <point x="472" y="35"/>
      <point x="371" y="-10"/>
    </contour>
    <contour>
      <point x="148" y="266" type="qcurve"/>
      <point x="148" y="227"/>
      <point x="173" y="162"/>
      <point x="216" y="114"/>
      <point x="274" y="86"/>
      <point x="308" y="86" type="qcurve"/>
      <point x="342" y="86"/>
      <point x="400" y="114"/>
      <point x="443" y="163"/>
      <point x="468" y="228"/>
      <point x="468" y="267" type="qcurve"/>
      <point x="468" y="305"/>
      <point x="443" y="372"/>
      <point x="400" y="421"/>
      <point x="342" y="449"/>
      <point x="308" y="449" type="qcurve"/>
      <point x="275" y="449"/>
      <point x="217" y="420"/>
      <point x="174" y="371"/>
      <point x="148" y="304"/>
    </contour>
  </outline>
</glyph>
<glyph name="p" format="1">
  <advance width="643"/>
  <unicode hex="0070"/>
  <outline>
    <contour>
      <point x="372" y="-10" type="qcurve"/>
      <point x="307" y="-10"/>
      <point x="209" y="51"/>
      <point x="180" y="100" type="qcurve"/>
      <point x="180" y="-218" type="line"/>
      <point x="68" y="-218" type="line"/>
      <point x="68" y="536" type="line"/>
      <point x="167" y="536" type="line"/>
      <point x="167" y="439" type="line"/>
      <point x="198" y="487"/>
      <point x="295" y="545"/>
      <point x="356" y="545" type="qcurve"/>
      <point x="412" y="545"/>
      <point x="504" y="500"/>
      <point x="571" y="424"/>
      <point x="609" y="324"/>
      <point x="609" y="268" type="qcurve"/>
      <point x="609" y="210"/>
      <point x="574" y="109"/>
      <point x="511" y="34"/>
      <point x="424" y="-10"/>
    </contour>
    <contour>
      <point x="335" y="86" type="qcurve"/>
      <point x="371" y="86"/>
      <point x="429" y="117"/>
      <point x="471" y="168"/>
      <point x="494" y="233"/>
      <point x="494" y="268" type="qcurve"/>
      <point x="494" y="305"/>
      <point x="468" y="371"/>
      <point x="424" y="420"/>
      <point x="362" y="449"/>
      <point x="327" y="449" type="qcurve"/>
      <point x="305" y="449"/>
      <point x="258" y="432"/>
      <point x="217" y="403"/>
      <point x="186" y="366"/>
      <point x="180" y="343" type="qcurve"/>
      <point x="180" y="203" type="line"/>
      <point x="190" y="178"/>
      <point x="223" y="135"/>
      <point x="263" y="104"/>
      <point x="310" y="86"/>
    </contour>
  </outline>
</glyph>
<glyph name="q" format="1">
  <advance width="643"/>
  <unicode hex="0071"/>
  <outline>
    <contour>
      <point x="271" y="-10" type="qcurve"/>
      <point x="219" y="-10"/>
      <point x="132" y="35"/>
      <point x="70" y="111"/>
      <point x="35" y="212"/>
      <point x="35" y="268" type="qcurve"/>
      <point x="35" y="326"/>
      <point x="73" y="426"/>
      <point x="140" y="502"/>
      <point x="232" y="545"/>
      <point x="287" y="545" type="qcurve"/>
      <point x="348" y="545"/>
      <point x="446" y="485"/>
      <point x="476" y="438" type="qcurve"/>
      <point x="476" y="536" type="line"/>
      <point x="575" y="536" type="line"/>
      <point x="575" y="-80" type="line"/>
      <point x="575" y="-99"/>
      <point x="591" y="-115"/>
      <point x="608" y="-117" type="qcurve"/>
      <point x="608" y="-213" type="line"/>
      <point x="593" y="-215"/>
      <point x="561" y="-217"/>
      <point x="548" y="-217" type="qcurve"/>
      <point x="513" y="-217"/>
      <point x="463" y="-170"/>
      <point x="463" y="-135" type="qcurve"/>
      <point x="463" y="100" type="line"/>
      <point x="430" y="45"/>
      <point x="333" y="-10"/>
    </contour>
    <contour>
      <point x="312" y="86" type="qcurve"/>
      <point x="364" y="86"/>
      <point x="438" y="144"/>
      <point x="463" y="188" type="qcurve"/>
      <point x="463" y="330" type="line"/>
      <point x="458" y="354"/>
      <point x="427" y="397"/>
      <point x="385" y="429"/>
      <point x="336" y="449"/>
      <point x="312" y="449" type="qcurve"/>
      <point x="276" y="449"/>
      <point x="217" y="418"/>
      <point x="174" y="367"/>
      <point x="150" y="300"/>
      <point x="150" y="265" type="qcurve"/>
      <point x="150" y="228"/>
      <point x="174" y="163"/>
      <point x="217" y="115"/>
      <point x="276" y="86"/>
    </contour>
  </outline>
</glyph>
<glyph name="s" format="1">
  <advance width="508"/>
  <unicode hex="0073"/>
  <outline>
    <contour>
      <point x="253" y="536" type="move" name="top"/>
    </contour>
    <contour>
      <point x="262" y="0" type="move" name="bottom"/>
    </contour>
    <contour>
      <point x="262" y="-10" type="qcurve"/>
      <point x="198" y="-10"/>
      <point x="70" y="32"/>
      <point x="24" y="71" type="qcurve"/>
      <point x="69" y="142" type="line"/>
      <point x="117" y="108"/>
      <point x="211" y="72"/>
      <point x="260" y="72" type="qcurve"/>
      <point x="310" y="72"/>
      <point x="369" y="111"/>
      <point x="369" y="146" type="qcurve"/>
      <point x="369" y="180"/>
      <point x="303" y="211"/>
      <point x="233" y="229" type="qcurve"/>
      <point x="183" y="243"/>
      <point x="112" y="267"/>
      <point x="67" y="300"/>
      <point x="46" y="343"/>
      <point x="46" y="374" type="qcurve"/>
      <point x="46" y="415"/>
      <point x="78" y="478"/>
      <point x="134" y="522"/>
      <point x="210" y="545"/>
      <point x="254" y="545" type="qcurve"/>
      <point x="314" y="545"/>
      <point x="419" y="508"/>
      <point x="460" y="473" type="qcurve"/>
      <point x="412" y="406" type="line"/>
      <point x="337" y="465"/>
      <point x="253" y="465" type="qcurve"/>
      <point x="210" y="465"/>
      <point x="152" y="429"/>
      <point x="152" y="390" type="qcurve"/>
      <point x="152" y="374"/>
      <point x="164" y="351"/>
      <point x="191" y="335"/>
      <point x="236" y="322"/>
      <point x="268" y="313" type="qcurve"/>
      <point x="323" y="300"/>
      <point x="401" y="273"/>
      <point x="453" y="238"/>
      <point x="477" y="189"/>
      <point x="477" y="156" type="qcurve"/>
      <point x="477" y="79"/>
      <point x="361" y="-10"/>
    </contour>
  </outline>
</glyph>
<glyph name="t" format="1">
  <advance width="376"/>
  <unicode hex="0074"/>
  <outline>
    <contour>
      <point x="311" y="536" type="move" name="top"/>
    </contour>
    <contour>
      <point x="225" y="0" type="move" name="bottom"/>
    </contour>
    <contour>
      <point x="366" y="28" type="line"/>
      <point x="344" y="17"/>
      <point x="268" y="-8"/>
      <point x="225" y="-8" type="qcurve"/>
      <point x="199" y="-8"/>
      <point x="152" y="6"/>
      <point x="116" y="35"/>
      <point x="95" y="81"/>
      <point x="95" y="114" type="qcurve"/>
      <point x="95" y="449" type="line"/>
      <point x="25" y="449" type="line"/>
      <point x="25" y="536" type="line"/>
      <point x="95" y="536" type="line"/>
      <point x="95" y="712" type="line"/>
      <point x="208" y="712" type="line"/>
      <point x="208" y="536" type="line"/>
      <point x="325" y="536" type="line"/>
      <point x="325" y="449" type="line"/>
      <point x="208" y="449" type="line"/>
      <point x="208" y="150" type="line"/>
      <point x="210" y="121"/>
      <point x="242" y="95"/>
      <point x="265" y="95" type="qcurve"/>
      <point x="289" y="95"/>
      <point x="332" y="112"/>
      <point x="342" y="117" type="qcurve"/>
    </contour>
  </outline>
</glyph>
<glyph name="u" format="1">
  <advance width="624"/>
  <unicode hex="0075"/>
  <outline>
    <contour>
      <point x="304" y="536" type="move" name="top"/>
    </contour>
    <contour>
      <point x="527" y="5" type="move" name="bottom"/>
    </contour>
    <contour>
      <point x="232" y="-10" type="qcurve"/>
      <point x="148" y="-10"/>
      <point x="62" y="99"/>
      <point x="62" y="208" type="qcurve"/>
      <point x="62" y="536" type="line"/>
      <point x="175" y="536" type="line"/>
      <point x="175" y="230" type="line"/>
      <point x="175" y="86"/>
      <point x="278" y="86" type="qcurve"/>
      <point x="326" y="86"/>
      <point x="412" y="145"/>
      <point x="435" y="202" type="qcurve"/>
      <point x="435" y="536" type="line"/>
      <point x="548" y="536" type="line"/>
      <point x="548" y="133" type="line"/>
      <point x="548" y="114"/>
      <point x="561" y="97"/>
      <point x="579" y="96" type="qcurve"/>
      <point x="579" y="0" type="line"/>
      <point x="561" y="-3"/>
      <point x="539" y="-5"/>
      <point x="528" y="-5" type="qcurve"/>
      <point x="498" y="-5"/>
      <point x="455" y="29"/>
      <point x="454" y="55" type="qcurve"/>
      <point x="452" y="109" type="line"/>
      <point x="416" y="50"/>
      <point x="301" y="-10"/>
    </contour>
  </outline>
</glyph>
<glyph name="v" format="1">
  <advance width="556"/>
  <unicode hex="0076"/>
  <outline>
    <contour>
      <point x="218" y="0" type="line"/>
      <point x="13" y="536" type="line"/>
      <point x="129" y="536" type="line"/>
      <point x="283" y="95" type="line"/>
      <point x="437" y="536" type="line"/>
      <point x="544" y="536" type="line"/>
      <point x="339" y="0" type="line"/>
    </contour>
  </outline>
</glyph>
<glyph name="w" format="1">
  <advance width="850"/>
  <unicode hex="0077"/>
  <outline>
    <contour>
      <point x="425" y="536" type="move" name="top"/>
    </contour>
    <contour>
      <point x="735" y="536" type="line"/>
      <point x="843" y="536" type="line"/>
      <point x="617" y="0" type="line"/>
      <point x="524" y="0" type="line"/>
      <point x="425" y="249" type="line"/>
      <point x="326" y="0" type="line"/>
      <point x="232" y="0" type="line"/>
      <point x="6" y="536" type="line"/>
      <point x="114" y="536" type="line"/>
      <point x="287" y="109" type="line"/>
      <point x="365" y="307" type="line"/>
      <point x="271" y="535" type="line"/>
      <point x="364" y="535" type="line"/>
      <point x="425" y="367" type="line"/>
      <point x="485" y="535" type="line"/>
      <point x="578" y="535" type="line"/>
      <point x="485" y="307" type="line"/>
      <point x="563" y="109" type="line"/>
    </contour>
  </outline>
</glyph>
<glyph name="y" format="1">
  <advance width="560"/>
  <unicode hex="0079"/>
  <outline>
    <contour>
      <point x="291" y="536" type="move" name="top"/>
    </contour>
    <contour>
      <point x="86" y="-126" type="line"/>
      <point x="101" y="-129"/>
      <point x="131" y="-133"/>
      <point x="140" y="-133" type="qcurve"/>
      <point x="154" y="-133"/>
      <point x="173" y="-122"/>
      <point x="194" y="-93"/>
      <point x="215" y="-41"/>
      <point x="229" y="0" type="qcurve"/>
      <point x="9" y="536" type="line"/>
      <point x="125" y="536" type="line"/>
      <point x="291" y="99" type="line"/>
      <point x="438" y="536" type="line"/>
      <point x="545" y="536" type="line"/>
      <point x="302" y="-124" type="line"/>
      <point x="286" y="-170"/>
      <point x="205" y="-232"/>
      <point x="141" y="-232" type="qcurve"/>
      <point x="129" y="-232"/>
      <point x="102" y="-229"/>
      <point x="86" y="-224" type="qcurve"/>
    </contour>
  </outline>
</glyph>
<glyph name="braceleft" format="1">
  <advance width="300"/>
  <unicode hex="007B"/>
  <outline>
    <contour>
      <point x="195" y="667" type="line"/>
      <point x="195" y="437" type="line"/>
      <point x="195" y="420"/>
      <point x="178" y="383"/>
      <point x="162" y="369" type="qcurve"/>
      <point x="177" y="354"/>
      <point x="195" y="317"/>
      <point x="195" y="300" type="qcurve"/>
      <point x="195" y="59" type="line"/>
      <point x="251" y="59" type="line"/>
      <point x="251" y="-32" type="line"/>
      <point x="116" y="-32" type="line"/>
      <point x="109" y="-32"/>
      <point x="92" y="-18"/>
      <point x="92" y="-1" type="qcurve"/>
      <point x="92" y="265" type="line"/>
      <point x="92" y="290"/>
      <point x="66" y="326"/>
      <point x="45" y="330" type="qcurve"/>
      <point x="45" y="410" type="line"/>
      <point x="55" y="410"/>
      <point x="73" y="422"/>
      <point x="85" y="441"/>
      <point x="92" y="463"/>
      <point x="92" y="472" type="qcurve"/>
      <point x="92" y="727" type="line"/>
      <point x="92" y="746"/>
      <point x="111" y="758"/>
      <point x="116" y="758" type="qcurve"/>
      <point x="251" y="758" type="line"/>
      <point x="251" y="667" type="line"/>
    </contour>
  </outline>
</glyph>
<glyph name="braceright" format="1">
  <advance width="300"/>
  <unicode hex="007D"/>
  <outline>
    <contour>
      <point x="50" y="667" type="line"/>
      <point x="50" y="758" type="line"/>
      <point x="184" y="758" type="line"/>
      <point x="189" y="758"/>
      <point x="208" y="746"/>
      <point x="208" y="727" type="qcurve"/>
      <point x="208" y="472" type="line"/>
      <point x="208" y="463"/>
      <point x="214" y="441"/>
      <point x="226" y="422"/>
      <point x="244" y="410"/>
      <point x="255" y="410" type="qcurve"/>
      <point x="255" y="330" type="line"/>
      <point x="234" y="326"/>
      <point x="208" y="290"/>
      <point x="208" y="265" type="qcurve"/>
      <point x="208" y="-1" type="line"/>
      <point x="208" y="-18"/>
      <point x="191" y="-32"/>
      <point x="184" y="-32" type="qcurve"/>
      <point x="50" y="-32" type="line"/>
      <point x="50" y="59" type="line"/>
      <point x="106" y="59" type="line"/>
      <point x="106" y="300" type="line"/>
      <point x="106" y="317"/>
      <point x="122" y="354"/>
      <point x="138" y="369" type="qcurve"/>
      <point x="122" y="383"/>
      <point x="106" y="420"/>
      <point x="106" y="437" type="qcurve"/>
      <point x="106" y="667" type="line"/>
    </contour>
  </outline>
</glyph>
<glyph name="cent" format="1">
  <advance width="594"/>
  <unicode hex="00A2"/>
  <outline>
    <contour>
      <point x="283" y="-123" type="line"/>
      <point x="283" y="-9" type="line"/>
      <point x="229" y="-5"/>
      <point x="141" y="45"/>
      <point x="78" y="121"/>
      <point x="42" y="215"/>
      <point x="42" y="264" type="qcurve"/>
      <point x="42" y="316"/>
      <point x="75" y="411"/>
      <point x="136" y="486"/>
      <point x="225" y="537"/>
      <point x="283" y="544" type="qcurve"/>
      <point x="283" y="660" type="line"/>
      <point x="336" y="660" type="line"/>
      <point x="336" y="544" type="line"/>
      <point x="410" y="542"/>
      <point x="520" y="473"/>
      <point x="552" y="412" type="qcurve"/>
      <point x="443" y="377" type="line"/>
      <point x="425" y="409"/>
      <point x="369" y="442"/>
      <point x="336" y="444" type="qcurve"/>
      <point x="336" y="89" type="line"/>
      <point x="351" y="91"/>
      <point x="386" y="102"/>
      <point x="418" y="121"/>
      <point x="441" y="145"/>
      <point x="446" y="160" type="qcurve"/>
      <point x="556" y="127" type="line"/>
      <point x="542" y="93"/>
      <point x="489" y="41"/>
      <point x="427" y="7"/>
      <point x="362" y="-10"/>
      <point x="336" y="-10" type="qcurve"/>
      <point x="336" y="-123" type="line"/>
    </contour>
    <contour>
      <point x="158" y="264" type="qcurve"/>
      <point x="158" y="234"/>
      <point x="176" y="178"/>
      <point x="209" y="133"/>
      <point x="255" y="100"/>
      <point x="283" y="94" type="qcurve"/>
      <point x="283" y="440" type="line"/>
      <point x="253" y="435"/>
      <point x="207" y="402"/>
      <point x="174" y="354"/>
      <point x="158" y="295"/>
    </contour>
  </outline>
</glyph>
<glyph name="sterling" format="1">
  <advance width="541"/>
  <unicode hex="00A3"/>
  <outline>
    <contour>
      <point x="56" y="387" type="line"/>
      <point x="138" y="387" type="line"/>
      <point x="118" y="428"/>
      <point x="78" y="508"/>
      <point x="78" y="553" type="qcurve"/>
      <point x="78" y="590"/>
      <point x="110" y="655"/>
      <point x="165" y="705"/>
      <point x="239" y="732"/>
      <point x="281" y="732" type="qcurve"/>
      <point x="340" y="732"/>
      <point x="446" y="675"/>
      <point x="482" y="625" type="qcurve"/>
      <point x="422" y="555" type="line"/>
      <point x="397" y="594"/>
      <point x="317" y="640"/>
      <point x="279" y="640" type="qcurve"/>
      <point x="236" y="640"/>
      <point x="180" y="585"/>
      <point x="180" y="543" type="qcurve"/>
      <point x="180" y="523"/>
      <point x="193" y="485"/>
      <point x="211" y="447"/>
      <point x="232" y="409"/>
      <point x="242" y="387" type="qcurve"/>
      <point x="428" y="387" type="line"/>
      <point x="428" y="301" type="line"/>
      <point x="265" y="301" type="line"/>
      <point x="266" y="295"/>
      <point x="267" y="284"/>
      <point x="267" y="278" type="qcurve"/>
      <point x="267" y="229"/>
      <point x="224" y="142"/>
      <point x="173" y="88" type="qcurve"/>
      <point x="194" y="93"/>
      <point x="231" y="99"/>
      <point x="250" y="99" type="qcurve"/>
      <point x="289" y="99"/>
      <point x="355" y="81"/>
      <point x="391" y="81" type="qcurve"/>
      <point x="411" y="81"/>
      <point x="449" y="90"/>
      <point x="473" y="98" type="qcurve"/>
      <point x="501" y="14" type="line"/>
      <point x="475" y="0"/>
      <point x="415" y="-15"/>
      <point x="385" y="-15" type="qcurve"/>
      <point x="361" y="-15"/>
      <point x="317" y="-7"/>
      <point x="272" y="4"/>
      <point x="227" y="12"/>
      <point x="203" y="12" type="qcurve"/>
      <point x="176" y="12"/>
      <point x="110" y="1"/>
      <point x="80" y="-8" type="qcurve"/>
      <point x="53" y="73" type="line"/>
      <point x="115" y="127"/>
      <point x="169" y="223"/>
      <point x="169" y="272" type="qcurve"/>
      <point x="169" y="280"/>
      <point x="168" y="294"/>
      <point x="167" y="301" type="qcurve"/>
      <point x="56" y="301" type="line"/>
    </contour>
  </outline>
</glyph>
<glyph name="yen" format="1">
  <advance width="716"/>
  <unicode hex="00A5"/>
  <outline>
    <contour>
      <point x="489" y="398" type="line"/>
      <point x="568" y="398" type="line"/>
      <point x="568" y="324" type="line"/>
      <point x="450" y="324" type="line"/>
      <point x="414" y="260" type="line"/>
      <point x="414" y="230" type="line"/>
      <point x="569" y="230" type="line"/>
      <point x="569" y="156" type="line"/>
      <point x="414" y="156" type="line"/>
      <point x="414" y="0" type="line"/>
      <point x="298" y="0" type="line"/>
      <point x="298" y="156" type="line"/>
      <point x="144" y="156" type="line"/>
      <point x="144" y="230" type="line"/>
      <point x="298" y="230" type="line"/>
      <point x="298" y="262" type="line"/>
      <point x="264" y="324" type="line"/>
      <point x="144" y="324" type="line"/>
      <point x="144" y="398" type="line"/>
      <point x="225" y="398" type="line"/>
      <point x="30" y="727" type="line"/>
      <point x="156" y="727" type="line"/>
      <point x="356" y="362" type="line"/>
      <point x="559" y="727" type="line"/>
      <point x="685" y="727" type="line"/>
    </contour>
  </outline>
</glyph>
<glyph name="brokenbar" format="1">
  <advance width="264"/>
  <unicode hex="00A6"/>
  <outline>
    <contour>
      <point x="180" y="275" type="line"/>
      <point x="180" y="-133" type="line"/>
      <point x="84" y="-133" type="line"/>
      <point x="84" y="275" type="line"/>
    </contour>
    <contour>
      <point x="180" y="794" type="line"/>
      <point x="180" y="385" type="line"/>
      <point x="84" y="385" type="line"/>
      <point x="84" y="794" type="line"/>
    </contour>
  </outline>
</glyph>
<glyph name="copyright" format="1">
  <advance width="858"/>
  <unicode hex="00A9"/>
  <outline>
    <contour>
      <point x="427" y="-7" type="qcurve"/>
      <point x="345" y="-7"/>
      <point x="205" y="49"/>
      <point x="103" y="148"/>
      <point x="46" y="284"/>
      <point x="46" y="364" type="qcurve"/>
      <point x="46" y="442"/>
      <point x="103" y="578"/>
      <point x="205" y="676"/>
      <point x="345" y="732"/>
      <point x="427" y="732" type="qcurve"/>
      <point x="510" y="732"/>
      <point x="651" y="676"/>
      <point x="755" y="578"/>
      <point x="813" y="442"/>
      <point x="813" y="364" type="qcurve"/>
      <point x="813" y="284"/>
      <point x="755" y="148"/>
      <point x="651" y="49"/>
      <point x="510" y="-7"/>
    </contour>
    <contour>
      <point x="427" y="38" type="qcurve"/>
      <point x="498" y="38"/>
      <point x="622" y="85"/>
      <point x="712" y="171"/>
      <point x="764" y="290"/>
      <point x="764" y="361" type="qcurve"/>
      <point x="764" y="431"/>
      <point x="713" y="550"/>
      <point x="623" y="638"/>
      <point x="500" y="687"/>
      <point x="427" y="687" type="qcurve"/>
      <point x="355" y="687"/>
      <point x="233" y="638"/>
      <point x="144" y="550"/>
      <point x="94" y="431"/>
      <point x="94" y="362" type="qcurve"/>
      <point x="94" y="294"/>
      <point x="144" y="175"/>
      <point x="233" y="88"/>
      <point x="355" y="38"/>
    </contour>
    <contour>
      <point x="435" y="122" type="qcurve"/>
      <point x="382" y="122"/>
      <point x="290" y="158"/>
      <point x="222" y="222"/>
      <point x="184" y="311"/>
      <point x="184" y="364" type="qcurve"/>
      <point x="184" y="409"/>
      <point x="215" y="496"/>
      <point x="276" y="564"/>
      <point x="370" y="606"/>
      <point x="431" y="606" type="qcurve"/>
      <point x="508" y="606"/>
      <point x="621" y="540"/>
      <point x="647" y="481" type="qcurve"/>
      <point x="539" y="446" type="line"/>
      <point x="529" y="465"/>
      <point x="504" y="489"/>
      <point x="475" y="503"/>
      <point x="444" y="509"/>
      <point x="431" y="509" type="qcurve"/>
      <point x="399" y="509"/>
      <point x="350" y="484"/>
      <point x="316" y="444"/>
      <point x="299" y="391"/>
      <point x="299" y="364" type="qcurve"/>
      <point x="299" y="329"/>
      <point x="323" y="274"/>
      <point x="361" y="238"/>
      <point x="410" y="218"/>
      <point x="433" y="218" type="qcurve"/>
      <point x="465" y="218"/>
      <point x="528" y="252"/>
      <point x="543" y="283" type="qcurve"/>
      <point x="652" y="250" type="line"/>
      <point x="642" y="226"/>
      <point x="603" y="180"/>
      <point x="548" y="144"/>
      <point x="477" y="122"/>
    </contour>
  </outline>
</glyph>
<glyph name="registered" format="1">
  <advance width="858"/>
  <unicode hex="00AE"/>
  <outline>
    <contour>
      <point x="428" y="-7" type="qcurve"/>
      <point x="345" y="-7"/>
      <point x="206" y="49"/>
      <point x="103" y="148"/>
      <point x="46" y="284"/>
      <point x="46" y="364" type="qcurve"/>
      <point x="46" y="442"/>
      <point x="103" y="578"/>
      <point x="206" y="676"/>
      <point x="345" y="732"/>
      <point x="428" y="732" type="qcurve"/>
      <point x="511" y="732"/>
      <point x="651" y="676"/>
      <point x="755" y="578"/>
      <point x="813" y="442"/>
      <point x="813" y="364" type="qcurve"/>
      <point x="813" y="284"/>
      <point x="755" y="148"/>
      <point x="651" y="49"/>
      <point x="511" y="-7"/>
    </contour>
    <contour>
      <point x="428" y="37" type="qcurve"/>
      <point x="499" y="37"/>
      <point x="621" y="84"/>
      <point x="712" y="170"/>
      <point x="763" y="290"/>
      <point x="763" y="362" type="qcurve"/>
      <point x="763" y="431"/>
      <point x="713" y="550"/>
      <point x="623" y="637"/>
      <point x="500" y="687"/>
      <point x="428" y="687" type="qcurve"/>
      <point x="355" y="687"/>
      <point x="234" y="637"/>
      <point x="145" y="550"/>
      <point x="96" y="432"/>
      <point x="96" y="364" type="qcurve"/>
      <point x="96" y="294"/>
      <point x="145" y="175"/>
      <point x="234" y="87"/>
      <point x="355" y="37"/>
    </contour>
    <contour>
      <point x="266" y="591" type="line"/>
      <point x="464" y="591" type="line"/>
      <point x="495" y="591"/>
      <point x="547" y="565"/>
      <point x="584" y="523"/>
      <point x="605" y="470"/>
      <point x="605" y="442" type="qcurve"/>
      <point x="605" y="396"/>
      <point x="555" y="323"/>
      <point x="514" y="309" type="qcurve"/>
      <point x="624" y="136" type="line"/>
      <point x="532" y="136" type="line"/>
      <point x="432" y="295" type="line"/>
      <point x="347" y="295" type="line"/>
      <point x="347" y="136" type="line"/>
      <point x="266" y="136" type="line"/>
    </contour>
    <contour>
      <point x="459" y="366" type="line"/>
      <point x="490" y="366"/>
      <point x="525" y="408"/>
      <point x="525" y="442" type="qcurve"/>
      <point x="525" y="478"/>
      <point x="485" y="518"/>
      <point x="456" y="518" type="qcurve"/>
      <point x="347" y="518" type="line"/>
      <point x="347" y="366" type="line"/>
    </contour>
  </outline>
</glyph>
<glyph name="paragraph" format="1">
  <advance width="652"/>
  <unicode hex="00B6"/>
  <outline>
    <contour>
      <point x="36" y="472" type="qcurve"/>
      <point x="36" y="593"/>
      <point x="187" y="727"/>
      <point x="325" y="727" type="qcurve"/>
      <point x="606" y="727" type="line"/>
      <point x="606" y="641" type="line"/>
      <point x="535" y="641" type="line"/>
      <point x="535" y="-82" type="line"/>
      <point x="438" y="-82" type="line"/>
      <point x="438" y="221" type="line"/>
      <point x="378" y="221" type="line"/>
      <point x="378" y="-82" type="line"/>
      <point x="281" y="-82" type="line"/>
      <point x="281" y="221" type="line"/>
      <point x="225" y="222"/>
      <point x="134" y="258"/>
      <point x="71" y="324"/>
      <point x="36" y="415"/>
    </contour>
    <contour>
      <point x="130" y="474" type="qcurve"/>
      <point x="130" y="434"/>
      <point x="154" y="374"/>
      <point x="196" y="333"/>
      <point x="250" y="309"/>
      <point x="281" y="307" type="qcurve"/>
      <point x="281" y="641" type="line"/>
      <point x="208" y="639"/>
      <point x="130" y="549"/>
    </contour>
    <contour>
      <point x="438" y="641" type="line"/>
      <point x="378" y="641" type="line"/>
      <point x="378" y="307" type="line"/>
      <point x="438" y="307" type="line"/>
    </contour>
  </outline>
</glyph>
<glyph name="periodcentered" format="1">
  <advance width="218"/>
  <unicode hex="00B7"/>
  <outline>
    <contour>
      <point x="62" y="249" type="line"/>
      <point x="62" y="389" type="line"/>
      <point x="156" y="389" type="line"/>
      <point x="156" y="249" type="line"/>
    </contour>
  </outline>
</glyph>
<glyph name="ordmasculine" format="1">
  <advance width="457"/>
  <unicode hex="00BA"/>
  <outline>
    <contour>
      <point x="291" y="531" type="move" name="top"/>
    </contour>
    <contour>
      <point x="290" y="0" type="move" name="bottom"/>
    </contour>
    <contour>
      <point x="228" y="350" type="qcurve"/>
      <point x="185" y="350"/>
      <point x="116" y="381"/>
      <point x="67" y="433"/>
      <point x="40" y="501"/>
      <point x="40" y="539" type="qcurve"/>
      <point x="40" y="578"/>
      <point x="67" y="646"/>
      <point x="116" y="698"/>
      <point x="185" y="729"/>
      <point x="228" y="729" type="qcurve"/>
      <point x="271" y="729"/>
      <point x="341" y="698"/>
      <point x="390" y="646"/>
      <point x="417" y="578"/>
      <point x="417" y="539" type="qcurve"/>
      <point x="417" y="501"/>
      <point x="390" y="433"/>
      <point x="341" y="381"/>
      <point x="271" y="350"/>
    </contour>
    <contour>
      <point x="127" y="539" type="qcurve"/>
      <point x="127" y="514"/>
      <point x="142" y="472"/>
      <point x="170" y="441"/>
      <point x="207" y="424"/>
      <point x="228" y="424" type="qcurve"/>
      <point x="250" y="424"/>
      <point x="287" y="441"/>
      <point x="314" y="472"/>
      <point x="330" y="515"/>
      <point x="330" y="540" type="qcurve"/>
      <point x="330" y="564"/>
      <point x="314" y="606"/>
      <point x="287" y="637"/>
      <point x="250" y="654"/>
      <point x="228" y="654" type="qcurve"/>
      <point x="207" y="654"/>
      <point x="170" y="637"/>
      <point x="142" y="606"/>
      <point x="127" y="563"/>
    </contour>
  </outline>
</glyph>
<glyph name="guillemotright" format="1">
  <advance width="636"/>
  <unicode hex="00BB"/>
  <outline>
    <contour>
      <point x="597" y="234" type="line"/>
      <point x="333" y="55" type="line"/>
      <point x="333" y="147" type="line"/>
      <point x="508" y="265" type="line"/>
      <point x="333" y="387" type="line"/>
      <point x="333" y="480" type="line"/>
      <point x="597" y="291" type="line"/>
    </contour>
    <contour>
      <point x="326" y="234" type="line"/>
      <point x="61" y="55" type="line"/>
      <point x="61" y="147" type="line"/>
      <point x="236" y="265" type="line"/>
      <point x="61" y="387" type="line"/>
      <point x="61" y="480" type="line"/>
      <point x="326" y="291" type="line"/>
    </contour>
  </outline>
</glyph>
<glyph name="multiply" format="1">
  <advance width="585"/>
  <unicode hex="00D7"/>
  <outline>
    <contour>
      <point x="292" y="412" type="line"/>
      <point x="467" y="588" type="line"/>
      <point x="518" y="535" type="line"/>
      <point x="344" y="361" type="line"/>
      <point x="517" y="187" type="line"/>
      <point x="466" y="135" type="line"/>
      <point x="291" y="308" type="line"/>
      <point x="120" y="135" type="line"/>
      <point x="66" y="187" type="line"/>
      <point x="239" y="361" type="line"/>
      <point x="65" y="534" type="line"/>
      <point x="119" y="588" type="line"/>
    </contour>
  </outline>
</glyph>
<glyph name="divide" format="1">
  <advance width="585"/>
  <unicode hex="00F7"/>
  <outline>
    <contour>
      <point x="292" y="597" type="curve" smooth="yes"/>
      <point x="328" y="597"/>
      <point x="348" y="575"/>
      <point x="348" y="535" type="curve" smooth="yes"/>
      <point x="348" y="495"/>
      <point x="326" y="473"/>
      <point x="292" y="473" type="curve" smooth="yes"/>
      <point x="258" y="473"/>
      <point x="234" y="493"/>
      <point x="234" y="535" type="curve" smooth="yes"/>
      <point x="234" y="575"/>
      <point x="254" y="597"/>
    </contour>
    <contour>
      <point x="51" y="324" type="line"/>
      <point x="51" y="397" type="line"/>
      <point x="533" y="397" type="line"/>
      <point x="533" y="324" type="line"/>
    </contour>
    <contour>
      <point x="292" y="248" type="curve" smooth="yes"/>
      <point x="328" y="248"/>
      <point x="348" y="226"/>
      <point x="348" y="186" type="curve" smooth="yes"/>
      <point x="348" y="146"/>
      <point x="326" y="124"/>
      <point x="292" y="124" type="curve" smooth="yes"/>
      <point x="258" y="124"/>
      <point x="234" y="144"/>
      <point x="234" y="186" type="curve" smooth="yes"/>
      <point x="234" y="226"/>
      <point x="254" y="248"/>
    </contour>
  </outline>
</glyph>
<glyph name="dotlessj" format="1">
  <advance width="248"/>
  <unicode hex="0237"/>
  <outline>
    <contour>
      <point x="124" y="536" type="move" name="top"/>
    </contour>
    <contour>
      <point x="5" y="-196" type="qcurve"/>
      <point x="-32" y="-196"/>
      <point x="-98" y="-173"/>
      <point x="-125" y="-150" type="qcurve"/>
      <point x="-75" y="-74" type="line"/>
      <point x="-60" y="-86"/>
      <point x="-26" y="-97"/>
      <point x="-8" y="-97" type="qcurve"/>
      <point x="22" y="-97"/>
      <point x="68" y="-53"/>
      <point x="68" y="-19" type="qcurve"/>
      <point x="68" y="536" type="line"/>
      <point x="180" y="536" type="line"/>
      <point x="180" y="-11" type="line"/>
      <point x="180" y="-52"/>
      <point x="152" y="-120"/>
      <point x="104" y="-169"/>
      <point x="40" y="-196"/>
    </contour>
  </outline>
</glyph>
<glyph name="apostrophe" format="1">
  <advance width="551"/>
  <unicode hex="02BC"/>
  <outline>
    <contour>
      <point x="251" y="536" type="move" name="_top"/>
    </contour>
    <contour>
      <point x="274" y="612" type="line"/>
      <point x="203" y="635" type="line"/>
      <point x="239" y="705" type="line"/>
      <point x="234" y="748" type="line"/>
      <point x="368" y="748" type="line"/>
    </contour>
  </outline>
</glyph>
<glyph name="breve" format="1">
  <advance width="319"/>
  <unicode hex="02D8"/>
  <outline>
    <contour>
      <point x="160" y="536" type="move" name="_top"/>
    </contour>
    <contour>
      <point x="160" y="675" type="qcurve"/>
      <point x="182" y="675"/>
      <point x="216" y="716"/>
      <point x="219" y="748" type="qcurve"/>
      <point x="282" y="748" type="line"/>
      <point x="282" y="721"/>
      <point x="263" y="675"/>
      <point x="230" y="641"/>
      <point x="185" y="623"/>
      <point x="160" y="623" type="qcurve"/>
      <point x="133" y="623"/>
      <point x="89" y="641"/>
      <point x="56" y="675"/>
      <point x="38" y="721"/>
      <point x="38" y="748" type="qcurve"/>
      <point x="100" y="748" type="line"/>
      <point x="100" y="718"/>
      <point x="136" y="675"/>
    </contour>
  </outline>
</glyph>
<glyph name="tilde" format="1">
  <advance width="436"/>
  <unicode hex="02DC"/>
  <outline>
    <contour>
      <point x="219" y="536" type="move" name="_top"/>
    </contour>
    <contour>
      <point x="284" y="630" type="qcurve"/>
      <point x="260" y="630"/>
      <point x="225" y="643"/>
      <point x="196" y="660"/>
      <point x="167" y="674"/>
      <point x="151" y="674" type="qcurve"/>
      <point x="133" y="674"/>
      <point x="114" y="659"/>
      <point x="103" y="642"/>
      <point x="100" y="626"/>
      <point x="100" y="625" type="qcurve"/>
      <point x="37" y="625" type="line"/>
      <point x="37" y="633"/>
      <point x="47" y="672"/>
      <point x="73" y="712"/>
      <point x="115" y="742"/>
      <point x="146" y="742" type="qcurve"/>
      <point x="169" y="742"/>
      <point x="203" y="728"/>
      <point x="232" y="712"/>
      <point x="262" y="697"/>
      <point x="281" y="697" type="qcurve"/>
      <point x="299" y="697"/>
      <point x="322" y="712"/>
      <point x="333" y="730"/>
      <point x="336" y="745"/>
      <point x="336" y="748" type="qcurve"/>
      <point x="400" y="748" type="line"/>
      <point x="400" y="741"/>
      <point x="389" y="702"/>
      <point x="362" y="662"/>
      <point x="317" y="630"/>
    </contour>
  </outline>
</glyph>
<glyph name="hungarumlaut" format="1">
  <advance width="359"/>
  <unicode hex="02DD"/>
  <outline>
    <contour>
      <point x="159" y="535" type="move" name="_top"/>
    </contour>
    <contour>
      <point x="94" y="612" type="line"/>
      <point x="38" y="635" type="line"/>
      <point x="90" y="748" type="line"/>
      <point x="181" y="748" type="line"/>
    </contour>
    <contour>
      <point x="246" y="612" type="line"/>
      <point x="188" y="635" type="line"/>
      <point x="241" y="748" type="line"/>
      <point x="333" y="748" type="line"/>
    </contour>
  </outline>
</glyph>
<glyph name="uni0311" format="1">
  <advance width="319"/>
  <unicode hex="0311"/>
  <outline>
    <contour>
      <point x="160" y="536" type="move" name="_top"/>
    </contour>
    <contour>
      <point x="160" y="695" type="qcurve"/>
      <point x="136" y="695"/>
      <point x="100" y="652"/>
      <point x="100" y="623" type="qcurve"/>
      <point x="38" y="623" type="line"/>
      <point x="38" y="649"/>
      <point x="56" y="695"/>
      <point x="89" y="729"/>
      <point x="133" y="748"/>
      <point x="160" y="748" type="qcurve"/>
      <point x="185" y="748"/>
      <point x="230" y="729"/>
      <point x="263" y="695"/>
      <point x="282" y="649"/>
      <point x="282" y="623" type="qcurve"/>
      <point x="219" y="623" type="line"/>
      <point x="216" y="654"/>
      <point x="182" y="695"/>
    </contour>
  </outline>
</glyph>
<glyph name="uni0964" format="1">
  <advance width="294"/>
  <unicode hex="0964"/>
  <outline>
    <contour>
      <point x="109" y="627" type="line"/>
      <point x="183" y="627" type="line"/>
      <point x="183" y="0" type="line"/>
      <point x="109" y="0" type="line"/>
    </contour>
  </outline>
</glyph>
<glyph name="u0B83" format="1">
  <advance width="803"/>
  <unicode hex="0B83"/>
  <outline>
    <contour>
      <point x="279" y="676" type="qcurve"/>
      <point x="279" y="726"/>
      <point x="352" y="799"/>
      <point x="402" y="799" type="qcurve"/>
      <point x="452" y="799"/>
      <point x="525" y="727"/>
      <point x="525" y="676" type="qcurve"/>
      <point x="525" y="626"/>
      <point x="452" y="553"/>
      <point x="402" y="553" type="qcurve"/>
      <point x="352" y="553"/>
      <point x="279" y="626"/>
    </contour>
    <contour>
      <point x="328" y="676" type="qcurve"/>
      <point x="328" y="645"/>
      <point x="371" y="602"/>
      <point x="402" y="602" type="qcurve"/>
      <point x="433" y="602"/>
      <point x="476" y="645"/>
      <point x="476" y="676" type="qcurve"/>
      <point x="476" y="707"/>
      <point x="433" y="750"/>
      <point x="402" y="750" type="qcurve"/>
      <point x="371" y="750"/>
      <point x="328" y="707"/>
    </contour>
    <contour>
      <point x="33" y="111" type="qcurve"/>
      <point x="33" y="161"/>
      <point x="106" y="234"/>
      <point x="156" y="234" type="qcurve"/>
      <point x="206" y="234"/>
      <point x="279" y="161"/>
      <point x="279" y="111" type="qcurve"/>
      <point x="279" y="61"/>
      <point x="207" y="-12"/>
      <point x="156" y="-12" type="qcurve"/>
      <point x="106" y="-12"/>
      <point x="33" y="60"/>
    </contour>
    <contour>
      <point x="82" y="111" type="qcurve"/>
      <point x="82" y="80"/>
      <point x="125" y="37"/>
      <point x="156" y="37" type="qcurve"/>
      <point x="187" y="37"/>
      <point x="230" y="80"/>
      <point x="230" y="111" type="qcurve"/>
      <point x="230" y="142"/>
      <point x="187" y="184"/>
      <point x="156" y="184" type="qcurve"/>
      <point x="125" y="184"/>
      <point x="82" y="141"/>
    </contour>
    <contour>
      <point x="525" y="111" type="qcurve"/>
      <point x="525" y="161"/>
      <point x="597" y="234"/>
      <point x="648" y="234" type="qcurve"/>
      <point x="698" y="234"/>
      <point x="771" y="161"/>
      <point x="771" y="111" type="qcurve"/>
      <point x="771" y="61"/>
      <point x="698" y="-12"/>
      <point x="648" y="-12" type="qcurve"/>
      <point x="598" y="-12"/>
      <point x="525" y="60"/>
    </contour>
    <contour>
      <point x="574" y="111" type="qcurve"/>
      <point x="574" y="80"/>
      <point x="617" y="37"/>
      <point x="648" y="37" type="qcurve"/>
      <point x="679" y="37"/>
      <point x="722" y="80"/>
      <point x="722" y="111" type="qcurve"/>
      <point x="722" y="142"/>
      <point x="679" y="184"/>
      <point x="648" y="184" type="qcurve"/>
      <point x="617" y="184"/>
      <point x="574" y="141"/>
    </contour>
  </outline>
</glyph>
<glyph name="u0B88" format="1">
  <advance width="1043"/>
  <unicode hex="0B88"/>
  <outline>
    <contour>
      <point x="396" y="506" type="move" name="mark0"/>
    </contour>
    <component base="uni0D8A"/>
  </outline>
</glyph>
<glyph name="u0B8E" format="1">
  <advance width="1198"/>
  <unicode hex="0B8E"/>
  <outline>
    <contour>
      <point x="435" y="506" type="move" name="mark0"/>
    </contour>
    <component base="uni0D91"/>
  </outline>
</glyph>
<glyph name="u0B8F" format="1">
  <advance width="1242"/>
  <unicode hex="0B8F"/>
  <outline>
    <contour>
      <point x="440" y="506" type="move" name="mark0"/>
    </contour>
    <component base="uni0D91"/>
    <component base="uni0DCA" xOffset="1071" yOffset="61"/>
  </outline>
</glyph>
<glyph name="u0B90" format="1">
  <advance width="2013"/>
  <unicode hex="0B90"/>
  <outline>
    <contour>
      <point x="423" y="504" type="move" name="mark0"/>
    </contour>
    <component base="uni0DD9"/>
    <component base="uni0D91" xOffset="777"/>
  </outline>
</glyph>
<glyph name="u0B92" format="1">
  <advance width="907"/>
  <unicode hex="0B92"/>
  <outline>
    <contour>
      <point x="428" y="519" type="move" name="mark0"/>
    </contour>
    <component base="uni0D94"/>
  </outline>
</glyph>
<glyph name="u0B93" format="1">
  <advance width="1018"/>
  <unicode hex="0B93"/>
  <outline>
    <contour>
      <point x="418" y="529" type="move" name="mark0"/>
    </contour>
    <component base="uni0D94" xOffset="-5"/>
    <component base="uni0DCA" xOffset="973" yOffset="42"/>
  </outline>
</glyph>
<glyph name="u0B95" format="1">
  <advance width="1076"/>
  <unicode hex="0B95"/>
  <outline>
    <contour>
      <point x="329" y="494" type="move" name="mark0"/>
    </contour>
    <component base="uni0D9A"/>
  </outline>
</glyph>
<glyph name="u0B9F" format="1">
  <advance width="940"/>
  <unicode hex="0B9F"/>
  <outline>
    <contour>
      <point x="423" y="502" type="move" name="mark0"/>
    </contour>
    <component base="uni0DA7"/>
  </outline>
</glyph>
<glyph name="u0BAA" format="1">
  <advance width="967"/>
  <unicode hex="0BAA"/>
  <outline>
    <contour>
      <point x="374" y="494" type="move" name="mark0"/>
    </contour>
    <component base="uni0DB4"/>
  </outline>
</glyph>
<glyph name="u0BAF" format="1">
  <advance width="941"/>
  <unicode hex="0BAF"/>
  <outline>
    <contour>
      <point x="424" y="488" type="move" name="mark0"/>
    </contour>
    <component base="uni0DBA"/>
  </outline>
</glyph>
<glyph name="u0BB0" format="1">
  <advance width="1056"/>
  <unicode hex="0BB0"/>
  <outline>
    <contour>
      <point x="310" y="495" type="move" name="mark0"/>
    </contour>
    <component base="uni0DBB"/>
  </outline>
</glyph>
<glyph name="u0BB2" format="1">
  <advance width="1393"/>
  <unicode hex="0BB2"/>
  <outline>
    <contour>
      <point x="423" y="534" type="move" name="mark0"/>
    </contour>
    <component base="uni0DBD" xOffset="-16"/>
  </outline>
</glyph>
<glyph name="u0BB4" format="1">
  <advance width="824"/>
  <unicode hex="0BB4"/>
  <outline>
    <contour>
      <point x="430" y="511" type="move" name="mark0"/>
    </contour>
    <contour>
      <point x="449" y="369" type="qcurve"/>
      <point x="449" y="49" type="line"/>
      <point x="621" y="49" type="line"/>
      <point x="657" y="49"/>
      <point x="707" y="128"/>
      <point x="707" y="184" type="qcurve"/>
      <point x="707" y="296"/>
      <point x="599" y="455"/>
      <point x="522" y="455" type="qcurve"/>
      <point x="491" y="455"/>
      <point x="449" y="404"/>
    </contour>
    <contour>
      <point x="522" y="504" type="qcurve"/>
      <point x="624" y="504"/>
      <point x="768" y="317"/>
      <point x="768" y="184" type="qcurve"/>
      <point x="768" y="108"/>
      <point x="682" y="0"/>
      <point x="621" y="0" type="qcurve"/>
      <point x="449" y="0" type="line"/>
      <point x="456" y="-43"/>
      <point x="519" y="-98"/>
      <point x="559" y="-98" type="qcurve"/>
      <point x="707" y="-98" type="line"/>
      <point x="707" y="-148" type="line"/>
      <point x="608" y="-148" type="line"/>
      <point x="563" y="-148"/>
      <point x="484" y="-194"/>
      <point x="461" y="-234" type="qcurve"/>
      <point x="431" y="-286"/>
      <point x="332" y="-344"/>
      <point x="277" y="-344" type="qcurve"/>
      <point x="201" y="-344"/>
      <point x="92" y="-258"/>
      <point x="92" y="-197" type="qcurve"/>
      <point x="92" y="-147"/>
      <point x="165" y="-74"/>
      <point x="215" y="-74" type="qcurve"/>
      <point x="313" y="-74" type="line"/>
      <point x="313" y="-123" type="line"/>
      <point x="215" y="-123" type="line"/>
      <point x="189" y="-123"/>
      <point x="154" y="-166"/>
      <point x="154" y="-197" type="qcurve"/>
      <point x="154" y="-238"/>
      <point x="226" y="-295"/>
      <point x="277" y="-295" type="qcurve"/>
      <point x="311" y="-295"/>
      <point x="371" y="-262"/>
      <point x="387" y="-234" type="qcurve"/>
      <point x="404" y="-203"/>
      <point x="455" y="-152"/>
      <point x="486" y="-135" type="qcurve"/>
      <point x="442" y="-119"/>
      <point x="387" y="-44"/>
      <point x="387" y="0" type="qcurve"/>
      <point x="92" y="0" type="line"/>
      <point x="92" y="492" type="line"/>
      <point x="154" y="492" type="line"/>
      <point x="154" y="49" type="line"/>
      <point x="387" y="49" type="line"/>
      <point x="387" y="369" type="line"/>
      <point x="387" y="426"/>
      <point x="466" y="504"/>
    </contour>
  </outline>
</glyph>
<glyph name="u0BB5" format="1">
  <advance width="1061"/>
  <unicode hex="0BB5"/>
  <outline>
    <contour>
      <point x="482" y="513" type="move" name="mark0"/>
    </contour>
    <component base="uni0DC0" yOffset="-100"/>
  </outline>
</glyph>
<glyph name="u0BB7" format="1">
  <advance width="1378"/>
  <unicode hex="0BB7"/>
  <outline>
    <contour>
      <point x="616" y="502" type="move" name="mark0"/>
    </contour>
    <component base="uni0DC2"/>
  </outline>
</glyph>
<glyph name="u0BC1" format="1">
  <advance width="532"/>
  <unicode hex="0BC1"/>
  <outline>
    <contour>
      <point x="-208" y="443" type="line"/>
      <point x="-208" y="492" type="line"/>
      <point x="333" y="492" type="line"/>
      <point x="399" y="492"/>
      <point x="493" y="398"/>
      <point x="493" y="332" type="qcurve"/>
      <point x="493" y="266"/>
      <point x="400" y="172"/>
      <point x="333" y="172" type="qcurve"/>
      <point x="267" y="172"/>
      <point x="173" y="266"/>
      <point x="173" y="332" type="qcurve"/>
      <point x="173" y="443" type="line"/>
    </contour>
    <contour>
      <point x="235" y="332" type="line"/>
      <point x="235" y="287"/>
      <point x="293" y="221"/>
      <point x="333" y="221" type="qcurve"/>
      <point x="374" y="221"/>
      <point x="431" y="286"/>
      <point x="431" y="332" type="qcurve"/>
      <point x="431" y="377"/>
      <point x="374" y="443"/>
      <point x="333" y="443" type="qcurve"/>
      <point x="235" y="443" type="line"/>
    </contour>
  </outline>
</glyph>
<glyph name="u0BC2" format="1">
  <advance width="776"/>
  <unicode hex="0BC2"/>
  <outline>
    <contour>
      <point x="-208" y="492" type="line"/>
      <point x="124" y="492" type="line"/>
      <point x="124" y="541" type="line"/>
      <point x="124" y="663"/>
      <point x="297" y="836"/>
      <point x="419" y="836" type="qcurve"/>
      <point x="552" y="836"/>
      <point x="739" y="612"/>
      <point x="739" y="455" type="qcurve"/>
      <point x="739" y="287"/>
      <point x="502" y="49"/>
      <point x="333" y="49" type="qcurve"/>
      <point x="248" y="49"/>
      <point x="100" y="113"/>
      <point x="50" y="172" type="qcurve"/>
      <point x="87" y="209" type="line"/>
      <point x="117" y="157"/>
      <point x="248" y="98"/>
      <point x="333" y="98" type="qcurve"/>
      <point x="476" y="98"/>
      <point x="677" y="307"/>
      <point x="677" y="455" type="qcurve"/>
      <point x="677" y="593"/>
      <point x="526" y="787"/>
      <point x="419" y="787" type="qcurve"/>
      <point x="322" y="787"/>
      <point x="186" y="643"/>
      <point x="186" y="541" type="qcurve"/>
      <point x="186" y="492" type="line"/>
      <point x="345" y="492" type="line"/>
      <point x="402" y="492"/>
      <point x="481" y="419"/>
      <point x="481" y="369" type="qcurve"/>
      <point x="481" y="319"/>
      <point x="402" y="246"/>
      <point x="345" y="246" type="qcurve"/>
      <point x="266" y="246"/>
      <point x="145" y="358"/>
      <point x="130" y="443" type="qcurve"/>
      <point x="-208" y="443" type="line"/>
    </contour>
    <contour>
      <point x="192" y="443" type="line"/>
      <point x="203" y="379"/>
      <point x="290" y="295"/>
      <point x="345" y="295" type="qcurve"/>
      <point x="376" y="295"/>
      <point x="419" y="338"/>
      <point x="419" y="369" type="qcurve"/>
      <point x="419" y="400"/>
      <point x="376" y="443"/>
      <point x="345" y="443" type="qcurve"/>
    </contour>
  </outline>
</glyph>
<glyph name="u0BEB" format="1">
  <advance width="897"/>
  <unicode hex="0BEB"/>
  <outline>
    <contour>
      <point x="443" y="-221" type="qcurve"/>
      <point x="581" y="-221"/>
      <point x="774" y="-20"/>
      <point x="774" y="123" type="qcurve"/>
      <point x="774" y="180"/>
      <point x="706" y="258"/>
      <point x="658" y="258" type="qcurve"/>
      <point x="640" y="258"/>
      <point x="597" y="232"/>
      <point x="578" y="209" type="qcurve"/>
      <point x="578" y="0" type="line"/>
      <point x="516" y="0" type="line"/>
      <point x="516" y="443" type="line"/>
      <point x="369" y="443" type="line"/>
      <point x="369" y="0" type="line"/>
      <point x="307" y="0" type="line"/>
      <point x="307" y="492" type="line"/>
      <point x="676" y="492" type="line"/>
      <point x="676" y="443" type="line"/>
      <point x="578" y="443" type="line"/>
      <point x="578" y="270" type="line"/>
      <point x="588" y="287"/>
      <point x="634" y="307"/>
      <point x="664" y="307" type="qcurve"/>
      <point x="735" y="307"/>
      <point x="836" y="199"/>
      <point x="836" y="123" type="qcurve"/>
      <point x="836" y="-40"/>
      <point x="606" y="-270"/>
      <point x="443" y="-270" type="qcurve"/>
      <point x="286" y="-270"/>
      <point x="61" y="14"/>
      <point x="61" y="215" type="qcurve"/>
      <point x="61" y="431"/>
      <point x="306" y="738"/>
      <point x="479" y="738" type="qcurve"/>
      <point x="622" y="738"/>
      <point x="824" y="551"/>
      <point x="824" y="418" type="qcurve"/>
      <point x="762" y="418" type="line"/>
      <point x="762" y="530"/>
      <point x="596" y="688"/>
      <point x="479" y="688" type="qcurve"/>
      <point x="329" y="688"/>
      <point x="117" y="411"/>
      <point x="117" y="215" type="qcurve"/>
      <point x="117" y="34"/>
      <point x="307" y="-221"/>
    </contour>
  </outline>
</glyph>
<glyph name="u0BED" format="1">
  <advance width="768"/>
  <unicode hex="0BED"/>
  <outline>
    <contour>
      <point x="221" y="135" type="qcurve"/>
      <point x="221" y="94"/>
      <point x="264" y="37"/>
      <point x="295" y="37" type="qcurve"/>
      <point x="326" y="37"/>
      <point x="369" y="95"/>
      <point x="369" y="135" type="qcurve"/>
      <point x="369" y="171"/>
      <point x="326" y="221"/>
      <point x="295" y="221" type="qcurve"/>
      <point x="264" y="221"/>
      <point x="221" y="171"/>
    </contour>
    <contour>
      <point x="565" y="443" type="line"/>
      <point x="320" y="443" type="line"/>
      <point x="234" y="443"/>
      <point x="111" y="313"/>
      <point x="111" y="221" type="qcurve"/>
      <point x="111" y="167"/>
      <point x="163" y="75"/>
      <point x="209" y="49" type="qcurve"/>
      <point x="191" y="70"/>
      <point x="172" y="114"/>
      <point x="172" y="135" type="qcurve"/>
      <point x="172" y="192"/>
      <point x="245" y="270"/>
      <point x="295" y="270" type="qcurve"/>
      <point x="352" y="270"/>
      <point x="430" y="192"/>
      <point x="430" y="135" type="qcurve"/>
      <point x="430" y="74"/>
      <point x="337" y="-12"/>
      <point x="270" y="-12" type="qcurve"/>
      <point x="184" y="-12"/>
      <point x="61" y="124"/>
      <point x="61" y="221" type="qcurve"/>
      <point x="61" y="333"/>
      <point x="213" y="492"/>
      <point x="320" y="492" type="qcurve"/>
      <point x="707" y="492" type="line"/>
      <point x="707" y="443" type="line"/>
      <point x="627" y="443" type="line"/>
      <point x="627" y="0" type="line"/>
      <point x="565" y="0" type="line"/>
    </contour>
  </outline>
</glyph>
<glyph name="u0BEF" format="1">
  <advance width="946"/>
  <unicode hex="0BEF"/>
  <outline>
    <contour>
      <point x="246" y="270" type="line"/>
      <point x="369" y="270" type="line"/>
      <point x="369" y="443" type="line"/>
      <point x="246" y="443" type="line"/>
    </contour>
    <contour>
      <point x="123" y="160" type="qcurve"/>
      <point x="123" y="115"/>
      <point x="202" y="49"/>
      <point x="258" y="49" type="qcurve"/>
      <point x="303" y="49"/>
      <point x="369" y="100"/>
      <point x="369" y="135" type="qcurve"/>
      <point x="369" y="221" type="line"/>
      <point x="184" y="221" type="line"/>
      <point x="158" y="221"/>
      <point x="123" y="186"/>
    </contour>
    <contour>
      <point x="553" y="123" type="qcurve"/>
      <point x="553" y="87"/>
      <point x="581" y="37"/>
      <point x="602" y="37" type="qcurve"/>
      <point x="623" y="37"/>
      <point x="652" y="87"/>
      <point x="652" y="123" type="qcurve"/>
      <point x="652" y="155"/>
      <point x="611" y="209"/>
      <point x="578" y="221" type="qcurve"/>
      <point x="566" y="200"/>
      <point x="553" y="150"/>
    </contour>
    <contour>
      <point x="61" y="160" type="qcurve"/>
      <point x="61" y="205"/>
      <point x="134" y="270"/>
      <point x="184" y="270" type="qcurve"/>
      <point x="184" y="492" type="line"/>
      <point x="547" y="492" type="line"/>
      <point x="547" y="443" type="line"/>
      <point x="430" y="443" type="line"/>
      <point x="430" y="270" type="line"/>
      <point x="553" y="270" type="line"/>
      <point x="578" y="304"/>
      <point x="659" y="344"/>
      <point x="707" y="344" type="qcurve"/>
      <point x="781" y="344"/>
      <point x="885" y="243"/>
      <point x="885" y="172" type="qcurve"/>
      <point x="885" y="124"/>
      <point x="853" y="36"/>
      <point x="824" y="0" type="qcurve"/>
      <point x="756" y="0" type="line"/>
      <point x="789" y="39"/>
      <point x="824" y="128"/>
      <point x="824" y="172" type="qcurve"/>
      <point x="824" y="222"/>
      <point x="755" y="295"/>
      <point x="707" y="295" type="qcurve"/>
      <point x="675" y="295"/>
      <point x="623" y="275"/>
      <point x="608" y="258" type="qcurve"/>
      <point x="650" y="243"/>
      <point x="701" y="168"/>
      <point x="701" y="123" type="qcurve"/>
      <point x="701" y="66"/>
      <point x="643" y="-12"/>
      <point x="602" y="-12" type="qcurve"/>
      <point x="561" y="-12"/>
      <point x="504" y="66"/>
      <point x="504" y="123" type="qcurve"/>
      <point x="504" y="150"/>
      <point x="516" y="200"/>
      <point x="529" y="221" type="qcurve"/>
      <point x="430" y="221" type="line"/>
      <point x="430" y="135" type="line"/>
      <point x="430" y="74"/>
      <point x="329" y="-12"/>
      <point x="258" y="-12" type="qcurve"/>
      <point x="177" y="-12"/>
      <point x="61" y="89"/>
    </contour>
  </outline>
</glyph>
<glyph name="u0BF0" format="1">
  <advance width="661"/>
  <unicode hex="0BF0"/>
  <outline>
    <contour>
      <point x="311" y="49" type="qcurve"/>
      <point x="286" y="19"/>
      <point x="229" y="-12"/>
      <point x="200" y="-12" type="qcurve"/>
      <point x="143" y="-12"/>
      <point x="65" y="66"/>
      <point x="65" y="123" type="qcurve"/>
      <point x="65" y="369" type="line"/>
      <point x="127" y="369" type="line"/>
      <point x="127" y="123" type="line"/>
      <point x="127" y="87"/>
      <point x="170" y="37"/>
      <point x="200" y="37" type="qcurve"/>
      <point x="231" y="37"/>
      <point x="274" y="87"/>
      <point x="274" y="123" type="qcurve"/>
      <point x="274" y="369" type="line"/>
      <point x="336" y="369" type="line"/>
      <point x="336" y="123" type="line"/>
      <point x="350" y="84"/>
      <point x="403" y="37"/>
      <point x="434" y="37" type="qcurve"/>
      <point x="479" y="37"/>
      <point x="545" y="138"/>
      <point x="545" y="209" type="qcurve"/>
      <point x="545" y="306"/>
      <point x="429" y="443"/>
      <point x="348" y="443" type="qcurve"/>
      <point x="188" y="443" type="line"/>
      <point x="188" y="492" type="line"/>
      <point x="348" y="492" type="line"/>
      <point x="455" y="492"/>
      <point x="606" y="326"/>
      <point x="606" y="209" type="qcurve"/>
      <point x="606" y="117"/>
      <point x="505" y="-12"/>
      <point x="434" y="-12" type="qcurve"/>
      <point x="391" y="-12"/>
      <point x="325" y="21"/>
    </contour>
  </outline>
</glyph>
<glyph name="u0BF3" format="1">
  <advance width="910"/>
  <unicode hex="0BF3"/>
  <outline>
    <contour>
      <point x="200" y="135" type="qcurve"/>
      <point x="200" y="94"/>
      <point x="251" y="37"/>
      <point x="286" y="37" type="qcurve"/>
      <point x="327" y="37"/>
      <point x="385" y="95"/>
      <point x="385" y="135" type="qcurve"/>
      <point x="385" y="176"/>
      <point x="327" y="234"/>
      <point x="286" y="234" type="qcurve"/>
      <point x="250" y="234"/>
      <point x="200" y="176"/>
    </contour>
    <contour>
      <point x="53" y="234" type="qcurve"/>
      <point x="53" y="346"/>
      <point x="211" y="504"/>
      <point x="323" y="504" type="qcurve"/>
      <point x="440" y="504"/>
      <point x="606" y="345"/>
      <point x="606" y="234" type="qcurve"/>
      <point x="606" y="185"/>
      <point x="581" y="91"/>
      <point x="557" y="49" type="qcurve"/>
      <point x="901" y="49" type="line"/>
      <point x="901" y="0" type="line"/>
      <point x="483" y="0" type="line"/>
      <point x="483" y="37" type="line"/>
      <point x="513" y="73"/>
      <point x="545" y="173"/>
      <point x="545" y="234" type="qcurve"/>
      <point x="545" y="326"/>
      <point x="416" y="455"/>
      <point x="323" y="455" type="qcurve"/>
      <point x="231" y="455"/>
      <point x="102" y="326"/>
      <point x="102" y="234" type="qcurve"/>
      <point x="102" y="192"/>
      <point x="134" y="109"/>
      <point x="163" y="74" type="qcurve"/>
      <point x="157" y="91"/>
      <point x="151" y="122"/>
      <point x="151" y="135" type="qcurve"/>
      <point x="151" y="196"/>
      <point x="230" y="283"/>
      <point x="286" y="283" type="qcurve"/>
      <point x="347" y="283"/>
      <point x="434" y="197"/>
      <point x="434" y="135" type="qcurve"/>
      <point x="434" y="74"/>
      <point x="348" y="-12"/>
      <point x="286" y="-12" type="qcurve"/>
      <point x="189" y="-12"/>
      <point x="53" y="132"/>
    </contour>
  </outline>
</glyph>
<glyph name="u0BF5" format="1">
  <advance width="1800"/>
  <unicode hex="0BF5"/>
  <outline>
    <contour>
      <point x="386" y="135" type="qcurve"/>
      <point x="386" y="94"/>
      <point x="434" y="37"/>
      <point x="467" y="37" type="qcurve"/>
      <point x="500" y="37"/>
      <point x="548" y="95"/>
      <point x="548" y="135" type="qcurve"/>
      <point x="548" y="176"/>
      <point x="500" y="234"/>
      <point x="467" y="234" type="qcurve"/>
      <point x="434" y="234"/>
      <point x="386" y="176"/>
    </contour>
    <contour>
      <point x="929" y="49" type="line"/>
      <point x="929" y="492" type="line"/>
      <point x="1302" y="492" type="line"/>
      <point x="1302" y="443" type="line"/>
      <point x="1175" y="443" type="line"/>
      <point x="1175" y="240" type="line"/>
      <point x="1192" y="255"/>
      <point x="1231" y="270"/>
      <point x="1250" y="270" type="qcurve"/>
      <point x="1302" y="270"/>
      <point x="1374" y="170"/>
      <point x="1374" y="98" type="qcurve"/>
      <point x="1374" y="-75"/>
      <point x="991" y="-320"/>
      <point x="719" y="-320" type="qcurve"/>
      <point x="449" y="-320"/>
      <point x="65" y="-17"/>
      <point x="65" y="197" type="qcurve"/>
      <point x="65" y="421"/>
      <point x="490" y="738"/>
      <point x="792" y="738" type="qcurve"/>
      <point x="1093" y="738"/>
      <point x="1518" y="521"/>
      <point x="1518" y="369" type="qcurve"/>
      <point x="1518" y="184" type="line"/>
      <point x="1518" y="127"/>
      <point x="1570" y="49"/>
      <point x="1607" y="49" type="qcurve"/>
      <point x="1652" y="49"/>
      <point x="1717" y="165"/>
      <point x="1717" y="246" type="qcurve"/>
      <point x="1717" y="327"/>
      <point x="1660" y="443"/>
      <point x="1618" y="443" type="qcurve"/>
      <point x="1637" y="492" type="line"/>
      <point x="1690" y="492"/>
      <point x="1766" y="348"/>
      <point x="1766" y="246" type="qcurve"/>
      <point x="1766" y="144"/>
      <point x="1673" y="0"/>
      <point x="1607" y="0" type="qcurve"/>
      <point x="1546" y="0"/>
      <point x="1459" y="108"/>
      <point x="1459" y="184" type="qcurve"/>
      <point x="1459" y="369" type="line"/>
      <point x="1459" y="502"/>
      <point x="1067" y="688"/>
      <point x="789" y="688" type="qcurve"/>
      <point x="511" y="688"/>
      <point x="119" y="401"/>
      <point x="119" y="197" type="qcurve"/>
      <point x="119" y="4"/>
      <point x="470" y="-270"/>
      <point x="717" y="-270" type="qcurve"/>
      <point x="965" y="-270"/>
      <point x="1315" y="-54"/>
      <point x="1315" y="98" type="qcurve"/>
      <point x="1315" y="146"/>
      <point x="1275" y="215"/>
      <point x="1247" y="215" type="qcurve"/>
      <point x="1217" y="215"/>
      <point x="1175" y="172"/>
      <point x="1175" y="141" type="qcurve"/>
      <point x="1175" y="0" type="line"/>
      <point x="1116" y="0" type="line"/>
      <point x="1116" y="443" type="line"/>
      <point x="990" y="443" type="line"/>
      <point x="990" y="0" type="line"/>
      <point x="668" y="0" type="line"/>
      <point x="668" y="37" type="line"/>
      <point x="694" y="71"/>
      <point x="722" y="173"/>
      <point x="722" y="234" type="qcurve"/>
      <point x="722" y="326"/>
      <point x="597" y="455"/>
      <point x="509" y="455" type="qcurve"/>
      <point x="422" y="455"/>
      <point x="297" y="326"/>
      <point x="297" y="234" type="qcurve"/>
      <point x="297" y="189"/>
      <point x="323" y="106"/>
      <point x="348" y="74" type="qcurve"/>
      <point x="343" y="91"/>
      <point x="337" y="122"/>
      <point x="337" y="135" type="qcurve"/>
      <point x="337" y="196"/>
      <point x="409" y="283"/>
      <point x="461" y="283" type="qcurve"/>
      <point x="518" y="283"/>
      <point x="597" y="197"/>
      <point x="597" y="135" type="qcurve"/>
      <point x="597" y="74"/>
      <point x="518" y="-12"/>
      <point x="461" y="-12" type="qcurve"/>
      <point x="359" y="-12"/>
      <point x="236" y="122"/>
      <point x="236" y="234" type="qcurve"/>
      <point x="236" y="346"/>
      <point x="396" y="504"/>
      <point x="509" y="504" type="qcurve"/>
      <point x="622" y="504"/>
      <point x="782" y="345"/>
      <point x="782" y="234" type="qcurve"/>
      <point x="782" y="185"/>
      <point x="760" y="91"/>
      <point x="739" y="49" type="qcurve"/>
    </contour>
  </outline>
</glyph>
<glyph name="u0BF6" format="1">
  <advance width="791"/>
  <unicode hex="0BF6"/>
  <outline>
    <contour>
      <point x="85" y="135" type="qcurve"/>
      <point x="85" y="492" type="line"/>
      <point x="146" y="492" type="line"/>
      <point x="146" y="135" type="line"/>
      <point x="146" y="94"/>
      <point x="197" y="37"/>
      <point x="232" y="37" type="qcurve"/>
      <point x="277" y="37"/>
      <point x="343" y="102"/>
      <point x="343" y="148" type="qcurve"/>
      <point x="343" y="492" type="line"/>
      <point x="404" y="492" type="line"/>
      <point x="404" y="-61" type="line"/>
      <point x="638" y="-61" type="line"/>
      <point x="638" y="492" type="line"/>
      <point x="699" y="492" type="line"/>
      <point x="699" y="-111" type="line"/>
      <point x="404" y="-111" type="line"/>
      <point x="404" y="-184" type="line"/>
      <point x="404" y="-234"/>
      <point x="336" y="-307"/>
      <point x="288" y="-307" type="qcurve"/>
      <point x="202" y="-307" type="line"/>
      <point x="152" y="-307"/>
      <point x="79" y="-235"/>
      <point x="79" y="-184" type="qcurve"/>
      <point x="79" y="-134"/>
      <point x="151" y="-61"/>
      <point x="202" y="-61" type="qcurve"/>
      <point x="343" y="-61" type="line"/>
      <point x="343" y="37" type="line"/>
      <point x="329" y="14"/>
      <point x="270" y="-12"/>
      <point x="232" y="-12" type="qcurve"/>
      <point x="171" y="-12"/>
      <point x="85" y="74"/>
    </contour>
    <contour>
      <point x="140" y="-184" type="qcurve"/>
      <point x="140" y="-215"/>
      <point x="176" y="-258"/>
      <point x="202" y="-258" type="qcurve"/>
      <point x="288" y="-258" type="line"/>
      <point x="311" y="-258"/>
      <point x="343" y="-215"/>
      <point x="343" y="-184" type="qcurve"/>
      <point x="343" y="-111" type="line"/>
      <point x="202" y="-111" type="line"/>
      <point x="176" y="-111"/>
      <point x="140" y="-154"/>
    </contour>
  </outline>
</glyph>
<glyph name="u0BF7" format="1">
  <advance width="1336"/>
  <unicode hex="0BF7"/>
  <outline>
    <contour>
      <point x="214" y="135" type="qcurve"/>
      <point x="214" y="94"/>
      <point x="257" y="37"/>
      <point x="288" y="37" type="qcurve"/>
      <point x="319" y="37"/>
      <point x="361" y="95"/>
      <point x="361" y="135" type="qcurve"/>
      <point x="361" y="171"/>
      <point x="318" y="221"/>
      <point x="288" y="221" type="qcurve"/>
      <point x="257" y="221"/>
      <point x="214" y="171"/>
    </contour>
    <contour>
      <point x="54" y="221" type="qcurve"/>
      <point x="54" y="333"/>
      <point x="205" y="492"/>
      <point x="312" y="492" type="qcurve"/>
      <point x="742" y="492" type="line"/>
      <point x="742" y="443" type="line"/>
      <point x="620" y="443" type="line"/>
      <point x="620" y="145" type="line"/>
      <point x="638" y="167"/>
      <point x="687" y="204"/>
      <point x="717" y="218" type="qcurve"/>
      <point x="733" y="284"/>
      <point x="841" y="368"/>
      <point x="908" y="368" type="qcurve"/>
      <point x="993" y="368"/>
      <point x="1114" y="252"/>
      <point x="1114" y="171" type="qcurve"/>
      <point x="1114" y="134"/>
      <point x="1097" y="65"/>
      <point x="1079" y="36" type="qcurve"/>
      <point x="1329" y="36" type="line"/>
      <point x="1329" y="0" type="line"/>
      <point x="1024" y="0" type="line"/>
      <point x="1024" y="27" type="line"/>
      <point x="1045" y="53"/>
      <point x="1068" y="127"/>
      <point x="1068" y="171" type="qcurve"/>
      <point x="1068" y="237"/>
      <point x="975" y="332"/>
      <point x="908" y="332" type="qcurve"/>
      <point x="860" y="332"/>
      <point x="781" y="278"/>
      <point x="761" y="232" type="qcurve"/>
      <point x="781" y="237"/>
      <point x="819" y="242"/>
      <point x="837" y="242" type="qcurve"/>
      <point x="900" y="242"/>
      <point x="990" y="165"/>
      <point x="990" y="111" type="qcurve"/>
      <point x="990" y="62"/>
      <point x="915" y="-9"/>
      <point x="862" y="-9" type="qcurve"/>
      <point x="799" y="-9"/>
      <point x="711" y="97"/>
      <point x="711" y="171" type="qcurve"/>
      <point x="679" y="153"/>
      <point x="631" y="102"/>
      <point x="620" y="71" type="qcurve"/>
      <point x="620" y="0" type="line"/>
      <point x="558" y="0" type="line"/>
      <point x="558" y="443" type="line"/>
      <point x="312" y="443" type="line"/>
      <point x="226" y="443"/>
      <point x="103" y="313"/>
      <point x="103" y="221" type="qcurve"/>
      <point x="103" y="167"/>
      <point x="156" y="75"/>
      <point x="202" y="49" type="qcurve"/>
      <point x="184" y="70"/>
      <point x="165" y="114"/>
      <point x="165" y="135" type="qcurve"/>
      <point x="165" y="192"/>
      <point x="237" y="270"/>
      <point x="288" y="270" type="qcurve"/>
      <point x="345" y="270"/>
      <point x="423" y="192"/>
      <point x="423" y="135" type="qcurve"/>
      <point x="423" y="74"/>
      <point x="329" y="-12"/>
      <point x="263" y="-12" type="qcurve"/>
      <point x="177" y="-12"/>
      <point x="54" y="124"/>
    </contour>
    <contour>
      <point x="749" y="187" type="qcurve"/>
      <point x="749" y="123"/>
      <point x="815" y="33"/>
      <point x="862" y="33" type="qcurve"/>
      <point x="895" y="33"/>
      <point x="940" y="79"/>
      <point x="940" y="111" type="qcurve"/>
      <point x="940" y="149"/>
      <point x="880" y="202"/>
      <point x="837" y="202" type="qcurve"/>
      <point x="815" y="202"/>
      <point x="770" y="194"/>
    </contour>
  </outline>
</glyph>
<glyph name="u0BF8" format="1">
  <advance width="1595"/>
  <unicode hex="0BF8"/>
  <outline>
    <contour>
      <point x="61" y="307" type="qcurve"/>
      <point x="61" y="459"/>
      <point x="278" y="676"/>
      <point x="430" y="676" type="qcurve"/>
      <point x="543" y="676"/>
      <point x="736" y="527"/>
      <point x="781" y="406" type="qcurve"/>
      <point x="798" y="412"/>
      <point x="837" y="418"/>
      <point x="861" y="418" type="qcurve"/>
      <point x="937" y="418"/>
      <point x="1045" y="302"/>
      <point x="1045" y="221" type="qcurve"/>
      <point x="1045" y="163"/>
      <point x="1013" y="74"/>
      <point x="983" y="49" type="qcurve"/>
      <point x="1217" y="49" type="line"/>
      <point x="1172" y="70"/>
      <point x="1119" y="157"/>
      <point x="1119" y="209" type="qcurve"/>
      <point x="1119" y="266"/>
      <point x="1205" y="344"/>
      <point x="1266" y="344" type="qcurve"/>
      <point x="1327" y="344"/>
      <point x="1414" y="266"/>
      <point x="1414" y="209" type="qcurve"/>
      <point x="1414" y="49" type="line"/>
      <point x="1586" y="49" type="line"/>
      <point x="1586" y="0" type="line"/>
      <point x="1414" y="0" type="line"/>
      <point x="1414" y="-295" type="line"/>
      <point x="1352" y="-295" type="line"/>
      <point x="1352" y="0" type="line"/>
      <point x="873" y="0" type="line"/>
      <point x="873" y="37" type="line"/>
      <point x="923" y="55"/>
      <point x="983" y="156"/>
      <point x="983" y="221" type="qcurve"/>
      <point x="983" y="282"/>
      <point x="905" y="369"/>
      <point x="848" y="369" type="qcurve"/>
      <point x="828" y="369"/>
      <point x="801" y="365"/>
      <point x="793" y="363" type="qcurve"/>
      <point x="795" y="354"/>
      <point x="799" y="327"/>
      <point x="799" y="307" type="qcurve"/>
      <point x="799" y="179"/>
      <point x="706" y="0"/>
      <point x="639" y="0" type="qcurve"/>
      <point x="603" y="0"/>
      <point x="553" y="73"/>
      <point x="553" y="123" type="qcurve"/>
      <point x="553" y="215"/>
      <point x="644" y="360"/>
      <point x="719" y="387" type="qcurve"/>
      <point x="680" y="495"/>
      <point x="521" y="627"/>
      <point x="430" y="627" type="qcurve"/>
      <point x="300" y="627"/>
      <point x="117" y="440"/>
      <point x="117" y="307" type="qcurve"/>
      <point x="117" y="264"/>
      <point x="145" y="170"/>
      <point x="172" y="123" type="qcurve"/>
      <point x="166" y="187"/>
      <point x="247" y="283"/>
      <point x="307" y="283" type="qcurve"/>
      <point x="368" y="283"/>
      <point x="455" y="197"/>
      <point x="455" y="135" type="qcurve"/>
      <point x="455" y="74"/>
      <point x="369" y="-12"/>
      <point x="307" y="-12" type="qcurve"/>
      <point x="205" y="-12"/>
      <point x="61" y="175"/>
    </contour>
    <contour>
      <point x="221" y="135" type="qcurve"/>
      <point x="221" y="94"/>
      <point x="272" y="37"/>
      <point x="307" y="37" type="qcurve"/>
      <point x="343" y="37"/>
      <point x="393" y="95"/>
      <point x="393" y="135" type="qcurve"/>
      <point x="393" y="176"/>
      <point x="339" y="234"/>
      <point x="301" y="234" type="qcurve"/>
      <point x="268" y="234"/>
      <point x="221" y="176"/>
    </contour>
    <contour>
      <point x="615" y="123" type="qcurve"/>
      <point x="615" y="92"/>
      <point x="629" y="49"/>
      <point x="639" y="49" type="qcurve"/>
      <point x="677" y="49"/>
      <point x="731" y="200"/>
      <point x="731" y="307" type="qcurve"/>
      <point x="731" y="344" type="line"/>
      <point x="678" y="324"/>
      <point x="615" y="203"/>
    </contour>
    <contour>
      <point x="1180" y="209" type="qcurve"/>
      <point x="1180" y="143"/>
      <point x="1281" y="49"/>
      <point x="1352" y="49" type="qcurve"/>
      <point x="1352" y="209" type="line"/>
      <point x="1352" y="245"/>
      <point x="1302" y="295"/>
      <point x="1266" y="295" type="qcurve"/>
      <point x="1230" y="295"/>
      <point x="1180" y="245"/>
    </contour>
  </outline>
</glyph>
<glyph name="u0BF9" format="1">
  <advance width="1231"/>
  <unicode hex="0BF9"/>
  <outline>
    <contour>
      <point x="457" y="-221" type="qcurve"/>
      <point x="595" y="-221"/>
      <point x="789" y="-20"/>
      <point x="789" y="123" type="qcurve"/>
      <point x="789" y="180"/>
      <point x="720" y="258"/>
      <point x="672" y="258" type="qcurve"/>
      <point x="654" y="258"/>
      <point x="612" y="232"/>
      <point x="593" y="209" type="qcurve"/>
      <point x="593" y="0" type="line"/>
      <point x="531" y="0" type="line"/>
      <point x="531" y="443" type="line"/>
      <point x="384" y="443" type="line"/>
      <point x="384" y="0" type="line"/>
      <point x="322" y="0" type="line"/>
      <point x="322" y="492" type="line"/>
      <point x="691" y="492" type="line"/>
      <point x="691" y="443" type="line"/>
      <point x="593" y="443" type="line"/>
      <point x="593" y="270" type="line"/>
      <point x="603" y="287"/>
      <point x="649" y="307"/>
      <point x="679" y="307" type="qcurve"/>
      <point x="750" y="307"/>
      <point x="851" y="199"/>
      <point x="851" y="123" type="qcurve"/>
      <point x="851" y="-40"/>
      <point x="621" y="-270"/>
      <point x="457" y="-270" type="qcurve"/>
      <point x="300" y="-270"/>
      <point x="76" y="14"/>
      <point x="76" y="215" type="qcurve"/>
      <point x="76" y="431"/>
      <point x="321" y="738"/>
      <point x="494" y="738" type="qcurve"/>
      <point x="608" y="738"/>
      <point x="798" y="602"/>
      <point x="838" y="492" type="qcurve"/>
      <point x="855" y="536"/>
      <point x="937" y="590"/>
      <point x="986" y="590" type="qcurve"/>
      <point x="1047" y="590"/>
      <point x="1133" y="518"/>
      <point x="1133" y="467" type="qcurve"/>
      <point x="1232" y="467" type="line"/>
      <point x="1232" y="418" type="line"/>
      <point x="1084" y="418" type="line"/>
      <point x="1084" y="468"/>
      <point x="1026" y="541"/>
      <point x="986" y="541" type="qcurve"/>
      <point x="936" y="541"/>
      <point x="863" y="455"/>
      <point x="863" y="393" type="qcurve"/>
      <point x="801" y="393" type="line"/>
      <point x="801" y="515"/>
      <point x="622" y="688"/>
      <point x="494" y="688" type="qcurve"/>
      <point x="344" y="688"/>
      <point x="132" y="411"/>
      <point x="132" y="215" type="qcurve"/>
      <point x="132" y="34"/>
      <point x="322" y="-221"/>
    </contour>
  </outline>
</glyph>
<glyph name="uni0D82" format="1">
  <advance width="481"/>
  <unicode hex="0D82"/>
  <outline>
    <contour>
      <point x="243" y="477" type="curve"/>
      <point x="364" y="479"/>
      <point x="449" y="386"/>
      <point x="446" y="272" type="curve"/>
      <point x="446" y="212"/>
      <point x="427" y="163"/>
      <point x="389" y="124" type="curve" smooth="yes"/>
      <point x="352" y="86"/>
      <point x="302" y="67"/>
      <point x="239" y="67" type="curve"/>
      <point x="118" y="65"/>
      <point x="33" y="155"/>
      <point x="34" y="272" type="curve" smooth="yes"/>
      <point x="34" y="311"/>
      <point x="43" y="346"/>
      <point x="61" y="377" type="curve" smooth="yes"/>
      <point x="97" y="441"/>
      <point x="163" y="477"/>
    </contour>
    <contour>
      <point x="239" y="138" type="curve" smooth="yes"/>
      <point x="280" y="138"/>
      <point x="312" y="150"/>
      <point x="336" y="175" type="curve" smooth="yes"/>
      <point x="359" y="201"/>
      <point x="371" y="234"/>
      <point x="371" y="277" type="curve" smooth="yes"/>
      <point x="371" y="315"/>
      <point x="359" y="347"/>
      <point x="336" y="370" type="curve" smooth="yes"/>
      <point x="312" y="394"/>
      <point x="280" y="406"/>
      <point x="239" y="406" type="curve" smooth="yes"/>
      <point x="199" y="406"/>
      <point x="168" y="394"/>
      <point x="144" y="370" type="curve" smooth="yes"/>
      <point x="121" y="347"/>
      <point x="109" y="315"/>
      <point x="109" y="275" type="curve" smooth="yes"/>
      <point x="109" y="233"/>
      <point x="121" y="200"/>
      <point x="144" y="175" type="curve" smooth="yes"/>
      <point x="167" y="150"/>
      <point x="199" y="138"/>
    </contour>
  </outline>
</glyph>
<glyph name="uni0D83" format="1">
  <advance width="325"/>
  <unicode hex="0D83"/>
  <outline>
    <contour>
      <point x="163" y="307" type="curve" smooth="yes"/>
      <point x="122" y="307"/>
      <point x="90" y="318"/>
      <point x="66" y="341" type="curve" smooth="yes"/>
      <point x="43" y="363"/>
      <point x="31" y="393"/>
      <point x="31" y="431" type="curve" smooth="yes"/>
      <point x="31" y="468"/>
      <point x="43" y="498"/>
      <point x="67" y="522" type="curve" smooth="yes"/>
      <point x="91" y="545"/>
      <point x="122" y="557"/>
      <point x="162" y="557" type="curve" smooth="yes"/>
      <point x="202" y="557"/>
      <point x="234" y="546"/>
      <point x="258" y="523" type="curve" smooth="yes"/>
      <point x="282" y="501"/>
      <point x="294" y="471"/>
      <point x="294" y="434" type="curve" smooth="yes"/>
      <point x="294" y="395"/>
      <point x="282" y="365"/>
      <point x="258" y="342" type="curve" smooth="yes"/>
      <point x="235" y="319"/>
      <point x="203" y="307"/>
    </contour>
    <contour>
      <point x="163" y="495" type="curve" smooth="yes"/>
      <point x="121" y="495"/>
      <point x="96" y="471"/>
      <point x="96" y="430" type="curve" smooth="yes"/>
      <point x="96" y="395"/>
      <point x="120" y="369"/>
      <point x="161" y="369" type="curve" smooth="yes"/>
      <point x="203" y="369"/>
      <point x="229" y="394"/>
      <point x="229" y="433" type="curve" smooth="yes"/>
      <point x="229" y="470"/>
      <point x="204" y="495"/>
    </contour>
    <contour>
      <point x="163" y="0" type="curve" smooth="yes"/>
      <point x="122" y="0"/>
      <point x="90" y="11"/>
      <point x="66" y="34" type="curve" smooth="yes"/>
      <point x="43" y="56"/>
      <point x="31" y="86"/>
      <point x="31" y="124" type="curve" smooth="yes"/>
      <point x="31" y="160"/>
      <point x="43" y="191"/>
      <point x="67" y="214" type="curve" smooth="yes"/>
      <point x="91" y="238"/>
      <point x="123" y="250"/>
      <point x="162" y="250" type="curve" smooth="yes"/>
      <point x="202" y="250"/>
      <point x="234" y="238"/>
      <point x="258" y="216" type="curve" smooth="yes"/>
      <point x="282" y="193"/>
      <point x="294" y="164"/>
      <point x="294" y="127" type="curve" smooth="yes"/>
      <point x="294" y="88"/>
      <point x="282" y="57"/>
      <point x="258" y="34" type="curve" smooth="yes"/>
      <point x="234" y="11"/>
      <point x="203" y="0"/>
    </contour>
    <contour>
      <point x="163" y="188" type="curve" smooth="yes"/>
      <point x="122" y="188"/>
      <point x="96" y="165"/>
      <point x="96" y="122" type="curve" smooth="yes"/>
      <point x="96" y="88"/>
      <point x="120" y="62"/>
      <point x="161" y="62" type="curve" smooth="yes"/>
      <point x="202" y="62"/>
      <point x="229" y="86"/>
      <point x="229" y="126" type="curve" smooth="yes"/>
      <point x="229" y="162"/>
      <point x="203" y="188"/>
    </contour>
  </outline>
</glyph>
<glyph name="uni0D85" format="1">
  <advance width="911"/>
  <unicode hex="0D85"/>
  <outline>
    <contour>
      <point x="752" y="534" type="line" smooth="yes"/>
      <point x="752" y="561"/>
      <point x="765" y="572"/>
      <point x="779" y="572" type="curve" smooth="yes"/>
      <point x="809" y="572"/>
      <point x="816" y="545"/>
      <point x="803" y="525" type="curve"/>
      <point x="891" y="499" type="line"/>
      <point x="905" y="547"/>
      <point x="902" y="591"/>
      <point x="866" y="627" type="curve" smooth="yes"/>
      <point x="852" y="641"/>
      <point x="821" y="660"/>
      <point x="779" y="660" type="curve" smooth="yes"/>
      <point x="706" y="660"/>
      <point x="657" y="616"/>
      <point x="657" y="534" type="curve" smooth="yes"/>
      <point x="657" y="424" type="line"/>
      <point x="646" y="427"/>
      <point x="625" y="429"/>
      <point x="589" y="429" type="curve"/>
      <point x="589" y="529" type="line" smooth="yes"/>
      <point x="589" y="624"/>
      <point x="506" y="708"/>
      <point x="363" y="708" type="curve" smooth="yes"/>
      <point x="259" y="708"/>
      <point x="173" y="658"/>
      <point x="173" y="562" type="curve" smooth="yes"/>
      <point x="173" y="498"/>
      <point x="218" y="438"/>
      <point x="304" y="438" type="curve" smooth="yes"/>
      <point x="382" y="438"/>
      <point x="429" y="495"/>
      <point x="429" y="557" type="curve" smooth="yes"/>
      <point x="429" y="583"/>
      <point x="418" y="615"/>
      <point x="401" y="626" type="curve"/>
      <point x="476" y="616"/>
      <point x="499" y="562"/>
      <point x="499" y="529" type="curve" smooth="yes"/>
      <point x="499" y="429" type="line"/>
      <point x="411" y="429"/>
      <point x="288" y="416"/>
      <point x="227" y="394" type="curve" smooth="yes"/>
      <point x="98" y="347"/>
      <point x="46" y="258"/>
      <point x="46" y="197" type="curve" smooth="yes"/>
      <point x="46" y="4"/>
      <point x="287" y="-20"/>
      <point x="440" y="-20" type="curve" smooth="yes"/>
      <point x="558" y="-20"/>
      <point x="589" y="72"/>
      <point x="589" y="131" type="curve" smooth="yes"/>
      <point x="589" y="342" type="line"/>
      <point x="615" y="342"/>
      <point x="647" y="340"/>
      <point x="657" y="335" type="curve"/>
      <point x="657" y="-250" type="line"/>
      <point x="752" y="-230" type="line"/>
    </contour>
    <contour>
      <point x="499" y="136" type="line" smooth="yes"/>
      <point x="499" y="115"/>
      <point x="495" y="66"/>
      <point x="438" y="66" type="curve" smooth="yes"/>
      <point x="343" y="66"/>
      <point x="147" y="109"/>
      <point x="147" y="203" type="curve" smooth="yes"/>
      <point x="147" y="320"/>
      <point x="367" y="341"/>
      <point x="499" y="342" type="curve"/>
    </contour>
    <contour>
      <point x="262" y="556" type="curve" smooth="yes"/>
      <point x="262" y="584"/>
      <point x="284" y="606"/>
      <point x="312" y="606" type="curve" smooth="yes"/>
      <point x="340" y="606"/>
      <point x="362" y="584"/>
      <point x="362" y="556" type="curve" smooth="yes"/>
      <point x="362" y="528"/>
      <point x="340" y="506"/>
      <point x="312" y="506" type="curve" smooth="yes"/>
      <point x="284" y="506"/>
      <point x="262" y="528"/>
    </contour>
  </outline>
</glyph>
<glyph name="uni0D8A" format="1">
  <advance width="1043"/>
  <unicode hex="0D8A"/>
  <outline>
    <contour>
      <point x="896" y="-89" type="curve" smooth="yes"/>
      <point x="868" y="-150"/>
      <point x="800" y="-193"/>
      <point x="731" y="-193" type="curve" smooth="yes"/>
      <point x="630" y="-193"/>
      <point x="552" y="-112"/>
      <point x="552" y="-18" type="curve"/>
      <point x="553" y="91"/>
      <point x="634" y="156"/>
      <point x="731" y="156" type="curve"/>
      <point x="820" y="156"/>
      <point x="911" y="81"/>
      <point x="911" y="-18" type="curve" smooth="yes"/>
      <point x="911" y="-42"/>
      <point x="906" y="-67"/>
    </contour>
    <contour>
      <point x="738" y="250" type="curve" smooth="yes"/>
      <point x="712" y="250"/>
      <point x="675" y="247"/>
      <point x="625" y="224" type="curve"/>
      <point x="645" y="270"/>
      <point x="712" y="418"/>
      <point x="718" y="627" type="curve"/>
      <point x="806" y="627" type="line"/>
      <point x="819" y="722" type="line"/>
      <point x="209" y="722" type="line"/>
      <point x="137" y="722"/>
      <point x="71" y="669"/>
      <point x="58" y="592" type="curve" smooth="yes"/>
      <point x="55" y="573"/>
      <point x="54" y="560"/>
      <point x="54" y="540" type="curve" smooth="yes"/>
      <point x="54" y="-17" type="line"/>
      <point x="155" y="0" type="line"/>
      <point x="155" y="540" type="line"/>
      <point x="155" y="577"/>
      <point x="163" y="622"/>
      <point x="212" y="628" type="curve"/>
      <point x="628" y="628" type="line"/>
      <point x="620" y="472"/>
      <point x="571" y="319"/>
      <point x="520" y="218" type="curve" smooth="yes"/>
      <point x="469" y="117"/>
      <point x="452" y="78"/>
      <point x="450" y="-6" type="curve"/>
      <point x="450" y="-14" type="line"/>
      <point x="450" y="-162"/>
      <point x="563" y="-287"/>
      <point x="735" y="-287" type="curve"/>
      <point x="881" y="-286"/>
      <point x="1006" y="-180"/>
      <point x="1006" y="-16" type="curve" smooth="yes"/>
      <point x="1006" y="132"/>
      <point x="891" y="250"/>
    </contour>
    <contour>
      <point x="384" y="484" type="curve" smooth="yes"/>
      <point x="384" y="453"/>
      <point x="408" y="429"/>
      <point x="439" y="429" type="curve" smooth="yes"/>
      <point x="470" y="429"/>
      <point x="495" y="453"/>
      <point x="495" y="484" type="curve" smooth="yes"/>
      <point x="495" y="515"/>
      <point x="470" y="540"/>
      <point x="439" y="540" type="curve" smooth="yes"/>
      <point x="408" y="540"/>
      <point x="384" y="515"/>
    </contour>
    <contour>
      <point x="819" y="484" type="curve" smooth="yes"/>
      <point x="819" y="453"/>
      <point x="843" y="429"/>
      <point x="874" y="429" type="curve" smooth="yes"/>
      <point x="905" y="429"/>
      <point x="930" y="453"/>
      <point x="930" y="484" type="curve" smooth="yes"/>
      <point x="930" y="515"/>
      <point x="905" y="540"/>
      <point x="874" y="540" type="curve" smooth="yes"/>
      <point x="843" y="540"/>
      <point x="819" y="515"/>
    </contour>
  </outline>
</glyph>
<glyph name="uni0D8B" format="1">
  <advance width="913"/>
  <unicode hex="0D8B"/>
  <outline>
    <contour>
      <point x="390" y="553" type="curve"/>
      <point x="484" y="524"/>
      <point x="516" y="437"/>
      <point x="516" y="390" type="curve" smooth="yes"/>
      <point x="516" y="312"/>
      <point x="460" y="274"/>
      <point x="333" y="248" type="curve"/>
      <point x="329" y="248" type="line"/>
      <point x="244" y="232"/>
      <point x="158" y="203"/>
      <point x="110" y="147" type="curve" smooth="yes"/>
      <point x="77" y="107"/>
      <point x="58" y="54"/>
      <point x="58" y="2" type="curve" smooth="yes"/>
      <point x="58" y="-170"/>
      <point x="221" y="-296"/>
      <point x="450" y="-296" type="curve" smooth="yes"/>
      <point x="659" y="-296"/>
      <point x="868" y="-215"/>
      <point x="1024" y="-75" type="curve" smooth="yes"/>
      <point x="1027" y="-73" type="line"/>
      <point x="925" y="-20" type="line"/>
      <point x="789" y="-143"/>
      <point x="635" y="-194"/>
      <point x="452" y="-194" type="curve" smooth="yes"/>
      <point x="280" y="-194"/>
      <point x="160" y="-114"/>
      <point x="160" y="-1" type="curve" smooth="yes"/>
      <point x="160" y="57"/>
      <point x="191" y="101"/>
      <point x="256" y="125" type="curve" smooth="yes"/>
      <point x="285" y="135"/>
      <point x="316" y="141"/>
      <point x="349" y="148" type="curve"/>
      <point x="354" y="148" type="line"/>
      <point x="386" y="155"/>
      <point x="427" y="164"/>
      <point x="466" y="180" type="curve" smooth="yes"/>
      <point x="565" y="219"/>
      <point x="618" y="296"/>
      <point x="618" y="389" type="curve" smooth="yes"/>
      <point x="618" y="524"/>
      <point x="497" y="635"/>
      <point x="352" y="635" type="curve"/>
      <point x="248" y="635"/>
      <point x="162" y="585"/>
      <point x="162" y="489" type="curve" smooth="yes"/>
      <point x="162" y="425"/>
      <point x="207" y="365"/>
      <point x="293" y="365" type="curve" smooth="yes"/>
      <point x="371" y="365"/>
      <point x="418" y="422"/>
      <point x="418" y="484" type="curve" smooth="yes"/>
      <point x="418" y="510"/>
      <point x="407" y="542"/>
    </contour>
    <contour>
      <point x="251" y="483" type="curve" smooth="yes"/>
      <point x="251" y="511"/>
      <point x="273" y="533"/>
      <point x="301" y="533" type="curve" smooth="yes"/>
      <point x="329" y="533"/>
      <point x="351" y="511"/>
      <point x="351" y="483" type="curve" smooth="yes"/>
      <point x="351" y="455"/>
      <point x="329" y="433"/>
      <point x="301" y="433" type="curve" smooth="yes"/>
      <point x="273" y="433"/>
      <point x="251" y="455"/>
    </contour>
  </outline>
</glyph>
<glyph name="uni0D8D" format="1">
  <advance width="1290"/>
  <unicode hex="0D8D"/>
  <outline>
    <contour>
      <point x="417" y="169" type="line"/>
      <point x="381" y="169" type="line"/>
      <point x="381" y="63"/>
      <point x="294" y="73"/>
      <point x="264" y="73" type="curve" smooth="yes"/>
      <point x="210" y="73"/>
      <point x="122" y="111"/>
      <point x="122" y="218" type="curve" smooth="yes"/>
      <point x="122" y="359"/>
      <point x="222" y="380"/>
      <point x="281" y="382" type="curve" smooth="yes"/>
      <point x="381" y="385" type="line"/>
      <point x="381" y="432" type="line" smooth="yes"/>
      <point x="381" y="553"/>
      <point x="320" y="645"/>
      <point x="196" y="645" type="curve" smooth="yes"/>
      <point x="40" y="645"/>
      <point x="13" y="514"/>
      <point x="26" y="454" type="curve"/>
      <point x="122" y="470" type="line"/>
      <point x="119" y="509"/>
      <point x="132" y="551"/>
      <point x="197" y="551" type="curve" smooth="yes"/>
      <point x="234" y="551"/>
      <point x="269" y="530"/>
      <point x="272" y="470" type="curve"/>
      <point x="122" y="470"/>
      <point x="21" y="391"/>
      <point x="21" y="214" type="curve"/>
      <point x="20" y="67"/>
      <point x="122" y="-20"/>
      <point x="264" y="-20" type="curve"/>
      <point x="312" y="-20"/>
      <point x="382" y="-20"/>
      <point x="417" y="41" type="curve"/>
      <point x="454" y="-20"/>
      <point x="538" y="-20"/>
      <point x="572" y="-20" type="curve" smooth="yes"/>
      <point x="713" y="-20"/>
      <point x="814" y="67"/>
      <point x="813" y="214" type="curve"/>
      <point x="813" y="391"/>
      <point x="712" y="470"/>
      <point x="563" y="470" type="curve"/>
      <point x="566" y="530"/>
      <point x="601" y="551"/>
      <point x="638" y="551" type="curve" smooth="yes"/>
      <point x="702" y="551"/>
      <point x="715" y="509"/>
      <point x="712" y="470" type="curve"/>
      <point x="808" y="454" type="line"/>
      <point x="821" y="514"/>
      <point x="794" y="645"/>
      <point x="639" y="645" type="curve" smooth="yes"/>
      <point x="514" y="645"/>
      <point x="454" y="552"/>
      <point x="454" y="432" type="curve" smooth="yes"/>
      <point x="454" y="385" type="line"/>
      <point x="553" y="381" type="line" smooth="yes"/>
      <point x="613" y="379"/>
      <point x="712" y="358"/>
      <point x="712" y="218" type="curve" smooth="yes"/>
      <point x="712" y="110"/>
      <point x="624" y="72"/>
      <point x="571" y="72" type="curve" smooth="yes"/>
      <point x="548" y="72"/>
      <point x="454" y="64"/>
      <point x="454" y="169" type="curve"/>
    </contour>
    <component base="uni0DD8" xOffset="831"/>
  </outline>
</glyph>
<glyph name="uni0D8F" format="1">
  <advance width="1246"/>
  <unicode hex="0D8F"/>
  <outline>
    <contour>
      <point x="916" y="225" type="curve" smooth="yes"/>
      <point x="916" y="366"/>
      <point x="815" y="389"/>
      <point x="757" y="389" type="curve" smooth="yes"/>
      <point x="657" y="389" type="line"/>
      <point x="657" y="439" type="line" smooth="yes"/>
      <point x="657" y="560"/>
      <point x="717" y="656"/>
      <point x="841" y="656" type="curve" smooth="yes"/>
      <point x="1071" y="656"/>
      <point x="1205" y="483"/>
      <point x="1205" y="256" type="curve" smooth="yes"/>
      <point x="1205" y="154"/>
      <point x="1179" y="90"/>
      <point x="1174" y="71" type="curve"/>
      <point x="1082" y="85" type="line"/>
      <point x="1097" y="127"/>
      <point x="1110" y="190"/>
      <point x="1110" y="254" type="curve" smooth="yes"/>
      <point x="1110" y="375"/>
      <point x="1075" y="448"/>
      <point x="1015" y="489" type="curve"/>
      <point x="1015" y="476"/>
      <point x="1014" y="471"/>
      <point x="1012" y="461" type="curve"/>
      <point x="916" y="477" type="line"/>
      <point x="916" y="487" type="line"/>
      <point x="916" y="523"/>
      <point x="900" y="558"/>
      <point x="841" y="558" type="curve" smooth="yes"/>
      <point x="804" y="558"/>
      <point x="769" y="537"/>
      <point x="766" y="477" type="curve"/>
      <point x="917" y="477"/>
      <point x="1017" y="397"/>
      <point x="1017" y="219" type="curve" smooth="yes"/>
      <point x="1017" y="73"/>
      <point x="916" y="-13"/>
      <point x="776" y="-13" type="curve"/>
      <point x="468" y="-13" type="line"/>
      <point x="325" y="-13"/>
      <point x="225" y="74"/>
      <point x="225" y="221" type="curve" smooth="yes"/>
      <point x="225" y="398"/>
      <point x="326" y="477"/>
      <point x="476" y="477" type="curve"/>
      <point x="473" y="537"/>
      <point x="438" y="558"/>
      <point x="401" y="558" type="curve" smooth="yes"/>
      <point x="341" y="558"/>
      <point x="325" y="523"/>
      <point x="325" y="487" type="curve" smooth="yes"/>
      <point x="325" y="484"/>
      <point x="326" y="480"/>
      <point x="326" y="477" type="curve"/>
      <point x="230" y="461" type="line"/>
      <point x="228" y="471"/>
      <point x="227" y="476"/>
      <point x="227" y="489" type="curve"/>
      <point x="166" y="448"/>
      <point x="132" y="375"/>
      <point x="132" y="254" type="curve" smooth="yes"/>
      <point x="132" y="190"/>
      <point x="145" y="127"/>
      <point x="160" y="85" type="curve"/>
      <point x="68" y="71" type="line"/>
      <point x="47" y="125"/>
      <point x="36" y="184"/>
      <point x="36" y="244" type="curve" smooth="yes"/>
      <point x="36" y="448"/>
      <point x="159" y="656"/>
      <point x="401" y="656" type="curve" smooth="yes"/>
      <point x="525" y="656"/>
      <point x="585" y="560"/>
      <point x="585" y="439" type="curve" smooth="yes"/>
      <point x="585" y="392" type="line"/>
      <point x="485" y="392" type="line" smooth="yes"/>
      <point x="426" y="387"/>
      <point x="326" y="366"/>
      <point x="326" y="225" type="curve" smooth="yes"/>
      <point x="326" y="118"/>
      <point x="414" y="80"/>
      <point x="468" y="80" type="curve" smooth="yes"/>
      <point x="775" y="80" type="line"/>
      <point x="830" y="80"/>
      <point x="916" y="118"/>
    </contour>
  </outline>
</glyph>
<glyph name="uni0D94" format="1">
  <advance width="907"/>
  <unicode hex="0D94"/>
  <outline>
    <contour>
      <point x="849" y="625" type="curve"/>
      <point x="824" y="675"/>
      <point x="784" y="719"/>
      <point x="734" y="753" type="curve" smooth="yes"/>
      <point x="690" y="783"/>
      <point x="639" y="805"/>
      <point x="582" y="818" type="curve" smooth="yes"/>
      <point x="453" y="848"/>
      <point x="319" y="828"/>
      <point x="215" y="762" type="curve" smooth="yes"/>
      <point x="147" y="720"/>
      <point x="90" y="656"/>
      <point x="56" y="583" type="curve"/>
      <point x="146" y="541" type="line"/>
      <point x="172" y="596"/>
      <point x="216" y="646"/>
      <point x="268" y="678" type="curve" smooth="yes"/>
      <point x="350" y="730"/>
      <point x="456" y="745"/>
      <point x="559" y="722" type="curve"/>
      <point x="604" y="711"/>
      <point x="644" y="693"/>
      <point x="678" y="671" type="curve" smooth="yes"/>
      <point x="714" y="647"/>
      <point x="742" y="615"/>
      <point x="759" y="581" type="curve"/>
      <point x="773" y="554"/>
      <point x="779" y="526"/>
      <point x="777" y="502" type="curve" smooth="yes"/>
      <point x="775" y="477"/>
      <point x="764" y="454"/>
      <point x="748" y="440" type="curve" smooth="yes"/>
      <point x="740" y="433"/>
      <point x="730" y="428"/>
      <point x="721" y="427" type="curve" smooth="yes"/>
      <point x="712" y="425"/>
      <point x="702" y="425"/>
      <point x="694" y="427" type="curve" smooth="yes"/>
      <point x="686" y="430"/>
      <point x="679" y="435"/>
      <point x="674" y="441" type="curve" smooth="yes"/>
      <point x="669" y="447"/>
      <point x="667" y="454"/>
      <point x="667" y="461" type="curve" smooth="yes"/>
      <point x="667" y="472"/>
      <point x="673" y="478"/>
      <point x="680" y="485" type="curve"/>
      <point x="612" y="558" type="line"/>
      <point x="606" y="552"/>
      <point x="600" y="546"/>
      <point x="595" y="539" type="curve"/>
      <point x="581" y="523"/>
      <point x="570" y="505"/>
      <point x="561" y="487" type="curve" smooth="yes"/>
      <point x="522" y="410"/>
      <point x="525" y="317"/>
      <point x="566" y="242" type="curve" smooth="yes"/>
      <point x="588" y="203"/>
      <point x="620" y="171"/>
      <point x="658" y="148" type="curve"/>
      <point x="654" y="143"/>
      <point x="650" y="139"/>
      <point x="646" y="135" type="curve" smooth="yes"/>
      <point x="631" y="119"/>
      <point x="618" y="105"/>
      <point x="603" y="97" type="curve" smooth="yes"/>
      <point x="585" y="87"/>
      <point x="560" y="86"/>
      <point x="538" y="95" type="curve"/>
      <point x="509" y="110"/>
      <point x="488" y="127"/>
      <point x="473" y="151" type="curve"/>
      <point x="387" y="150" type="line"/>
      <point x="358" y="104"/>
      <point x="305" y="82"/>
      <point x="256" y="91" type="curve"/>
      <point x="219" y="99"/>
      <point x="185" y="123"/>
      <point x="165" y="158" type="curve" smooth="yes"/>
      <point x="145" y="192"/>
      <point x="136" y="239"/>
      <point x="142" y="281" type="curve" smooth="yes"/>
      <point x="151" y="333"/>
      <point x="181" y="379"/>
      <point x="224" y="404" type="curve" smooth="yes"/>
      <point x="246" y="416"/>
      <point x="272" y="421"/>
      <point x="295" y="417" type="curve"/>
      <point x="328" y="408"/>
      <point x="356" y="387"/>
      <point x="359" y="354" type="curve" smooth="yes"/>
      <point x="363" y="321"/>
      <point x="334" y="283"/>
      <point x="301" y="282" type="curve" smooth="yes"/>
      <point x="265" y="280"/>
      <point x="246" y="297"/>
      <point x="240" y="321" type="curve"/>
      <point x="160" y="284" type="line"/>
      <point x="183" y="210"/>
      <point x="252" y="187"/>
      <point x="307" y="191" type="curve" smooth="yes"/>
      <point x="337" y="193"/>
      <point x="365" y="202"/>
      <point x="389" y="219" type="curve" smooth="yes"/>
      <point x="415" y="236"/>
      <point x="435" y="259"/>
      <point x="446" y="287" type="curve" smooth="yes"/>
      <point x="457" y="311"/>
      <point x="461" y="338"/>
      <point x="458" y="364" type="curve" smooth="yes"/>
      <point x="456" y="390"/>
      <point x="447" y="415"/>
      <point x="433" y="436" type="curve"/>
      <point x="406" y="478"/>
      <point x="362" y="506"/>
      <point x="312" y="515" type="curve"/>
      <point x="267" y="523"/>
      <point x="218" y="514"/>
      <point x="175" y="490" type="curve"/>
      <point x="138" y="469"/>
      <point x="105" y="437"/>
      <point x="82" y="397" type="curve" smooth="yes"/>
      <point x="63" y="365"/>
      <point x="51" y="330"/>
      <point x="45" y="293" type="curve"/>
      <point x="35" y="227"/>
      <point x="47" y="161"/>
      <point x="79" y="107" type="curve" smooth="yes"/>
      <point x="114" y="49"/>
      <point x="173" y="7"/>
      <point x="236" y="-6" type="curve"/>
      <point x="282" y="-15"/>
      <point x="330" y="-10"/>
      <point x="372" y="9" type="curve"/>
      <point x="393" y="18"/>
      <point x="413" y="32"/>
      <point x="430" y="47" type="curve"/>
      <point x="452" y="27"/>
      <point x="477" y="11"/>
      <point x="503" y="1" type="curve"/>
      <point x="524" y="-6"/>
      <point x="547" y="-10"/>
      <point x="568" y="-10" type="curve" smooth="yes"/>
      <point x="598" y="-10"/>
      <point x="626" y="-4"/>
      <point x="650" y="9" type="curve" smooth="yes"/>
      <point x="679" y="25"/>
      <point x="700" y="47"/>
      <point x="718" y="66" type="curve"/>
      <point x="729" y="78"/>
      <point x="740" y="89"/>
      <point x="751" y="98" type="curve" smooth="yes"/>
      <point x="760" y="104"/>
      <point x="768" y="109"/>
      <point x="778" y="110" type="curve"/>
      <point x="780" y="209" type="line"/>
      <point x="728" y="213"/>
      <point x="679" y="245"/>
      <point x="653" y="291" type="curve" smooth="yes"/>
      <point x="644" y="308"/>
      <point x="638" y="326"/>
      <point x="635" y="346" type="curve"/>
      <point x="644" y="341"/>
      <point x="653" y="336"/>
      <point x="663" y="333" type="curve" smooth="yes"/>
      <point x="688" y="324"/>
      <point x="716" y="324"/>
      <point x="743" y="329" type="curve"/>
      <point x="768" y="335"/>
      <point x="792" y="347"/>
      <point x="812" y="364" type="curve" smooth="yes"/>
      <point x="849" y="396"/>
      <point x="872" y="442"/>
      <point x="876" y="493" type="curve"/>
      <point x="876" y="493"/>
      <point x="877" y="566"/>
    </contour>
  </outline>
</glyph>
<glyph name="uni0D9A" format="1">
  <advance width="1076"/>
  <unicode hex="0D9A"/>
  <outline>
    <contour>
      <point x="-42" y="50" type="move" name="cursive0"/>
    </contour>
    <contour>
      <point x="-42" y="50" type="move" name="_cursive0"/>
    </contour>
    <contour>
      <point x="-39" y="50" type="move" name="cursive0"/>
    </contour>
    <contour>
      <point x="-39" y="50" type="move" name="_cursive0"/>
    </contour>
    <contour>
      <point x="-39" y="50" type="move" name="cursive0"/>
    </contour>
    <contour>
      <point x="-39" y="50" type="move" name="_cursive0"/>
    </contour>
    <contour>
      <point x="-39" y="50" type="move" name="cursive0"/>
    </contour>
    <contour>
      <point x="-39" y="50" type="move" name="_cursive0"/>
    </contour>
    <contour>
      <point x="-39" y="50" type="move" name="cursive0"/>
    </contour>
    <contour>
      <point x="-39" y="50" type="move" name="_cursive0"/>
    </contour>
    <contour>
      <point x="-39" y="50" type="move" name="cursive0"/>
    </contour>
    <contour>
      <point x="-39" y="50" type="move" name="_cursive0"/>
    </contour>
    <contour>
      <point x="-39" y="50" type="move" name="cursive0"/>
    </contour>
    <contour>
      <point x="-39" y="50" type="move" name="_cursive0"/>
    </contour>
    <contour>
      <point x="-39" y="50" type="move" name="cursive0"/>
    </contour>
    <contour>
      <point x="-39" y="50" type="move" name="_cursive0"/>
    </contour>
    <contour>
      <point x="-39" y="50" type="move" name="cursive0"/>
    </contour>
    <contour>
      <point x="-39" y="50" type="move" name="_cursive0"/>
    </contour>
    <contour>
      <point x="-39" y="50" type="move" name="cursive0"/>
    </contour>
    <contour>
      <point x="-39" y="50" type="move" name="_cursive0"/>
    </contour>
    <contour>
      <point x="-39" y="50" type="move" name="cursive0"/>
    </contour>
    <contour>
      <point x="-39" y="50" type="move" name="_cursive0"/>
    </contour>
    <contour>
      <point x="4" y="50" type="move" name="cursive0"/>
    </contour>
    <contour>
      <point x="4" y="50" type="move" name="_cursive0"/>
    </contour>
    <contour>
      <point x="486" y="79" type="curve" smooth="yes"/>
      <point x="446" y="79"/>
      <point x="433" y="107"/>
      <point x="427" y="122" type="curve"/>
      <point x="427" y="126"/>
      <point x="427" y="128"/>
      <point x="426" y="129" type="curve"/>
      <point x="336" y="129" type="line"/>
      <point x="336" y="124" type="line" smooth="yes"/>
      <point x="335" y="95"/>
      <point x="293" y="80"/>
      <point x="267" y="80" type="curve" smooth="yes"/>
      <point x="189" y="80"/>
      <point x="118" y="129"/>
      <point x="118" y="202" type="curve" smooth="yes"/>
      <point x="118" y="252"/>
      <point x="158" y="299"/>
      <point x="230" y="322" type="curve" smooth="yes"/>
      <point x="285" y="339"/>
      <point x="351" y="337"/>
      <point x="416" y="338" type="curve"/>
      <point x="543" y="339"/>
      <point x="548" y="339"/>
      <point x="554" y="339" type="curve"/>
      <point x="554" y="157" type="line" smooth="yes"/>
      <point x="554" y="89"/>
      <point x="512" y="79"/>
    </contour>
    <contour>
      <point x="1046" y="218" type="curve"/>
      <point x="1033" y="347"/>
      <point x="914" y="433"/>
      <point x="759" y="433" type="curve" smooth="yes"/>
      <point x="648" y="433" type="line"/>
      <point x="648" y="450"/>
      <point x="648" y="458"/>
      <point x="648" y="458" type="curve"/>
      <point x="648" y="528"/>
      <point x="686" y="598"/>
      <point x="713" y="672" type="curve"/>
      <point x="739" y="731" type="line"/>
      <point x="408" y="731" type="line" smooth="yes"/>
      <point x="305" y="731"/>
      <point x="225" y="686"/>
      <point x="225" y="587" type="curve" smooth="yes"/>
      <point x="225" y="513"/>
      <point x="285" y="455"/>
      <point x="357" y="455" type="curve" smooth="yes"/>
      <point x="433" y="455"/>
      <point x="467" y="481"/>
      <point x="487" y="538" type="curve"/>
      <point x="405" y="576" type="line"/>
      <point x="397" y="554"/>
      <point x="381" y="545"/>
      <point x="361" y="545" type="curve" smooth="yes"/>
      <point x="336" y="545"/>
      <point x="317" y="564"/>
      <point x="317" y="587" type="curve" smooth="yes"/>
      <point x="317" y="636"/>
      <point x="372" y="641"/>
      <point x="425" y="641" type="curve"/>
      <point x="467" y="641" type="line" smooth="yes"/>
      <point x="506" y="641"/>
      <point x="554" y="641"/>
      <point x="600" y="642" type="curve"/>
      <point x="571" y="573"/>
      <point x="554" y="511"/>
      <point x="554" y="433" type="curve"/>
      <point x="415" y="433" type="line" smooth="yes"/>
      <point x="312" y="433"/>
      <point x="183" y="429"/>
      <point x="96" y="353" type="curve" smooth="yes"/>
      <point x="52" y="314"/>
      <point x="26" y="259"/>
      <point x="26" y="202" type="curve" smooth="yes"/>
      <point x="26" y="86"/>
      <point x="131" y="-13"/>
      <point x="268" y="-13" type="curve" smooth="yes"/>
      <point x="308" y="-13"/>
      <point x="348" y="-1"/>
      <point x="381" y="28" type="curve"/>
      <point x="405" y="4"/>
      <point x="440" y="-13"/>
      <point x="486" y="-13" type="curve" smooth="yes"/>
      <point x="566" y="-13"/>
      <point x="646" y="40"/>
      <point x="646" y="157" type="curve" smooth="yes"/>
      <point x="646" y="190"/>
      <point x="649" y="269"/>
      <point x="649" y="338" type="curve"/>
      <point x="686" y="338" type="line"/>
      <point x="781" y="338"/>
      <point x="877" y="337"/>
      <point x="925" y="275" type="curve" smooth="yes"/>
      <point x="944" y="251"/>
      <point x="954" y="224"/>
      <point x="954" y="197" type="curve" smooth="yes"/>
      <point x="954" y="138"/>
      <point x="905" y="80"/>
      <point x="838" y="80" type="curve" smooth="yes"/>
      <point x="804" y="80"/>
      <point x="769" y="96"/>
      <point x="747" y="124" type="curve"/>
      <point x="674" y="67" type="line"/>
      <point x="712" y="18"/>
      <point x="773" y="-13"/>
      <point x="837" y="-13" type="curve" smooth="yes"/>
      <point x="947" y="-13"/>
      <point x="1047" y="77"/>
      <point x="1047" y="197" type="curve" smooth="yes"/>
      <point x="1047" y="205"/>
      <point x="1046" y="212"/>
    </contour>
  </outline>
</glyph>
<glyph name="uni0D9B" format="1">
  <advance width="1014"/>
  <unicode hex="0D9B"/>
  <outline>
    <contour>
      <point x="-44" y="0" type="move" name="cursive1"/>
    </contour>
    <contour>
      <point x="-44" y="0" type="move" name="_cursive1"/>
    </contour>
    <contour>
      <point x="-44" y="0" type="move" name="cursive1"/>
    </contour>
    <contour>
      <point x="-44" y="0" type="move" name="_cursive1"/>
    </contour>
    <contour>
      <point x="-44" y="0" type="move" name="cursive1"/>
    </contour>
    <contour>
      <point x="-44" y="0" type="move" name="_cursive1"/>
    </contour>
    <contour>
      <point x="-44" y="0" type="move" name="cursive1"/>
    </contour>
    <contour>
      <point x="-44" y="0" type="move" name="_cursive1"/>
    </contour>
    <contour>
      <point x="-44" y="0" type="move" name="cursive1"/>
    </contour>
    <contour>
      <point x="-44" y="0" type="move" name="_cursive1"/>
    </contour>
    <contour>
      <point x="-44" y="0" type="move" name="cursive1"/>
    </contour>
    <contour>
      <point x="-44" y="0" type="move" name="_cursive1"/>
    </contour>
    <contour>
      <point x="-44" y="0" type="move" name="cursive1"/>
    </contour>
    <contour>
      <point x="-44" y="0" type="move" name="_cursive1"/>
    </contour>
    <contour>
      <point x="-44" y="0" type="move" name="cursive1"/>
    </contour>
    <contour>
      <point x="-44" y="0" type="move" name="_cursive1"/>
    </contour>
    <contour>
      <point x="-44" y="0" type="move" name="cursive1"/>
    </contour>
    <contour>
      <point x="-44" y="0" type="move" name="_cursive1"/>
    </contour>
    <contour>
      <point x="-44" y="0" type="move" name="cursive1"/>
    </contour>
    <contour>
      <point x="-44" y="0" type="move" name="_cursive1"/>
    </contour>
    <contour>
      <point x="-44" y="0" type="move" name="cursive1"/>
    </contour>
    <contour>
      <point x="-44" y="0" type="move" name="_cursive1"/>
    </contour>
    <contour>
      <point x="0" y="0" type="move" name="cursive1"/>
    </contour>
    <contour>
      <point x="0" y="0" type="move" name="_cursive1"/>
    </contour>
    <component base="uni0D9A" xOffset="2"/>
  </outline>
</glyph>
<glyph name="uni0D9C" format="1">
  <advance width="1071"/>
  <unicode hex="0D9C"/>
  <outline>
    <contour>
      <point x="0" y="0" type="move" name="cursive2"/>
    </contour>
    <contour>
      <point x="0" y="0" type="move" name="_cursive2"/>
    </contour>
    <contour>
      <point x="0" y="0" type="move" name="cursive2"/>
    </contour>
    <contour>
      <point x="0" y="0" type="move" name="_cursive2"/>
    </contour>
    <contour>
      <point x="0" y="0" type="move" name="cursive2"/>
    </contour>
    <contour>
      <point x="0" y="0" type="move" name="_cursive2"/>
    </contour>
    <contour>
      <point x="0" y="0" type="move" name="cursive2"/>
    </contour>
    <contour>
      <point x="0" y="0" type="move" name="_cursive2"/>
    </contour>
    <contour>
      <point x="0" y="0" type="move" name="cursive2"/>
    </contour>
    <contour>
      <point x="0" y="0" type="move" name="_cursive2"/>
    </contour>
    <contour>
      <point x="0" y="0" type="move" name="cursive2"/>
    </contour>
    <contour>
      <point x="0" y="0" type="move" name="_cursive2"/>
    </contour>
    <contour>
      <point x="0" y="0" type="move" name="cursive2"/>
    </contour>
    <contour>
      <point x="0" y="0" type="move" name="_cursive2"/>
    </contour>
    <contour>
      <point x="0" y="0" type="move" name="cursive2"/>
    </contour>
    <contour>
      <point x="0" y="0" type="move" name="_cursive2"/>
    </contour>
    <contour>
      <point x="0" y="0" type="move" name="cursive2"/>
    </contour>
    <contour>
      <point x="0" y="0" type="move" name="_cursive2"/>
    </contour>
    <contour>
      <point x="0" y="0" type="move" name="cursive2"/>
    </contour>
    <contour>
      <point x="0" y="0" type="move" name="_cursive2"/>
    </contour>
    <contour>
      <point x="0" y="0" type="move" name="cursive2"/>
    </contour>
    <contour>
      <point x="0" y="0" type="move" name="_cursive2"/>
    </contour>
    <contour>
      <point x="0" y="0" type="move" name="cursive2"/>
    </contour>
    <contour>
      <point x="0" y="0" type="move" name="_cursive2"/>
    </contour>
    <contour>
      <point x="331" y="-4" type="curve" smooth="yes"/>
      <point x="187" y="-4"/>
      <point x="49" y="47"/>
      <point x="49" y="303" type="curve" smooth="yes"/>
      <point x="49" y="461"/>
      <point x="103" y="585"/>
      <point x="242" y="652" type="curve"/>
      <point x="340" y="606" type="line"/>
      <point x="253" y="564"/>
      <point x="147" y="505"/>
      <point x="147" y="291" type="curve" smooth="yes"/>
      <point x="147" y="186"/>
      <point x="223" y="89"/>
      <point x="319" y="86" type="curve" smooth="yes"/>
      <point x="463" y="82"/>
      <point x="480" y="291"/>
      <point x="508" y="373" type="curve" smooth="yes"/>
      <point x="531" y="442"/>
      <point x="599" y="633"/>
      <point x="784" y="628" type="curve" smooth="yes"/>
      <point x="928" y="624"/>
      <point x="986" y="524"/>
      <point x="986" y="328" type="curve" smooth="yes"/>
      <point x="986" y="121"/>
      <point x="913" y="19"/>
      <point x="858" y="-12" type="curve"/>
      <point x="778" y="46" type="line"/>
      <point x="856" y="98"/>
      <point x="886" y="185"/>
      <point x="886" y="340" type="curve" smooth="yes"/>
      <point x="886" y="439"/>
      <point x="844" y="528"/>
      <point x="780" y="528" type="curve" smooth="yes"/>
      <point x="722" y="528"/>
      <point x="661" y="450"/>
      <point x="626" y="341" type="curve" smooth="yes"/>
      <point x="584" y="210"/>
      <point x="554" y="-4"/>
    </contour>
  </outline>
</glyph>
<glyph name="uni0D9D" format="1">
  <advance width="1140"/>
  <unicode hex="0D9D"/>
  <outline>
    <contour>
      <point x="-141" y="0" type="move" name="cursive3"/>
    </contour>
    <contour>
      <point x="-141" y="0" type="move" name="_cursive3"/>
    </contour>
    <contour>
      <point x="0" y="0" type="move" name="cursive3"/>
    </contour>
    <contour>
      <point x="0" y="0" type="move" name="_cursive3"/>
    </contour>
    <contour>
      <point x="0" y="0" type="move" name="cursive3"/>
    </contour>
    <contour>
      <point x="0" y="0" type="move" name="_cursive3"/>
    </contour>
    <contour>
      <point x="0" y="0" type="move" name="cursive3"/>
    </contour>
    <contour>
      <point x="0" y="0" type="move" name="_cursive3"/>
    </contour>
    <contour>
      <point x="0" y="0" type="move" name="cursive3"/>
    </contour>
    <contour>
      <point x="0" y="0" type="move" name="_cursive3"/>
    </contour>
    <contour>
      <point x="0" y="0" type="move" name="cursive3"/>
    </contour>
    <contour>
      <point x="0" y="0" type="move" name="_cursive3"/>
    </contour>
    <contour>
      <point x="0" y="0" type="move" name="cursive3"/>
    </contour>
    <contour>
      <point x="0" y="0" type="move" name="_cursive3"/>
    </contour>
    <contour>
      <point x="0" y="0" type="move" name="cursive3"/>
    </contour>
    <contour>
      <point x="0" y="0" type="move" name="_cursive3"/>
    </contour>
    <contour>
      <point x="0" y="0" type="move" name="cursive3"/>
    </contour>
    <contour>
      <point x="0" y="0" type="move" name="_cursive3"/>
    </contour>
    <contour>
      <point x="0" y="0" type="move" name="cursive3"/>
    </contour>
    <contour>
      <point x="0" y="0" type="move" name="_cursive3"/>
    </contour>
    <contour>
      <point x="0" y="0" type="move" name="cursive3"/>
    </contour>
    <contour>
      <point x="0" y="0" type="move" name="_cursive3"/>
    </contour>
    <contour>
      <point x="0" y="0" type="move" name="cursive3"/>
    </contour>
    <contour>
      <point x="0" y="0" type="move" name="_cursive3"/>
    </contour>
    <component base="uni0D9C" xOffset="10"/>
  </outline>
</glyph>
<glyph name="uni0D9F" format="1">
  <advance width="1105"/>
  <unicode hex="0D9F"/>
  <outline>
    <contour>
      <point x="0" y="0" type="move" name="cursive5"/>
    </contour>
    <contour>
      <point x="0" y="0" type="move" name="_cursive5"/>
    </contour>
    <contour>
      <point x="0" y="0" type="move" name="cursive5"/>
    </contour>
    <contour>
      <point x="0" y="0" type="move" name="_cursive5"/>
    </contour>
    <contour>
      <point x="0" y="0" type="move" name="cursive5"/>
    </contour>
    <contour>
      <point x="0" y="0" type="move" name="_cursive5"/>
    </contour>
    <contour>
      <point x="0" y="0" type="move" name="cursive5"/>
    </contour>
    <contour>
      <point x="0" y="0" type="move" name="_cursive5"/>
    </contour>
    <contour>
      <point x="0" y="0" type="move" name="cursive5"/>
    </contour>
    <contour>
      <point x="0" y="0" type="move" name="_cursive5"/>
    </contour>
    <contour>
      <point x="0" y="0" type="move" name="cursive5"/>
    </contour>
    <contour>
      <point x="0" y="0" type="move" name="_cursive5"/>
    </contour>
    <contour>
      <point x="0" y="0" type="move" name="cursive5"/>
    </contour>
    <contour>
      <point x="0" y="0" type="move" name="_cursive5"/>
    </contour>
    <contour>
      <point x="0" y="0" type="move" name="cursive5"/>
    </contour>
    <contour>
      <point x="0" y="0" type="move" name="_cursive5"/>
    </contour>
    <contour>
      <point x="0" y="0" type="move" name="cursive5"/>
    </contour>
    <contour>
      <point x="0" y="0" type="move" name="_cursive5"/>
    </contour>
    <contour>
      <point x="0" y="0" type="move" name="cursive5"/>
    </contour>
    <contour>
      <point x="0" y="0" type="move" name="_cursive5"/>
    </contour>
    <contour>
      <point x="0" y="0" type="move" name="cursive5"/>
    </contour>
    <contour>
      <point x="0" y="0" type="move" name="_cursive5"/>
    </contour>
    <contour>
      <point x="0" y="0" type="move" name="cursive5"/>
    </contour>
    <contour>
      <point x="0" y="0" type="move" name="_cursive5"/>
    </contour>
    <component base="uni0D9C"/>
  </outline>
</glyph>
<glyph name="uni0DA2" format="1">
  <advance width="869"/>
  <unicode hex="0DA2"/>
  <outline>
    <contour>
      <point x="0" y="0" type="move" name="cursive8"/>
    </contour>
    <contour>
      <point x="0" y="0" type="move" name="_cursive8"/>
    </contour>
    <contour>
      <point x="0" y="0" type="move" name="cursive8"/>
    </contour>
    <contour>
      <point x="0" y="0" type="move" name="_cursive8"/>
    </contour>
    <contour>
      <point x="0" y="0" type="move" name="cursive8"/>
    </contour>
    <contour>
      <point x="0" y="0" type="move" name="_cursive8"/>
    </contour>
    <contour>
      <point x="0" y="0" type="move" name="cursive8"/>
    </contour>
    <contour>
      <point x="0" y="0" type="move" name="_cursive8"/>
    </contour>
    <contour>
      <point x="0" y="0" type="move" name="cursive8"/>
    </contour>
    <contour>
      <point x="0" y="0" type="move" name="_cursive8"/>
    </contour>
    <contour>
      <point x="0" y="0" type="move" name="cursive8"/>
    </contour>
    <contour>
      <point x="0" y="0" type="move" name="_cursive8"/>
    </contour>
    <contour>
      <point x="0" y="0" type="move" name="cursive8"/>
    </contour>
    <contour>
      <point x="0" y="0" type="move" name="_cursive8"/>
    </contour>
    <contour>
      <point x="0" y="0" type="move" name="cursive8"/>
    </contour>
    <contour>
      <point x="0" y="0" type="move" name="_cursive8"/>
    </contour>
    <contour>
      <point x="0" y="0" type="move" name="cursive8"/>
    </contour>
    <contour>
      <point x="0" y="0" type="move" name="_cursive8"/>
    </contour>
    <contour>
      <point x="0" y="0" type="move" name="cursive8"/>
    </contour>
    <contour>
      <point x="0" y="0" type="move" name="_cursive8"/>
    </contour>
    <contour>
      <point x="0" y="0" type="move" name="cursive8"/>
    </contour>
    <contour>
      <point x="0" y="0" type="move" name="_cursive8"/>
    </contour>
    <contour>
      <point x="0" y="0" type="move" name="cursive8"/>
    </contour>
    <contour>
      <point x="0" y="0" type="move" name="_cursive8"/>
    </contour>
    <contour>
      <point x="647" y="514" type="curve" smooth="yes"/>
      <point x="621" y="514"/>
      <point x="600" y="535"/>
      <point x="600" y="559" type="curve" smooth="yes"/>
      <point x="600" y="586"/>
      <point x="621" y="606"/>
      <point x="647" y="606" type="curve" smooth="yes"/>
      <point x="672" y="606"/>
      <point x="692" y="586"/>
      <point x="692" y="559" type="curve" smooth="yes"/>
      <point x="692" y="535"/>
      <point x="672" y="514"/>
    </contour>
    <contour>
      <point x="642" y="146" type="curve" smooth="yes"/>
      <point x="661" y="147"/>
      <point x="678" y="142"/>
      <point x="690" y="134" type="curve" smooth="yes"/>
      <point x="697" y="130"/>
      <point x="700" y="124"/>
      <point x="702" y="119" type="curve" smooth="yes"/>
      <point x="705" y="115"/>
      <point x="706" y="108"/>
      <point x="706" y="102" type="curve"/>
      <point x="705" y="99"/>
      <point x="704" y="95"/>
      <point x="700" y="90" type="curve"/>
      <point x="697" y="86"/>
      <point x="692" y="82"/>
      <point x="687" y="78" type="curve"/>
      <point x="675" y="72"/>
      <point x="659" y="70"/>
      <point x="644" y="74" type="curve"/>
      <point x="625" y="78"/>
      <point x="608" y="89"/>
      <point x="596" y="105" type="curve"/>
      <point x="590" y="110"/>
      <point x="587" y="118"/>
      <point x="583" y="127" type="curve"/>
      <point x="605" y="138"/>
      <point x="625" y="144"/>
    </contour>
    <contour>
      <point x="884" y="716" type="curve"/>
      <point x="886" y="814" type="line"/>
      <point x="848" y="816"/>
      <point x="811" y="812"/>
      <point x="775" y="805" type="curve" smooth="yes"/>
      <point x="716" y="795"/>
      <point x="669" y="776"/>
      <point x="630" y="748" type="curve"/>
      <point x="612" y="737"/>
      <point x="598" y="723"/>
      <point x="586" y="710" type="curve"/>
      <point x="530" y="710"/>
      <point x="476" y="688"/>
      <point x="433" y="651" type="curve" smooth="yes"/>
      <point x="424" y="644"/>
      <point x="415" y="634"/>
      <point x="408" y="624" type="curve"/>
      <point x="403" y="630"/>
      <point x="397" y="636"/>
      <point x="391" y="642" type="curve" smooth="yes"/>
      <point x="347" y="686"/>
      <point x="285" y="711"/>
      <point x="224" y="709" type="curve" smooth="yes"/>
      <point x="183" y="708"/>
      <point x="147" y="694"/>
      <point x="118" y="672" type="curve"/>
      <point x="82" y="647"/>
      <point x="59" y="606"/>
      <point x="57" y="566" type="curve" smooth="yes"/>
      <point x="55" y="527"/>
      <point x="69" y="488"/>
      <point x="97" y="461" type="curve"/>
      <point x="123" y="433"/>
      <point x="160" y="418"/>
      <point x="200" y="419" type="curve" smooth="yes"/>
      <point x="240" y="420"/>
      <point x="278" y="438"/>
      <point x="304" y="469" type="curve"/>
      <point x="231" y="532" type="line"/>
      <point x="223" y="523"/>
      <point x="210" y="517"/>
      <point x="197" y="516" type="curve" smooth="yes"/>
      <point x="186" y="516"/>
      <point x="174" y="522"/>
      <point x="165" y="529" type="curve"/>
      <point x="158" y="537"/>
      <point x="154" y="548"/>
      <point x="155" y="559" type="curve" smooth="yes"/>
      <point x="156" y="572"/>
      <point x="164" y="585"/>
      <point x="175" y="595" type="curve"/>
      <point x="189" y="604"/>
      <point x="208" y="610"/>
      <point x="227" y="611" type="curve"/>
      <point x="261" y="612"/>
      <point x="298" y="599"/>
      <point x="322" y="574" type="curve" smooth="yes"/>
      <point x="344" y="551"/>
      <point x="357" y="521"/>
      <point x="358" y="489" type="curve" smooth="yes"/>
      <point x="358" y="485"/>
      <point x="358" y="480"/>
      <point x="358" y="475" type="curve"/>
      <point x="456" y="473" type="line"/>
      <point x="456" y="479"/>
      <point x="456" y="483"/>
      <point x="456" y="488" type="curve" smooth="yes"/>
      <point x="458" y="522"/>
      <point x="475" y="556"/>
      <point x="500" y="579" type="curve" smooth="yes"/>
      <point x="508" y="587"/>
      <point x="518" y="594"/>
      <point x="528" y="599" type="curve"/>
      <point x="526" y="581"/>
      <point x="526" y="563"/>
      <point x="528" y="547" type="curve" smooth="yes"/>
      <point x="531" y="522"/>
      <point x="542" y="500"/>
      <point x="556" y="483" type="curve" smooth="yes"/>
      <point x="578" y="458"/>
      <point x="608" y="441"/>
      <point x="640" y="438" type="curve"/>
      <point x="644" y="438"/>
      <point x="647" y="438"/>
      <point x="650" y="438" type="curve" smooth="yes"/>
      <point x="654" y="438"/>
      <point x="657" y="438"/>
      <point x="662" y="439" type="curve"/>
      <point x="653" y="428"/>
      <point x="642" y="420"/>
      <point x="631" y="412" type="curve" smooth="yes"/>
      <point x="606" y="395"/>
      <point x="576" y="382"/>
      <point x="541" y="375" type="curve" smooth="yes"/>
      <point x="510" y="369"/>
      <point x="476" y="367"/>
      <point x="432" y="367" type="curve" smooth="yes"/>
      <point x="419" y="367"/>
      <point x="407" y="368"/>
      <point x="392" y="368" type="curve"/>
      <point x="333" y="369"/>
      <point x="270" y="372"/>
      <point x="209" y="352" type="curve"/>
      <point x="163" y="338"/>
      <point x="125" y="315"/>
      <point x="98" y="284" type="curve"/>
      <point x="64" y="248"/>
      <point x="46" y="201"/>
      <point x="49" y="153" type="curve"/>
      <point x="49" y="125"/>
      <point x="59" y="99"/>
      <point x="74" y="74" type="curve"/>
      <point x="86" y="51"/>
      <point x="106" y="32"/>
      <point x="128" y="16" type="curve" smooth="yes"/>
      <point x="168" y="-12"/>
      <point x="219" y="-26"/>
      <point x="273" y="-23" type="curve"/>
      <point x="315" y="-20"/>
      <point x="360" y="-8"/>
      <point x="407" y="14" type="curve"/>
      <point x="440" y="32"/>
      <point x="472" y="52"/>
      <point x="500" y="72" type="curve"/>
      <point x="505" y="61"/>
      <point x="513" y="51"/>
      <point x="520" y="42" type="curve" smooth="yes"/>
      <point x="545" y="11"/>
      <point x="582" y="-12"/>
      <point x="622" y="-21" type="curve"/>
      <point x="634" y="-25"/>
      <point x="647" y="-26"/>
      <point x="660" y="-26" type="curve" smooth="yes"/>
      <point x="687" y="-26"/>
      <point x="712" y="-19"/>
      <point x="733" y="-8" type="curve"/>
      <point x="753" y="2"/>
      <point x="768" y="16"/>
      <point x="781" y="33" type="curve" smooth="yes"/>
      <point x="793" y="51"/>
      <point x="801" y="72"/>
      <point x="804" y="95" type="curve"/>
      <point x="805" y="117"/>
      <point x="801" y="140"/>
      <point x="791" y="161" type="curve"/>
      <point x="782" y="181"/>
      <point x="768" y="198"/>
      <point x="750" y="211" type="curve"/>
      <point x="719" y="235"/>
      <point x="678" y="247"/>
      <point x="636" y="243" type="curve"/>
      <point x="604" y="241"/>
      <point x="571" y="231"/>
      <point x="535" y="211" type="curve"/>
      <point x="510" y="198"/>
      <point x="486" y="182"/>
      <point x="464" y="166" type="curve" smooth="yes"/>
      <point x="459" y="162" type="line" smooth="yes"/>
      <point x="429" y="140"/>
      <point x="397" y="119"/>
      <point x="364" y="102" type="curve"/>
      <point x="329" y="86"/>
      <point x="297" y="77"/>
      <point x="268" y="75" type="curve"/>
      <point x="236" y="73"/>
      <point x="205" y="80"/>
      <point x="184" y="97" type="curve"/>
      <point x="172" y="105"/>
      <point x="163" y="115"/>
      <point x="157" y="125" type="curve" smooth="yes"/>
      <point x="150" y="136"/>
      <point x="147" y="147"/>
      <point x="147" y="159" type="curve" smooth="yes"/>
      <point x="146" y="179"/>
      <point x="155" y="201"/>
      <point x="170" y="219" type="curve"/>
      <point x="187" y="236"/>
      <point x="210" y="250"/>
      <point x="236" y="258" type="curve" smooth="yes"/>
      <point x="283" y="273"/>
      <point x="336" y="272"/>
      <point x="390" y="271" type="curve"/>
      <point x="404" y="269"/>
      <point x="417" y="269"/>
      <point x="431" y="269" type="curve" smooth="yes"/>
      <point x="481" y="269"/>
      <point x="522" y="272"/>
      <point x="559" y="279" type="curve" smooth="yes"/>
      <point x="609" y="288"/>
      <point x="652" y="307"/>
      <point x="687" y="331" type="curve" smooth="yes"/>
      <point x="730" y="360"/>
      <point x="762" y="401"/>
      <point x="779" y="447" type="curve" smooth="yes"/>
      <point x="798" y="498"/>
      <point x="796" y="554"/>
      <point x="773" y="601" type="curve" smooth="yes"/>
      <point x="759" y="630"/>
      <point x="736" y="656"/>
      <point x="708" y="674" type="curve"/>
      <point x="706" y="676"/>
      <point x="704" y="677"/>
      <point x="701" y="678" type="curve"/>
      <point x="727" y="692"/>
      <point x="756" y="702"/>
      <point x="792" y="709" type="curve" smooth="yes"/>
      <point x="823" y="714"/>
      <point x="853" y="717"/>
    </contour>
  </outline>
</glyph>
<glyph name="uni0DA5" format="1">
  <advance width="1198"/>
  <unicode hex="0DA5"/>
  <outline>
    <contour>
      <point x="0" y="0" type="move" name="cursive11"/>
    </contour>
    <contour>
      <point x="0" y="0" type="move" name="_cursive11"/>
    </contour>
    <contour>
      <point x="0" y="0" type="move" name="cursive11"/>
    </contour>
    <contour>
      <point x="0" y="0" type="move" name="_cursive11"/>
    </contour>
    <contour>
      <point x="0" y="0" type="move" name="cursive11"/>
    </contour>
    <contour>
      <point x="0" y="0" type="move" name="_cursive11"/>
    </contour>
    <contour>
      <point x="0" y="0" type="move" name="cursive11"/>
    </contour>
    <contour>
      <point x="0" y="0" type="move" name="_cursive11"/>
    </contour>
    <contour>
      <point x="0" y="0" type="move" name="cursive11"/>
    </contour>
    <contour>
      <point x="0" y="0" type="move" name="_cursive11"/>
    </contour>
    <contour>
      <point x="0" y="0" type="move" name="cursive11"/>
    </contour>
    <contour>
      <point x="0" y="0" type="move" name="_cursive11"/>
    </contour>
    <contour>
      <point x="0" y="0" type="move" name="cursive11"/>
    </contour>
    <contour>
      <point x="0" y="0" type="move" name="_cursive11"/>
    </contour>
    <contour>
      <point x="0" y="0" type="move" name="cursive11"/>
    </contour>
    <contour>
      <point x="0" y="0" type="move" name="_cursive11"/>
    </contour>
    <contour>
      <point x="0" y="0" type="move" name="cursive11"/>
    </contour>
    <contour>
      <point x="0" y="0" type="move" name="_cursive11"/>
    </contour>
    <contour>
      <point x="0" y="0" type="move" name="cursive11"/>
    </contour>
    <contour>
      <point x="0" y="0" type="move" name="_cursive11"/>
    </contour>
    <contour>
      <point x="0" y="0" type="move" name="cursive11"/>
    </contour>
    <contour>
      <point x="0" y="0" type="move" name="_cursive11"/>
    </contour>
    <contour>
      <point x="0" y="0" type="move" name="cursive11"/>
    </contour>
    <contour>
      <point x="0" y="0" type="move" name="_cursive11"/>
    </contour>
    <contour>
      <point x="970" y="-11" type="curve" smooth="yes"/>
      <point x="844" y="-11"/>
      <point x="754" y="30"/>
      <point x="710" y="108" type="curve"/>
      <point x="670" y="29"/>
      <point x="591" y="-11"/>
      <point x="482" y="-11" type="curve"/>
      <point x="299" y="-12"/>
      <point x="199" y="105"/>
      <point x="200" y="280" type="curve"/>
      <point x="200" y="355"/>
      <point x="222" y="417"/>
      <point x="265" y="466" type="curve" smooth="yes"/>
      <point x="308" y="515"/>
      <point x="368" y="545"/>
      <point x="444" y="555" type="curve"/>
      <point x="424" y="559"/>
      <point x="395" y="561"/>
      <point x="359" y="561" type="curve" smooth="yes"/>
      <point x="213" y="562"/>
      <point x="112" y="461"/>
      <point x="113" y="311" type="curve"/>
      <point x="113" y="239"/>
      <point x="132" y="169"/>
      <point x="166" y="119" type="curve"/>
      <point x="99" y="85" type="line"/>
      <point x="58" y="158"/>
      <point x="38" y="234"/>
      <point x="38" y="315" type="curve" smooth="yes"/>
      <point x="38" y="412"/>
      <point x="67" y="488"/>
      <point x="125" y="543" type="curve" smooth="yes"/>
      <point x="184" y="599"/>
      <point x="262" y="627"/>
      <point x="359" y="627" type="curve" smooth="yes"/>
      <point x="420" y="627"/>
      <point x="483" y="610"/>
      <point x="536" y="580" type="curve"/>
      <point x="509" y="508" type="line"/>
      <point x="369" y="503"/>
      <point x="277" y="419"/>
      <point x="277" y="274" type="curve" smooth="yes"/>
      <point x="277" y="136"/>
      <point x="350" y="62"/>
      <point x="486" y="62" type="curve" smooth="yes"/>
      <point x="546" y="62"/>
      <point x="591" y="77"/>
      <point x="624" y="106" type="curve" smooth="yes"/>
      <point x="656" y="136"/>
      <point x="673" y="177"/>
      <point x="673" y="228" type="curve" smooth="yes"/>
      <point x="673" y="275"/>
      <point x="656" y="298"/>
      <point x="624" y="298" type="curve" smooth="yes"/>
      <point x="603" y="298"/>
      <point x="591" y="295"/>
      <point x="572" y="280" type="curve"/>
      <point x="499" y="303" type="line"/>
      <point x="516" y="409"/>
      <point x="554" y="490"/>
      <point x="613" y="545" type="curve" smooth="yes"/>
      <point x="673" y="599"/>
      <point x="749" y="627"/>
      <point x="842" y="627" type="curve" smooth="yes"/>
      <point x="874" y="627"/>
      <point x="904" y="625"/>
      <point x="933" y="621" type="curve"/>
      <point x="949" y="625"/>
      <point x="969" y="627"/>
      <point x="991" y="627" type="curve" smooth="yes"/>
      <point x="1105" y="627"/>
      <point x="1168" y="560"/>
      <point x="1168" y="440" type="curve" smooth="yes"/>
      <point x="1168" y="398" type="line"/>
      <point x="1010" y="398" type="line" smooth="yes"/>
      <point x="951" y="398"/>
      <point x="907" y="395"/>
      <point x="877" y="390" type="curve" smooth="yes"/>
      <point x="848" y="384"/>
      <point x="823" y="374"/>
      <point x="803" y="360" type="curve" smooth="yes"/>
      <point x="762" y="332"/>
      <point x="745" y="290"/>
      <point x="745" y="234" type="curve" smooth="yes"/>
      <point x="745" y="181"/>
      <point x="765" y="139"/>
      <point x="805" y="108" type="curve" smooth="yes"/>
      <point x="845" y="77"/>
      <point x="903" y="62"/>
      <point x="978" y="62" type="curve" smooth="yes"/>
      <point x="1047" y="62"/>
      <point x="1110" y="76"/>
      <point x="1169" y="106" type="curve"/>
      <point x="1191" y="37" type="line"/>
      <point x="1161" y="22"/>
      <point x="1128" y="10"/>
      <point x="1093" y="1" type="curve"/>
      <point x="1049" y="-35"/>
      <point x="1027" y="-76"/>
      <point x="1027" y="-122" type="curve" smooth="yes"/>
      <point x="1027" y="-179"/>
      <point x="1060" y="-208"/>
      <point x="1125" y="-208" type="curve" smooth="yes"/>
      <point x="1152" y="-208"/>
      <point x="1176" y="-203"/>
      <point x="1197" y="-192" type="curve"/>
      <point x="1214" y="-258" type="line"/>
      <point x="1184" y="-271"/>
      <point x="1149" y="-278"/>
      <point x="1109" y="-278" type="curve" smooth="yes"/>
      <point x="1009" y="-278"/>
      <point x="951" y="-222"/>
      <point x="951" y="-124" type="curve" smooth="yes"/>
      <point x="951" y="-83"/>
      <point x="966" y="-45"/>
      <point x="994" y="-11" type="curve"/>
      <point x="982" y="-11" type="line"/>
      <point x="978" y="-11"/>
      <point x="974" y="-11"/>
    </contour>
    <contour>
      <point x="853" y="561" type="curve"/>
      <point x="845" y="561" type="line" smooth="yes"/>
      <point x="713" y="561"/>
      <point x="619" y="490"/>
      <point x="580" y="357" type="curve"/>
      <point x="594" y="363"/>
      <point x="610" y="366"/>
      <point x="627" y="366" type="curve" smooth="yes"/>
      <point x="655" y="366"/>
      <point x="679" y="357"/>
      <point x="698" y="338" type="curve"/>
      <point x="709" y="365"/>
      <point x="727" y="387"/>
      <point x="752" y="407" type="curve" smooth="yes"/>
      <point x="777" y="426"/>
      <point x="809" y="441"/>
      <point x="848" y="451" type="curve" smooth="yes"/>
      <point x="886" y="461"/>
      <point x="940" y="466"/>
      <point x="1008" y="466" type="curve" smooth="yes"/>
      <point x="1095" y="466" type="line"/>
      <point x="1091" y="524"/>
      <point x="1056" y="559"/>
      <point x="997" y="559" type="curve" smooth="yes"/>
      <point x="941" y="559"/>
      <point x="915" y="536"/>
      <point x="915" y="503" type="curve" smooth="yes"/>
      <point x="915" y="497"/>
      <point x="916" y="492"/>
      <point x="917" y="488" type="curve"/>
      <point x="843" y="479" type="line"/>
      <point x="842" y="489"/>
      <point x="841" y="497"/>
      <point x="841" y="504" type="curve" smooth="yes"/>
      <point x="841" y="529"/>
      <point x="845" y="547"/>
    </contour>
  </outline>
</glyph>
<glyph name="uni0DA8" format="1">
  <advance width="940"/>
  <unicode hex="0DA8"/>
  <outline>
    <contour>
      <point x="0" y="0" type="move" name="cursive14"/>
    </contour>
    <contour>
      <point x="0" y="0" type="move" name="_cursive14"/>
    </contour>
    <contour>
      <point x="0" y="0" type="move" name="cursive14"/>
    </contour>
    <contour>
      <point x="0" y="0" type="move" name="_cursive14"/>
    </contour>
    <contour>
      <point x="0" y="0" type="move" name="cursive14"/>
    </contour>
    <contour>
      <point x="0" y="0" type="move" name="_cursive14"/>
    </contour>
    <contour>
      <point x="0" y="0" type="move" name="cursive14"/>
    </contour>
    <contour>
      <point x="0" y="0" type="move" name="_cursive14"/>
    </contour>
    <contour>
      <point x="0" y="0" type="move" name="cursive14"/>
    </contour>
    <contour>
      <point x="0" y="0" type="move" name="_cursive14"/>
    </contour>
    <contour>
      <point x="0" y="0" type="move" name="cursive14"/>
    </contour>
    <contour>
      <point x="0" y="0" type="move" name="_cursive14"/>
    </contour>
    <contour>
      <point x="0" y="0" type="move" name="cursive14"/>
    </contour>
    <contour>
      <point x="0" y="0" type="move" name="_cursive14"/>
    </contour>
    <contour>
      <point x="0" y="0" type="move" name="cursive14"/>
    </contour>
    <contour>
      <point x="0" y="0" type="move" name="_cursive14"/>
    </contour>
    <contour>
      <point x="0" y="0" type="move" name="cursive14"/>
    </contour>
    <contour>
      <point x="0" y="0" type="move" name="_cursive14"/>
    </contour>
    <contour>
      <point x="0" y="0" type="move" name="cursive14"/>
    </contour>
    <contour>
      <point x="0" y="0" type="move" name="_cursive14"/>
    </contour>
    <contour>
      <point x="0" y="0" type="move" name="cursive14"/>
    </contour>
    <contour>
      <point x="0" y="0" type="move" name="_cursive14"/>
    </contour>
    <contour>
      <point x="0" y="0" type="move" name="cursive14"/>
    </contour>
    <contour>
      <point x="0" y="0" type="move" name="_cursive14"/>
    </contour>
    <component base="uni0DA7"/>
  </outline>
</glyph>
<glyph name="uni0DAC" format="1">
  <advance width="965"/>
  <unicode hex="0DAC"/>
  <outline>
    <contour>
      <point x="0" y="0" type="move" name="cursive18"/>
    </contour>
    <contour>
      <point x="0" y="0" type="move" name="_cursive18"/>
    </contour>
    <contour>
      <point x="0" y="0" type="move" name="cursive18"/>
    </contour>
    <contour>
      <point x="0" y="0" type="move" name="_cursive18"/>
    </contour>
    <contour>
      <point x="0" y="0" type="move" name="cursive18"/>
    </contour>
    <contour>
      <point x="0" y="0" type="move" name="_cursive18"/>
    </contour>
    <contour>
      <point x="0" y="0" type="move" name="cursive18"/>
    </contour>
    <contour>
      <point x="0" y="0" type="move" name="_cursive18"/>
    </contour>
    <contour>
      <point x="0" y="0" type="move" name="cursive18"/>
    </contour>
    <contour>
      <point x="0" y="0" type="move" name="_cursive18"/>
    </contour>
    <contour>
      <point x="0" y="0" type="move" name="cursive18"/>
    </contour>
    <contour>
      <point x="0" y="0" type="move" name="_cursive18"/>
    </contour>
    <contour>
      <point x="0" y="0" type="move" name="cursive18"/>
    </contour>
    <contour>
      <point x="0" y="0" type="move" name="_cursive18"/>
    </contour>
    <contour>
      <point x="0" y="0" type="move" name="cursive18"/>
    </contour>
    <contour>
      <point x="0" y="0" type="move" name="_cursive18"/>
    </contour>
    <contour>
      <point x="0" y="0" type="move" name="cursive18"/>
    </contour>
    <contour>
      <point x="0" y="0" type="move" name="_cursive18"/>
    </contour>
    <contour>
      <point x="0" y="0" type="move" name="cursive18"/>
    </contour>
    <contour>
      <point x="0" y="0" type="move" name="_cursive18"/>
    </contour>
    <contour>
      <point x="0" y="0" type="move" name="cursive18"/>
    </contour>
    <contour>
      <point x="0" y="0" type="move" name="_cursive18"/>
    </contour>
    <contour>
      <point x="0" y="0" type="move" name="cursive18"/>
    </contour>
    <contour>
      <point x="0" y="0" type="move" name="_cursive18"/>
    </contour>
    <component base="uni0DA9"/>
  </outline>
</glyph>
<glyph name="uni0DAD" format="1">
  <advance width="1129"/>
  <unicode hex="0DAD"/>
  <outline>
    <contour>
      <point x="0" y="0" type="move" name="cursive19"/>
    </contour>
    <contour>
      <point x="0" y="0" type="move" name="_cursive19"/>
    </contour>
    <contour>
      <point x="0" y="0" type="move" name="cursive19"/>
    </contour>
    <contour>
      <point x="0" y="0" type="move" name="_cursive19"/>
    </contour>
    <contour>
      <point x="0" y="0" type="move" name="cursive19"/>
    </contour>
    <contour>
      <point x="0" y="0" type="move" name="_cursive19"/>
    </contour>
    <contour>
      <point x="0" y="0" type="move" name="cursive19"/>
    </contour>
    <contour>
      <point x="0" y="0" type="move" name="_cursive19"/>
    </contour>
    <contour>
      <point x="0" y="0" type="move" name="cursive19"/>
    </contour>
    <contour>
      <point x="0" y="0" type="move" name="_cursive19"/>
    </contour>
    <contour>
      <point x="0" y="0" type="move" name="cursive19"/>
    </contour>
    <contour>
      <point x="0" y="0" type="move" name="_cursive19"/>
    </contour>
    <contour>
      <point x="0" y="0" type="move" name="cursive19"/>
    </contour>
    <contour>
      <point x="0" y="0" type="move" name="_cursive19"/>
    </contour>
    <contour>
      <point x="0" y="0" type="move" name="cursive19"/>
    </contour>
    <contour>
      <point x="0" y="0" type="move" name="_cursive19"/>
    </contour>
    <contour>
      <point x="0" y="0" type="move" name="cursive19"/>
    </contour>
    <contour>
      <point x="0" y="0" type="move" name="_cursive19"/>
    </contour>
    <contour>
      <point x="0" y="0" type="move" name="cursive19"/>
    </contour>
    <contour>
      <point x="0" y="0" type="move" name="_cursive19"/>
    </contour>
    <contour>
      <point x="0" y="0" type="move" name="cursive19"/>
    </contour>
    <contour>
      <point x="0" y="0" type="move" name="_cursive19"/>
    </contour>
    <contour>
      <point x="0" y="0" type="move" name="cursive19"/>
    </contour>
    <contour>
      <point x="0" y="0" type="move" name="_cursive19"/>
    </contour>
    <contour>
      <point x="490" y="74" type="curve"/>
      <point x="490" y="73" type="line"/>
      <point x="280" y="73" type="line" smooth="yes"/>
      <point x="204" y="73"/>
      <point x="132" y="121"/>
      <point x="132" y="194" type="curve" smooth="yes"/>
      <point x="132" y="318"/>
      <point x="311" y="327"/>
      <point x="423" y="327" type="curve" smooth="yes"/>
      <point x="558" y="328" type="line"/>
      <point x="558" y="261"/>
      <point x="557" y="182"/>
      <point x="557" y="149" type="curve" smooth="yes"/>
      <point x="557" y="84"/>
      <point x="516" y="74"/>
    </contour>
    <contour>
      <point x="1030" y="176" type="curve"/>
      <point x="1023" y="311"/>
      <point x="923" y="404"/>
      <point x="767" y="417" type="curve"/>
      <point x="648" y="419" type="line"/>
      <point x="649" y="438"/>
      <point x="649" y="444"/>
      <point x="649" y="445" type="curve" smooth="yes"/>
      <point x="649" y="510"/>
      <point x="684" y="585"/>
      <point x="738" y="710" type="curve"/>
      <point x="413" y="710" type="line" smooth="yes"/>
      <point x="333" y="710"/>
      <point x="236" y="665"/>
      <point x="236" y="569" type="curve" smooth="yes"/>
      <point x="236" y="499"/>
      <point x="294" y="441"/>
      <point x="363" y="441" type="curve" smooth="yes"/>
      <point x="436" y="441"/>
      <point x="494" y="500"/>
      <point x="494" y="574" type="curve"/>
      <point x="403" y="572" type="line"/>
      <point x="403" y="552"/>
      <point x="387" y="531"/>
      <point x="366" y="531" type="curve" smooth="yes"/>
      <point x="345" y="531"/>
      <point x="327" y="546"/>
      <point x="327" y="568" type="curve" smooth="yes"/>
      <point x="327" y="597"/>
      <point x="362" y="621"/>
      <point x="430" y="621" type="curve" smooth="yes"/>
      <point x="602" y="622" type="line"/>
      <point x="585" y="584"/>
      <point x="558" y="505"/>
      <point x="558" y="444" type="curve" smooth="yes"/>
      <point x="558" y="444"/>
      <point x="558" y="434"/>
      <point x="558" y="417" type="curve"/>
      <point x="422" y="417" type="line" smooth="yes"/>
      <point x="279" y="416"/>
      <point x="42" y="396"/>
      <point x="42" y="195" type="curve" smooth="yes"/>
      <point x="42" y="77"/>
      <point x="145" y="-17"/>
      <point x="276" y="-17" type="curve" smooth="yes"/>
      <point x="355" y="-17"/>
      <point x="427" y="-17"/>
      <point x="499" y="-17" type="curve"/>
      <point x="499" y="-16" type="line"/>
      <point x="574" y="-14"/>
      <point x="648" y="39"/>
      <point x="648" y="149" type="curve" smooth="yes"/>
      <point x="648" y="182"/>
      <point x="648" y="261"/>
      <point x="648" y="328" type="curve"/>
      <point x="760" y="327" type="line"/>
      <point x="878" y="317"/>
      <point x="940" y="255"/>
      <point x="940" y="166" type="curve" smooth="yes"/>
      <point x="940" y="58"/>
      <point x="857" y="-33"/>
      <point x="705" y="-84" type="curve"/>
      <point x="598" y="-116"/>
      <point x="478" y="-122"/>
      <point x="362" y="-156" type="curve" smooth="yes"/>
      <point x="253" y="-189"/>
      <point x="151" y="-247"/>
      <point x="68" y="-325" type="curve"/>
      <point x="129" y="-390" type="line"/>
      <point x="202" y="-322"/>
      <point x="292" y="-271"/>
      <point x="387" y="-244" type="curve"/>
      <point x="493" y="-212"/>
      <point x="615" y="-208"/>
      <point x="732" y="-170" type="curve"/>
      <point x="921" y="-110"/>
      <point x="1030" y="18"/>
    </contour>
  </outline>
</glyph>
<glyph name="uni0DAE" format="1">
  <advance width="1066"/>
  <unicode hex="0DAE"/>
  <outline>
    <contour>
      <point x="0" y="0" type="move" name="cursive20"/>
    </contour>
    <contour>
      <point x="0" y="0" type="move" name="_cursive20"/>
    </contour>
    <contour>
      <point x="0" y="0" type="move" name="cursive20"/>
    </contour>
    <contour>
      <point x="0" y="0" type="move" name="_cursive20"/>
    </contour>
    <contour>
      <point x="0" y="0" type="move" name="cursive20"/>
    </contour>
    <contour>
      <point x="0" y="0" type="move" name="_cursive20"/>
    </contour>
    <contour>
      <point x="0" y="0" type="move" name="cursive20"/>
    </contour>
    <contour>
      <point x="0" y="0" type="move" name="_cursive20"/>
    </contour>
    <contour>
      <point x="0" y="0" type="move" name="cursive20"/>
    </contour>
    <contour>
      <point x="0" y="0" type="move" name="_cursive20"/>
    </contour>
    <contour>
      <point x="0" y="0" type="move" name="cursive20"/>
    </contour>
    <contour>
      <point x="0" y="0" type="move" name="_cursive20"/>
    </contour>
    <contour>
      <point x="0" y="0" type="move" name="cursive20"/>
    </contour>
    <contour>
      <point x="0" y="0" type="move" name="_cursive20"/>
    </contour>
    <contour>
      <point x="0" y="0" type="move" name="cursive20"/>
    </contour>
    <contour>
      <point x="0" y="0" type="move" name="_cursive20"/>
    </contour>
    <contour>
      <point x="0" y="0" type="move" name="cursive20"/>
    </contour>
    <contour>
      <point x="0" y="0" type="move" name="_cursive20"/>
    </contour>
    <contour>
      <point x="0" y="0" type="move" name="cursive20"/>
    </contour>
    <contour>
      <point x="0" y="0" type="move" name="_cursive20"/>
    </contour>
    <contour>
      <point x="0" y="0" type="move" name="cursive20"/>
    </contour>
    <contour>
      <point x="0" y="0" type="move" name="_cursive20"/>
    </contour>
    <contour>
      <point x="0" y="0" type="move" name="cursive20"/>
    </contour>
    <contour>
      <point x="0" y="0" type="move" name="_cursive20"/>
    </contour>
    <component base="uni0DAD"/>
  </outline>
</glyph>
